%TF.GenerationSoftware,KiCad,Pcbnew,7.0.2*%
%TF.CreationDate,2023-05-29T20:29:47-07:00*%
%TF.ProjectId,Test6502_project,54657374-3635-4303-925f-70726f6a6563,rev?*%
%TF.SameCoordinates,Original*%
%TF.FileFunction,Copper,L2,Bot*%
%TF.FilePolarity,Positive*%
%FSLAX46Y46*%
G04 Gerber Fmt 4.6, Leading zero omitted, Abs format (unit mm)*
G04 Created by KiCad (PCBNEW 7.0.2) date 2023-05-29 20:29:47*
%MOMM*%
%LPD*%
G01*
G04 APERTURE LIST*
G04 Aperture macros list*
%AMRoundRect*
0 Rectangle with rounded corners*
0 $1 Rounding radius*
0 $2 $3 $4 $5 $6 $7 $8 $9 X,Y pos of 4 corners*
0 Add a 4 corners polygon primitive as box body*
4,1,4,$2,$3,$4,$5,$6,$7,$8,$9,$2,$3,0*
0 Add four circle primitives for the rounded corners*
1,1,$1+$1,$2,$3*
1,1,$1+$1,$4,$5*
1,1,$1+$1,$6,$7*
1,1,$1+$1,$8,$9*
0 Add four rect primitives between the rounded corners*
20,1,$1+$1,$2,$3,$4,$5,0*
20,1,$1+$1,$4,$5,$6,$7,0*
20,1,$1+$1,$6,$7,$8,$9,0*
20,1,$1+$1,$8,$9,$2,$3,0*%
G04 Aperture macros list end*
%TA.AperFunction,ComponentPad*%
%ADD10C,1.600000*%
%TD*%
%TA.AperFunction,ComponentPad*%
%ADD11C,5.600000*%
%TD*%
%TA.AperFunction,ComponentPad*%
%ADD12O,1.600000X1.600000*%
%TD*%
%TA.AperFunction,ComponentPad*%
%ADD13R,2.200000X2.200000*%
%TD*%
%TA.AperFunction,ComponentPad*%
%ADD14O,2.200000X2.200000*%
%TD*%
%TA.AperFunction,ComponentPad*%
%ADD15R,1.600000X1.600000*%
%TD*%
%TA.AperFunction,ComponentPad*%
%ADD16R,1.700000X1.700000*%
%TD*%
%TA.AperFunction,ComponentPad*%
%ADD17O,1.700000X1.700000*%
%TD*%
%TA.AperFunction,ComponentPad*%
%ADD18R,3.500000X3.500000*%
%TD*%
%TA.AperFunction,ComponentPad*%
%ADD19RoundRect,0.750000X-1.000000X0.750000X-1.000000X-0.750000X1.000000X-0.750000X1.000000X0.750000X0*%
%TD*%
%TA.AperFunction,ComponentPad*%
%ADD20RoundRect,0.875000X-0.875000X0.875000X-0.875000X-0.875000X0.875000X-0.875000X0.875000X0.875000X0*%
%TD*%
%TA.AperFunction,ComponentPad*%
%ADD21R,1.270000X1.270000*%
%TD*%
%TA.AperFunction,ComponentPad*%
%ADD22C,1.270000*%
%TD*%
%TA.AperFunction,ComponentPad*%
%ADD23C,2.000000*%
%TD*%
%TA.AperFunction,ComponentPad*%
%ADD24R,1.800000X1.800000*%
%TD*%
%TA.AperFunction,ComponentPad*%
%ADD25C,1.800000*%
%TD*%
%TA.AperFunction,ComponentPad*%
%ADD26R,1.905000X2.000000*%
%TD*%
%TA.AperFunction,ComponentPad*%
%ADD27O,1.905000X2.000000*%
%TD*%
%TA.AperFunction,ViaPad*%
%ADD28C,0.800000*%
%TD*%
%TA.AperFunction,Conductor*%
%ADD29C,0.250000*%
%TD*%
%TA.AperFunction,Conductor*%
%ADD30C,0.762000*%
%TD*%
%TA.AperFunction,Conductor*%
%ADD31C,0.508000*%
%TD*%
G04 APERTURE END LIST*
D10*
%TO.P,C7,1*%
%TO.N,+5V*%
X123000000Y-40000000D03*
%TO.P,C7,2*%
%TO.N,GND*%
X123000000Y-37500000D03*
%TD*%
D11*
%TO.P,H2,1,1*%
%TO.N,GND*%
X21000000Y-126000000D03*
%TD*%
D10*
%TO.P,R2,1*%
%TO.N,+5V*%
X44190000Y-114500000D03*
D12*
%TO.P,R2,2*%
%TO.N,Net-(6502CPU1-BE)*%
X51810000Y-114500000D03*
%TD*%
D10*
%TO.P,C5,1*%
%TO.N,+5V*%
X62660000Y-104000000D03*
%TO.P,C5,2*%
%TO.N,GND*%
X62660000Y-101500000D03*
%TD*%
D13*
%TO.P,D2,1,K*%
%TO.N,Net-(D2-K)*%
X43000000Y-22920000D03*
D14*
%TO.P,D2,2,A*%
%TO.N,Net-(D2-A)*%
X43000000Y-33080000D03*
%TD*%
D10*
%TO.P,C4,1*%
%TO.N,+5V*%
X121000000Y-74760000D03*
%TO.P,C4,2*%
%TO.N,GND*%
X121000000Y-72260000D03*
%TD*%
%TO.P,C3,1*%
%TO.N,+5V*%
X21000000Y-74760000D03*
%TO.P,C3,2*%
%TO.N,GND*%
X21000000Y-72260000D03*
%TD*%
D15*
%TO.P,ACIA1,1,VSS*%
%TO.N,GND*%
X115400000Y-72260000D03*
D12*
%TO.P,ACIA1,2,CS1*%
%TO.N,+5V*%
X112860000Y-72260000D03*
%TO.P,ACIA1,3,~{CS2}*%
%TO.N,/~{IO1}*%
X110320000Y-72260000D03*
%TO.P,ACIA1,4,~{RES}*%
%TO.N,/~{RES}*%
X107780000Y-72260000D03*
%TO.P,ACIA1,5,RxC*%
%TO.N,unconnected-(ACIA1-RxC-Pad5)*%
X105240000Y-72260000D03*
%TO.P,ACIA1,6,XTAL1*%
%TO.N,/CLK*%
X102700000Y-72260000D03*
%TO.P,ACIA1,7,XTAL2*%
%TO.N,unconnected-(ACIA1-XTAL2-Pad7)*%
X100160000Y-72260000D03*
%TO.P,ACIA1,8,~{RTS}*%
%TO.N,/~{ACIA_RTS}*%
X97620000Y-72260000D03*
%TO.P,ACIA1,9,~{CTS}*%
%TO.N,GND*%
X95080000Y-72260000D03*
%TO.P,ACIA1,10,TxD*%
%TO.N,/ACIA_TX*%
X92540000Y-72260000D03*
%TO.P,ACIA1,11,~{DTR}*%
%TO.N,Net-(ACIA1-~{DCD})*%
X90000000Y-72260000D03*
%TO.P,ACIA1,12,RxD*%
%TO.N,/ACIA_RX*%
X87460000Y-72260000D03*
%TO.P,ACIA1,13,RS0*%
%TO.N,/A0*%
X84920000Y-72260000D03*
%TO.P,ACIA1,14,RS1*%
%TO.N,/A1*%
X82380000Y-72260000D03*
%TO.P,ACIA1,15,VCC*%
%TO.N,+5V*%
X82380000Y-87500000D03*
%TO.P,ACIA1,16,~{DCD}*%
%TO.N,Net-(ACIA1-~{DCD})*%
X84920000Y-87500000D03*
%TO.P,ACIA1,17,~{DSR}*%
X87460000Y-87500000D03*
%TO.P,ACIA1,18,D0*%
%TO.N,/D0*%
X90000000Y-87500000D03*
%TO.P,ACIA1,19,D1*%
%TO.N,/D1*%
X92540000Y-87500000D03*
%TO.P,ACIA1,20,D2*%
%TO.N,/D2*%
X95080000Y-87500000D03*
%TO.P,ACIA1,21,D3*%
%TO.N,/D3*%
X97620000Y-87500000D03*
%TO.P,ACIA1,22,D4*%
%TO.N,/D4*%
X100160000Y-87500000D03*
%TO.P,ACIA1,23,D5*%
%TO.N,/D5*%
X102700000Y-87500000D03*
%TO.P,ACIA1,24,D6*%
%TO.N,/D6*%
X105240000Y-87500000D03*
%TO.P,ACIA1,25,D7*%
%TO.N,/D7*%
X107780000Y-87500000D03*
%TO.P,ACIA1,26,~{IRQ}*%
%TO.N,/~{ACIAIRQ}*%
X110320000Y-87500000D03*
%TO.P,ACIA1,27,\u03D52*%
%TO.N,/CLK*%
X112860000Y-87500000D03*
%TO.P,ACIA1,28,R/~{W}*%
%TO.N,/R{slash}~{W}*%
X115400000Y-87500000D03*
%TD*%
D16*
%TO.P,J3,1,Pin_1*%
%TO.N,+5V*%
X70000000Y-40960000D03*
D17*
%TO.P,J3,2,Pin_2*%
%TO.N,GND*%
X70000000Y-43500000D03*
%TO.P,J3,3,Pin_3*%
%TO.N,/CB1*%
X67460000Y-40960000D03*
%TO.P,J3,4,Pin_4*%
%TO.N,/CB2*%
X67460000Y-43500000D03*
%TO.P,J3,5,Pin_5*%
%TO.N,/PB0*%
X64920000Y-40960000D03*
%TO.P,J3,6,Pin_6*%
%TO.N,/PB7*%
X64920000Y-43500000D03*
%TO.P,J3,7,Pin_7*%
%TO.N,/PB1*%
X62380000Y-40960000D03*
%TO.P,J3,8,Pin_8*%
%TO.N,/PB6*%
X62380000Y-43500000D03*
%TO.P,J3,9,Pin_9*%
%TO.N,/PB2*%
X59840000Y-40960000D03*
%TO.P,J3,10,Pin_10*%
%TO.N,/PB5*%
X59840000Y-43500000D03*
%TO.P,J3,11,Pin_11*%
%TO.N,/PB3*%
X57300000Y-40960000D03*
%TO.P,J3,12,Pin_12*%
%TO.N,/PB4*%
X57300000Y-43500000D03*
%TD*%
D15*
%TO.P,SW_ROM_SEL1,1,A*%
%TO.N,+5V*%
X68000000Y-25000000D03*
D10*
%TO.P,SW_ROM_SEL1,2,B*%
%TO.N,/ROM_SEL*%
X68000000Y-27500000D03*
%TO.P,SW_ROM_SEL1,3,C*%
%TO.N,GND*%
X68000000Y-30000000D03*
%TD*%
%TO.P,C2,1*%
%TO.N,+5V*%
X121000000Y-52260000D03*
%TO.P,C2,2*%
%TO.N,GND*%
X121000000Y-49760000D03*
%TD*%
D15*
%TO.P,74LS138,1,A0*%
%TO.N,/A10*%
X67425000Y-116320000D03*
D12*
%TO.P,74LS138,2,A1*%
%TO.N,/A11*%
X69965000Y-116320000D03*
%TO.P,74LS138,3,A2*%
%TO.N,/A12*%
X72505000Y-116320000D03*
%TO.P,74LS138,4,E1*%
%TO.N,/A13*%
X75045000Y-116320000D03*
%TO.P,74LS138,5,E2*%
%TO.N,/A14*%
X77585000Y-116320000D03*
%TO.P,74LS138,6,E3*%
%TO.N,/A15*%
X80125000Y-116320000D03*
%TO.P,74LS138,7,O7*%
%TO.N,/~{IO7}*%
X82665000Y-116320000D03*
%TO.P,74LS138,8,GND*%
%TO.N,GND*%
X85205000Y-116320000D03*
%TO.P,74LS138,9,O6*%
%TO.N,/~{IO6}*%
X85205000Y-108700000D03*
%TO.P,74LS138,10,O5*%
%TO.N,/~{IO5}*%
X82665000Y-108700000D03*
%TO.P,74LS138,11,O4*%
%TO.N,/~{IO4}*%
X80125000Y-108700000D03*
%TO.P,74LS138,12,O3*%
%TO.N,/~{IO3}*%
X77585000Y-108700000D03*
%TO.P,74LS138,13,O2*%
%TO.N,/~{IO2}*%
X75045000Y-108700000D03*
%TO.P,74LS138,14,O1*%
%TO.N,/~{IO1}*%
X72505000Y-108700000D03*
%TO.P,74LS138,15,O0*%
%TO.N,/~{IO0}*%
X69965000Y-108700000D03*
%TO.P,74LS138,16,VCC*%
%TO.N,+5V*%
X67425000Y-108700000D03*
%TD*%
D15*
%TO.P,6502CPU1,1,~{VP}*%
%TO.N,unconnected-(6502CPU1-~{VP}-Pad1)*%
X26820000Y-87500000D03*
D12*
%TO.P,6502CPU1,2,RDY*%
%TO.N,Net-(6502CPU1-RDY)*%
X29360000Y-87500000D03*
%TO.P,6502CPU1,3,\u03D51*%
%TO.N,unconnected-(6502CPU1-\u03D51-Pad3)*%
X31900000Y-87500000D03*
%TO.P,6502CPU1,4,~{IRQ}*%
%TO.N,/~{IRQ}*%
X34440000Y-87500000D03*
%TO.P,6502CPU1,5,~{ML}*%
%TO.N,unconnected-(6502CPU1-~{ML}-Pad5)*%
X36980000Y-87500000D03*
%TO.P,6502CPU1,6,~{NMI}*%
%TO.N,/~{NMI}*%
X39520000Y-87500000D03*
%TO.P,6502CPU1,7,SYNC*%
%TO.N,unconnected-(6502CPU1-SYNC-Pad7)*%
X42060000Y-87500000D03*
%TO.P,6502CPU1,8,VDD*%
%TO.N,+5V*%
X44600000Y-87500000D03*
%TO.P,6502CPU1,9,A0*%
%TO.N,/A0*%
X47140000Y-87500000D03*
%TO.P,6502CPU1,10,A1*%
%TO.N,/A1*%
X49680000Y-87500000D03*
%TO.P,6502CPU1,11,A2*%
%TO.N,/A2*%
X52220000Y-87500000D03*
%TO.P,6502CPU1,12,A3*%
%TO.N,/A3*%
X54760000Y-87500000D03*
%TO.P,6502CPU1,13,A4*%
%TO.N,/A4*%
X57300000Y-87500000D03*
%TO.P,6502CPU1,14,A5*%
%TO.N,/A5*%
X59840000Y-87500000D03*
%TO.P,6502CPU1,15,A6*%
%TO.N,/A6*%
X62380000Y-87500000D03*
%TO.P,6502CPU1,16,A7*%
%TO.N,/A7*%
X64920000Y-87500000D03*
%TO.P,6502CPU1,17,A8*%
%TO.N,/A8*%
X67460000Y-87500000D03*
%TO.P,6502CPU1,18,A9*%
%TO.N,/A9*%
X70000000Y-87500000D03*
%TO.P,6502CPU1,19,A10*%
%TO.N,/A10*%
X72540000Y-87500000D03*
%TO.P,6502CPU1,20,A11*%
%TO.N,/A11*%
X75080000Y-87500000D03*
%TO.P,6502CPU1,21,VSS*%
%TO.N,GND*%
X75080000Y-72260000D03*
%TO.P,6502CPU1,22,A12*%
%TO.N,/A12*%
X72540000Y-72260000D03*
%TO.P,6502CPU1,23,A13*%
%TO.N,/A13*%
X70000000Y-72260000D03*
%TO.P,6502CPU1,24,A14*%
%TO.N,/A14*%
X67460000Y-72260000D03*
%TO.P,6502CPU1,25,A15*%
%TO.N,/A15*%
X64920000Y-72260000D03*
%TO.P,6502CPU1,26,D7*%
%TO.N,/D7*%
X62380000Y-72260000D03*
%TO.P,6502CPU1,27,D6*%
%TO.N,/D6*%
X59840000Y-72260000D03*
%TO.P,6502CPU1,28,D5*%
%TO.N,/D5*%
X57300000Y-72260000D03*
%TO.P,6502CPU1,29,D4*%
%TO.N,/D4*%
X54760000Y-72260000D03*
%TO.P,6502CPU1,30,D3*%
%TO.N,/D3*%
X52220000Y-72260000D03*
%TO.P,6502CPU1,31,D2*%
%TO.N,/D2*%
X49680000Y-72260000D03*
%TO.P,6502CPU1,32,D1*%
%TO.N,/D1*%
X47140000Y-72260000D03*
%TO.P,6502CPU1,33,D0*%
%TO.N,/D0*%
X44600000Y-72260000D03*
%TO.P,6502CPU1,34,R/~{W}*%
%TO.N,/R{slash}~{W}*%
X42060000Y-72260000D03*
%TO.P,6502CPU1,35,nc*%
%TO.N,unconnected-(6502CPU1-nc-Pad35)*%
X39520000Y-72260000D03*
%TO.P,6502CPU1,36,BE*%
%TO.N,Net-(6502CPU1-BE)*%
X36980000Y-72260000D03*
%TO.P,6502CPU1,37,\u03D50*%
%TO.N,/CLK*%
X34440000Y-72260000D03*
%TO.P,6502CPU1,38,~{SO}*%
%TO.N,+5V*%
X31900000Y-72260000D03*
%TO.P,6502CPU1,39,\u03D52*%
%TO.N,unconnected-(6502CPU1-\u03D52-Pad39)*%
X29360000Y-72260000D03*
%TO.P,6502CPU1,40,~{RES}*%
%TO.N,/~{RES}*%
X26820000Y-72260000D03*
%TD*%
D15*
%TO.P,SW_PWR1,1,A*%
%TO.N,Net-(D2-A)*%
X22000000Y-40500000D03*
D10*
%TO.P,SW_PWR1,2,B*%
%TO.N,Net-(SW_PWR1-B)*%
X22000000Y-38000000D03*
%TO.P,SW_PWR1,3,C*%
%TO.N,unconnected-(SW_PWR1-C-Pad3)*%
X22000000Y-35500000D03*
%TD*%
D16*
%TO.P,J1,1,Pin_1*%
%TO.N,/~{NMI}*%
X94960000Y-124000000D03*
D17*
%TO.P,J1,2,Pin_2*%
%TO.N,/~{ACIAIRQ}*%
X97500000Y-124000000D03*
%TO.P,J1,3,Pin_3*%
%TO.N,/~{IRQ}*%
X94960000Y-126540000D03*
%TO.P,J1,4,Pin_4*%
%TO.N,/~{VIAIRQ}*%
X97500000Y-126540000D03*
%TD*%
D15*
%TO.P,CLK1,1,EN*%
%TO.N,unconnected-(CLK1-EN-Pad1)*%
X37500000Y-108380000D03*
D10*
%TO.P,CLK1,7,GND*%
%TO.N,GND*%
X22260000Y-108380000D03*
%TO.P,CLK1,8,OUT*%
%TO.N,/CLK*%
X22260000Y-116000000D03*
%TO.P,CLK1,14,Vcc*%
%TO.N,+5V*%
X37500000Y-116000000D03*
%TD*%
%TO.P,R4,1*%
%TO.N,GND*%
X51810000Y-125500000D03*
D12*
%TO.P,R4,2*%
%TO.N,Net-(D1-K)*%
X44190000Y-125500000D03*
%TD*%
D11*
%TO.P,H4,1,1*%
%TO.N,GND*%
X124000000Y-126000000D03*
%TD*%
%TO.P,H3,1,1*%
%TO.N,GND*%
X124000000Y-25000000D03*
%TD*%
D18*
%TO.P,J5,1*%
%TO.N,Net-(SW_PWR1-B)*%
X32957500Y-34500000D03*
D19*
%TO.P,J5,2*%
%TO.N,GND*%
X32957500Y-28500000D03*
D20*
%TO.P,J5,3*%
%TO.N,N/C*%
X28257500Y-31500000D03*
%TD*%
D16*
%TO.P,J7,1,Pin_1*%
%TO.N,+5V*%
X67220000Y-126000000D03*
D17*
%TO.P,J7,2,Pin_2*%
%TO.N,/~{IO0}*%
X67220000Y-123460000D03*
%TO.P,J7,3,Pin_3*%
%TO.N,GND*%
X69760000Y-126000000D03*
%TO.P,J7,4,Pin_4*%
%TO.N,/~{IO1}*%
X69760000Y-123460000D03*
%TO.P,J7,5,Pin_5*%
%TO.N,/CLK*%
X72300000Y-126000000D03*
%TO.P,J7,6,Pin_6*%
%TO.N,/~{IO2}*%
X72300000Y-123460000D03*
%TO.P,J7,7,Pin_7*%
%TO.N,/~{RES}*%
X74840000Y-126000000D03*
%TO.P,J7,8,Pin_8*%
%TO.N,/~{IO3}*%
X74840000Y-123460000D03*
%TO.P,J7,9,Pin_9*%
%TO.N,/~{RAMWE}*%
X77380000Y-126000000D03*
%TO.P,J7,10,Pin_10*%
%TO.N,/~{IO4}*%
X77380000Y-123460000D03*
%TO.P,J7,11,Pin_11*%
%TO.N,/R{slash}~{W}*%
X79920000Y-126000000D03*
%TO.P,J7,12,Pin_12*%
%TO.N,/~{IO5}*%
X79920000Y-123460000D03*
%TO.P,J7,13,Pin_13*%
%TO.N,/~{NMI}*%
X82460000Y-126000000D03*
%TO.P,J7,14,Pin_14*%
%TO.N,/~{IO6}*%
X82460000Y-123460000D03*
%TO.P,J7,15,Pin_15*%
%TO.N,/~{IRQ}*%
X85000000Y-126000000D03*
%TO.P,J7,16,Pin_16*%
%TO.N,/~{IO7}*%
X85000000Y-123460000D03*
%TD*%
D15*
%TO.P,U6,1*%
%TO.N,/A15*%
X67420000Y-104500000D03*
D12*
%TO.P,U6,2*%
X69960000Y-104500000D03*
%TO.P,U6,3*%
%TO.N,/~{ROMCS}*%
X72500000Y-104500000D03*
%TO.P,U6,4*%
%TO.N,/A14*%
X75040000Y-104500000D03*
%TO.P,U6,5*%
X77580000Y-104500000D03*
%TO.P,U6,6*%
%TO.N,/~{ROMOE}*%
X80120000Y-104500000D03*
%TO.P,U6,7,GND*%
%TO.N,GND*%
X82660000Y-104500000D03*
%TO.P,U6,8*%
%TO.N,/~{RAMOE}*%
X82660000Y-96880000D03*
%TO.P,U6,9*%
%TO.N,/R{slash}~{W}*%
X80120000Y-96880000D03*
%TO.P,U6,10*%
X77580000Y-96880000D03*
%TO.P,U6,11*%
%TO.N,/~{RAMWE}*%
X75040000Y-96880000D03*
%TO.P,U6,12*%
%TO.N,/~{RAMOE}*%
X72500000Y-96880000D03*
%TO.P,U6,13*%
%TO.N,/CLK*%
X69960000Y-96880000D03*
%TO.P,U6,14,VCC*%
%TO.N,+5V*%
X67420000Y-96880000D03*
%TD*%
D21*
%TO.P,DS1813,1,\u002ARST*%
%TO.N,/~{RES}*%
X107270000Y-118540000D03*
D22*
%TO.P,DS1813,2,VCC*%
%TO.N,+5V*%
X106000000Y-117270000D03*
%TO.P,DS1813,3,GND*%
%TO.N,GND*%
X107270000Y-116000000D03*
%TD*%
D10*
%TO.P,R1,1*%
%TO.N,+5V*%
X44190000Y-109500000D03*
D12*
%TO.P,R1,2*%
%TO.N,Net-(6502CPU1-RDY)*%
X51810000Y-109500000D03*
%TD*%
D15*
%TO.P,ROM1,1,A14*%
%TO.N,/ROM_SEL*%
X116980000Y-23730000D03*
D12*
%TO.P,ROM1,2,A12*%
%TO.N,/A12*%
X114440000Y-23730000D03*
%TO.P,ROM1,3,A7*%
%TO.N,/A7*%
X111900000Y-23730000D03*
%TO.P,ROM1,4,A6*%
%TO.N,/A6*%
X109360000Y-23730000D03*
%TO.P,ROM1,5,A5*%
%TO.N,/A5*%
X106820000Y-23730000D03*
%TO.P,ROM1,6,A4*%
%TO.N,/A4*%
X104280000Y-23730000D03*
%TO.P,ROM1,7,A3*%
%TO.N,/A3*%
X101740000Y-23730000D03*
%TO.P,ROM1,8,A2*%
%TO.N,/A2*%
X99200000Y-23730000D03*
%TO.P,ROM1,9,A1*%
%TO.N,/A1*%
X96660000Y-23730000D03*
%TO.P,ROM1,10,A0*%
%TO.N,/A0*%
X94120000Y-23730000D03*
%TO.P,ROM1,11,D0*%
%TO.N,/D0*%
X91580000Y-23730000D03*
%TO.P,ROM1,12,D1*%
%TO.N,/D1*%
X89040000Y-23730000D03*
%TO.P,ROM1,13,D2*%
%TO.N,/D2*%
X86500000Y-23730000D03*
%TO.P,ROM1,14,GND*%
%TO.N,GND*%
X83960000Y-23730000D03*
%TO.P,ROM1,15,D3*%
%TO.N,/D3*%
X83960000Y-38970000D03*
%TO.P,ROM1,16,D4*%
%TO.N,/D4*%
X86500000Y-38970000D03*
%TO.P,ROM1,17,D5*%
%TO.N,/D5*%
X89040000Y-38970000D03*
%TO.P,ROM1,18,D6*%
%TO.N,/D6*%
X91580000Y-38970000D03*
%TO.P,ROM1,19,D7*%
%TO.N,/D7*%
X94120000Y-38970000D03*
%TO.P,ROM1,20,~{CS}*%
%TO.N,/~{ROMCS}*%
X96660000Y-38970000D03*
%TO.P,ROM1,21,A10*%
%TO.N,/A10*%
X99200000Y-38970000D03*
%TO.P,ROM1,22,~{OE}*%
%TO.N,/~{ROMOE}*%
X101740000Y-38970000D03*
%TO.P,ROM1,23,A11*%
%TO.N,/A11*%
X104280000Y-38970000D03*
%TO.P,ROM1,24,A9*%
%TO.N,/A9*%
X106820000Y-38970000D03*
%TO.P,ROM1,25,A8*%
%TO.N,/A8*%
X109360000Y-38970000D03*
%TO.P,ROM1,26,A13*%
%TO.N,/A13*%
X111900000Y-38970000D03*
%TO.P,ROM1,27,~{WE}*%
%TO.N,+5V*%
X114440000Y-38970000D03*
%TO.P,ROM1,28,VCC*%
X116980000Y-38970000D03*
%TD*%
D23*
%TO.P,SW_RES1,1,1*%
%TO.N,GND*%
X111500000Y-115000000D03*
X118000000Y-115000000D03*
%TO.P,SW_RES1,2,2*%
%TO.N,/~{RES}*%
X111500000Y-119500000D03*
X118000000Y-119500000D03*
%TD*%
D12*
%TO.P,VIA1,40,CA1*%
%TO.N,/CA1*%
X26486481Y-49674940D03*
%TO.P,VIA1,39,CA2*%
%TO.N,/CA2*%
X29026481Y-49674940D03*
%TO.P,VIA1,38,RS0*%
%TO.N,/A0*%
X31566481Y-49674940D03*
%TO.P,VIA1,37,RS1*%
%TO.N,/A1*%
X34106481Y-49674940D03*
%TO.P,VIA1,36,RS2*%
%TO.N,/A2*%
X36646481Y-49674940D03*
%TO.P,VIA1,35,RS3*%
%TO.N,/A3*%
X39186481Y-49674940D03*
%TO.P,VIA1,34,~{RES}*%
%TO.N,/~{RES}*%
X41726481Y-49674940D03*
%TO.P,VIA1,33,D0*%
%TO.N,/D0*%
X44266481Y-49674940D03*
%TO.P,VIA1,32,D1*%
%TO.N,/D1*%
X46806481Y-49674940D03*
%TO.P,VIA1,31,D2*%
%TO.N,/D2*%
X49346481Y-49674940D03*
%TO.P,VIA1,30,D3*%
%TO.N,/D3*%
X51886481Y-49674940D03*
%TO.P,VIA1,29,D4*%
%TO.N,/D4*%
X54426481Y-49674940D03*
%TO.P,VIA1,28,D5*%
%TO.N,/D5*%
X56966481Y-49674940D03*
%TO.P,VIA1,27,D6*%
%TO.N,/D6*%
X59506481Y-49674940D03*
%TO.P,VIA1,26,D7*%
%TO.N,/D7*%
X62046481Y-49674940D03*
%TO.P,VIA1,25,\u03D52*%
%TO.N,/CLK*%
X64586481Y-49674940D03*
%TO.P,VIA1,24,CS1*%
%TO.N,+5V*%
X67126481Y-49674940D03*
%TO.P,VIA1,23,~{CS2}*%
%TO.N,/~{IO0}*%
X69666481Y-49674940D03*
%TO.P,VIA1,22,R/~{W}*%
%TO.N,/R{slash}~{W}*%
X72206481Y-49674940D03*
%TO.P,VIA1,21,~{IRQ}*%
%TO.N,/~{VIAIRQ}*%
X74746481Y-49674940D03*
%TO.P,VIA1,20,VCC*%
%TO.N,+5V*%
X74746481Y-64914940D03*
%TO.P,VIA1,19,CB2*%
%TO.N,/CB2*%
X72206481Y-64914940D03*
%TO.P,VIA1,18,CB1*%
%TO.N,/CB1*%
X69666481Y-64914940D03*
%TO.P,VIA1,17,PB7*%
%TO.N,/PB7*%
X67126481Y-64914940D03*
%TO.P,VIA1,16,PB6*%
%TO.N,/PB6*%
X64586481Y-64914940D03*
%TO.P,VIA1,15,PB5*%
%TO.N,/PB5*%
X62046481Y-64914940D03*
%TO.P,VIA1,14,PB4*%
%TO.N,/PB4*%
X59506481Y-64914940D03*
%TO.P,VIA1,13,PB3*%
%TO.N,/PB3*%
X56966481Y-64914940D03*
%TO.P,VIA1,12,PB2*%
%TO.N,/PB2*%
X54426481Y-64914940D03*
%TO.P,VIA1,11,PB1*%
%TO.N,/PB1*%
X51886481Y-64914940D03*
%TO.P,VIA1,10,PB0*%
%TO.N,/PB0*%
X49346481Y-64914940D03*
%TO.P,VIA1,9,PA7*%
%TO.N,/PA7*%
X46806481Y-64914940D03*
%TO.P,VIA1,8,PA6*%
%TO.N,/PA6*%
X44266481Y-64914940D03*
%TO.P,VIA1,7,PA5*%
%TO.N,/PA5*%
X41726481Y-64914940D03*
%TO.P,VIA1,6,PA4*%
%TO.N,/PA4*%
X39186481Y-64914940D03*
%TO.P,VIA1,5,PA3*%
%TO.N,/PA3*%
X36646481Y-64914940D03*
%TO.P,VIA1,4,PA2*%
%TO.N,/PA2*%
X34106481Y-64914940D03*
%TO.P,VIA1,3,PA1*%
%TO.N,/PA1*%
X31566481Y-64914940D03*
%TO.P,VIA1,2,PA0*%
%TO.N,/PA0*%
X29026481Y-64914940D03*
D15*
%TO.P,VIA1,1,VSS*%
%TO.N,GND*%
X26486481Y-64914940D03*
%TD*%
D24*
%TO.P,D1,1,K*%
%TO.N,Net-(D1-K)*%
X38775000Y-125500000D03*
D25*
%TO.P,D1,2,A*%
%TO.N,+5V*%
X36235000Y-125500000D03*
%TD*%
D10*
%TO.P,C6,1*%
%TO.N,+5V*%
X62500000Y-116000000D03*
%TO.P,C6,2*%
%TO.N,GND*%
X62500000Y-113500000D03*
%TD*%
D16*
%TO.P,J6,1,Pin_1*%
%TO.N,/A0*%
X30140000Y-97000000D03*
D17*
%TO.P,J6,2,Pin_2*%
%TO.N,/A12*%
X30140000Y-94460000D03*
%TO.P,J6,3,Pin_3*%
%TO.N,/A1*%
X32680000Y-97000000D03*
%TO.P,J6,4,Pin_4*%
%TO.N,/A13*%
X32680000Y-94460000D03*
%TO.P,J6,5,Pin_5*%
%TO.N,/A2*%
X35220000Y-97000000D03*
%TO.P,J6,6,Pin_6*%
%TO.N,/A14*%
X35220000Y-94460000D03*
%TO.P,J6,7,Pin_7*%
%TO.N,/A3*%
X37760000Y-97000000D03*
%TO.P,J6,8,Pin_8*%
%TO.N,/A15*%
X37760000Y-94460000D03*
%TO.P,J6,9,Pin_9*%
%TO.N,/A4*%
X40300000Y-97000000D03*
%TO.P,J6,10,Pin_10*%
%TO.N,/D0*%
X40300000Y-94460000D03*
%TO.P,J6,11,Pin_11*%
%TO.N,/A5*%
X42840000Y-97000000D03*
%TO.P,J6,12,Pin_12*%
%TO.N,/D1*%
X42840000Y-94460000D03*
%TO.P,J6,13,Pin_13*%
%TO.N,/A6*%
X45380000Y-97000000D03*
%TO.P,J6,14,Pin_14*%
%TO.N,/D2*%
X45380000Y-94460000D03*
%TO.P,J6,15,Pin_15*%
%TO.N,/A7*%
X47920000Y-97000000D03*
%TO.P,J6,16,Pin_16*%
%TO.N,/D3*%
X47920000Y-94460000D03*
%TO.P,J6,17,Pin_17*%
%TO.N,/A8*%
X50460000Y-97000000D03*
%TO.P,J6,18,Pin_18*%
%TO.N,/D4*%
X50460000Y-94460000D03*
%TO.P,J6,19,Pin_19*%
%TO.N,/A9*%
X53000000Y-97000000D03*
%TO.P,J6,20,Pin_20*%
%TO.N,/D5*%
X53000000Y-94460000D03*
%TO.P,J6,21,Pin_21*%
%TO.N,/A10*%
X55540000Y-97000000D03*
%TO.P,J6,22,Pin_22*%
%TO.N,/D6*%
X55540000Y-94460000D03*
%TO.P,J6,23,Pin_23*%
%TO.N,/A11*%
X58080000Y-97000000D03*
%TO.P,J6,24,Pin_24*%
%TO.N,/D7*%
X58080000Y-94460000D03*
%TD*%
D15*
%TO.P,RAM1,1,A14*%
%TO.N,/A14*%
X115320000Y-49520000D03*
D12*
%TO.P,RAM1,2,A12*%
%TO.N,/A12*%
X112780000Y-49520000D03*
%TO.P,RAM1,3,A7*%
%TO.N,/A7*%
X110240000Y-49520000D03*
%TO.P,RAM1,4,A6*%
%TO.N,/A6*%
X107700000Y-49520000D03*
%TO.P,RAM1,5,A5*%
%TO.N,/A5*%
X105160000Y-49520000D03*
%TO.P,RAM1,6,A4*%
%TO.N,/A4*%
X102620000Y-49520000D03*
%TO.P,RAM1,7,A3*%
%TO.N,/A3*%
X100080000Y-49520000D03*
%TO.P,RAM1,8,A2*%
%TO.N,/A2*%
X97540000Y-49520000D03*
%TO.P,RAM1,9,A1*%
%TO.N,/A1*%
X95000000Y-49520000D03*
%TO.P,RAM1,10,A0*%
%TO.N,/A0*%
X92460000Y-49520000D03*
%TO.P,RAM1,11,Q0*%
%TO.N,/D0*%
X89920000Y-49520000D03*
%TO.P,RAM1,12,Q1*%
%TO.N,/D1*%
X87380000Y-49520000D03*
%TO.P,RAM1,13,Q2*%
%TO.N,/D2*%
X84840000Y-49520000D03*
%TO.P,RAM1,14,GND*%
%TO.N,GND*%
X82300000Y-49520000D03*
%TO.P,RAM1,15,Q3*%
%TO.N,/D3*%
X82300000Y-64760000D03*
%TO.P,RAM1,16,Q4*%
%TO.N,/D4*%
X84840000Y-64760000D03*
%TO.P,RAM1,17,Q5*%
%TO.N,/D5*%
X87380000Y-64760000D03*
%TO.P,RAM1,18,Q6*%
%TO.N,/D6*%
X89920000Y-64760000D03*
%TO.P,RAM1,19,Q7*%
%TO.N,/D7*%
X92460000Y-64760000D03*
%TO.P,RAM1,20,~{CS}*%
%TO.N,/A15*%
X95000000Y-64760000D03*
%TO.P,RAM1,21,A10*%
%TO.N,/A10*%
X97540000Y-64760000D03*
%TO.P,RAM1,22,~{OE}*%
%TO.N,/~{RAMOE}*%
X100080000Y-64760000D03*
%TO.P,RAM1,23,A11*%
%TO.N,/A11*%
X102620000Y-64760000D03*
%TO.P,RAM1,24,A9*%
%TO.N,/A9*%
X105160000Y-64760000D03*
%TO.P,RAM1,25,A8*%
%TO.N,/A8*%
X107700000Y-64760000D03*
%TO.P,RAM1,26,A13*%
%TO.N,/A13*%
X110240000Y-64760000D03*
%TO.P,RAM1,27,~{WE}*%
%TO.N,/~{RAMWE}*%
X112780000Y-64760000D03*
%TO.P,RAM1,28,VCC*%
%TO.N,+5V*%
X115320000Y-64760000D03*
%TD*%
D11*
%TO.P,H1,1,1*%
%TO.N,GND*%
X21000000Y-25000000D03*
%TD*%
D10*
%TO.P,R3,1*%
%TO.N,+5V*%
X44190000Y-119500000D03*
D12*
%TO.P,R3,2*%
%TO.N,/~{ACIAIRQ}*%
X51810000Y-119500000D03*
%TD*%
D26*
%TO.P,U1,1,VI*%
%TO.N,Net-(D2-K)*%
X50920000Y-25404830D03*
D27*
%TO.P,U1,2,GND*%
%TO.N,GND*%
X53460000Y-25404830D03*
%TO.P,U1,3,VO*%
%TO.N,+5V*%
X56000000Y-25404830D03*
%TD*%
D12*
%TO.P,UART1,1,Pin_1*%
%TO.N,unconnected-(UART1-Pin_1-Pad1)*%
X121960000Y-92260000D03*
%TO.P,UART1,2,Pin_2*%
%TO.N,unconnected-(UART1-Pin_2-Pad2)*%
X119420000Y-92260000D03*
%TO.P,UART1,3,Pin_3*%
%TO.N,unconnected-(UART1-Pin_3-Pad3)*%
X116880000Y-92260000D03*
%TO.P,UART1,4,Pin_4*%
%TO.N,unconnected-(UART1-Pin_4-Pad4)*%
X114340000Y-92260000D03*
%TO.P,UART1,5,Pin_5*%
%TO.N,unconnected-(UART1-Pin_5-Pad5)*%
X111800000Y-92260000D03*
%TO.P,UART1,6,Pin_6*%
%TO.N,unconnected-(UART1-Pin_6-Pad6)*%
X109260000Y-92260000D03*
%TO.P,UART1,7,Pin_7*%
%TO.N,unconnected-(UART1-Pin_7-Pad7)*%
X106720000Y-92260000D03*
%TO.P,UART1,8,Pin_8*%
%TO.N,unconnected-(UART1-Pin_8-Pad8)*%
X104180000Y-92260000D03*
%TO.P,UART1,9,Pin_9*%
%TO.N,unconnected-(UART1-Pin_9-Pad9)*%
X101640000Y-92260000D03*
%TO.P,UART1,10,Pin_10*%
%TO.N,+5V*%
X99100000Y-92260000D03*
%TO.P,UART1,11,Pin_11*%
%TO.N,/ACIA_RX*%
X99100000Y-107500000D03*
%TO.P,UART1,12,Pin_12*%
%TO.N,GND*%
X101640000Y-107500000D03*
%TO.P,UART1,13,Pin_13*%
%TO.N,unconnected-(UART1-Pin_13-Pad13)*%
X104180000Y-107500000D03*
%TO.P,UART1,14,Pin_14*%
%TO.N,/ACIA_TX*%
X106720000Y-107500000D03*
%TO.P,UART1,15,Pin_15*%
%TO.N,unconnected-(UART1-Pin_15-Pad15)*%
X109260000Y-107500000D03*
%TO.P,UART1,16,Pin_16*%
%TO.N,unconnected-(UART1-Pin_16-Pad16)*%
X111800000Y-107500000D03*
%TO.P,UART1,17,Pin_17*%
%TO.N,unconnected-(UART1-Pin_17-Pad17)*%
X114340000Y-107500000D03*
%TO.P,UART1,18,Pin_18*%
%TO.N,/~{ACIA_RTS}*%
X116880000Y-107500000D03*
%TO.P,UART1,19,Pin_19*%
%TO.N,GND*%
X119420000Y-107500000D03*
%TO.P,UART1,20,Pin_20*%
X121960000Y-107500000D03*
%TD*%
D10*
%TO.P,C8,1*%
%TO.N,Net-(D2-K)*%
X48500000Y-32000000D03*
%TO.P,C8,2*%
%TO.N,GND*%
X51000000Y-32000000D03*
%TD*%
D16*
%TO.P,J2,1,Pin_1*%
%TO.N,+5V*%
X46000000Y-41000000D03*
D17*
%TO.P,J2,2,Pin_2*%
%TO.N,GND*%
X46000000Y-43540000D03*
%TO.P,J2,3,Pin_3*%
%TO.N,/CA1*%
X43460000Y-41000000D03*
%TO.P,J2,4,Pin_4*%
%TO.N,/CA2*%
X43460000Y-43540000D03*
%TO.P,J2,5,Pin_5*%
%TO.N,/PA0*%
X40920000Y-41000000D03*
%TO.P,J2,6,Pin_6*%
%TO.N,/PA7*%
X40920000Y-43540000D03*
%TO.P,J2,7,Pin_7*%
%TO.N,/PA1*%
X38380000Y-41000000D03*
%TO.P,J2,8,Pin_8*%
%TO.N,/PA6*%
X38380000Y-43540000D03*
%TO.P,J2,9,Pin_9*%
%TO.N,/PA2*%
X35840000Y-41000000D03*
%TO.P,J2,10,Pin_10*%
%TO.N,/PA5*%
X35840000Y-43540000D03*
%TO.P,J2,11,Pin_11*%
%TO.N,/PA3*%
X33300000Y-41000000D03*
%TO.P,J2,12,Pin_12*%
%TO.N,/PA4*%
X33300000Y-43540000D03*
%TD*%
D10*
%TO.P,C1,1*%
%TO.N,+5V*%
X21000000Y-52260000D03*
%TO.P,C1,2*%
%TO.N,GND*%
X21000000Y-49760000D03*
%TD*%
%TO.P,C9,1*%
%TO.N,+5V*%
X58500000Y-32000000D03*
%TO.P,C9,2*%
%TO.N,GND*%
X56000000Y-32000000D03*
%TD*%
D28*
%TO.N,/A0*%
X54512299Y-78987701D03*
X85000000Y-75000000D03*
%TO.N,/A1*%
X82000000Y-75725500D03*
X56000000Y-79500000D03*
%TO.N,/A2*%
X56024598Y-80500000D03*
%TO.N,/A3*%
X56762299Y-81237701D03*
%TO.N,/A4*%
X58000000Y-82325500D03*
%TO.N,/A5*%
X60000000Y-82325500D03*
%TO.N,/A6*%
X62380000Y-82325500D03*
%TO.N,/A7*%
X64920000Y-82000000D03*
%TO.N,/A8*%
X119500000Y-82000000D03*
X71000000Y-85000000D03*
%TO.N,/A9*%
X71000000Y-83500000D03*
X119500000Y-80500000D03*
%TO.N,/A10*%
X119500000Y-78500000D03*
X102000000Y-62000000D03*
%TO.N,/A11*%
X71000000Y-82000000D03*
X119500000Y-79500000D03*
%TO.N,/A12*%
X32000000Y-84500000D03*
X72511719Y-79724500D03*
%TO.N,/A13*%
X33500000Y-83000000D03*
X76000000Y-85000000D03*
X119500000Y-83000000D03*
%TO.N,/A14*%
X77500000Y-80500000D03*
X33500000Y-81000000D03*
X77500000Y-110500000D03*
%TO.N,/A15*%
X91000000Y-68760000D03*
X33267701Y-79732299D03*
X80000000Y-110500000D03*
X78500000Y-67000000D03*
X79500000Y-101275500D03*
%TO.N,+5V*%
X76000000Y-54000000D03*
%TO.N,/D3*%
X82500000Y-69500000D03*
X94000000Y-73500000D03*
X94482434Y-85482039D03*
%TO.N,/D4*%
X101500000Y-74500000D03*
%TO.N,/D5*%
X103500000Y-74500000D03*
%TO.N,/D6*%
X106000000Y-74500000D03*
%TO.N,/D7*%
X108500000Y-74500000D03*
%TO.N,Net-(ACIA1-~{DCD})*%
X90000000Y-84000000D03*
%TO.N,/~{IO1}*%
X89500000Y-108500000D03*
%TO.N,/~{IRQ}*%
X57500000Y-114500000D03*
%TO.N,/~{NMI}*%
X55500000Y-114500000D03*
%TO.N,/R{slash}~{W}*%
X72000000Y-63000000D03*
X92500000Y-99500000D03*
X115500000Y-96000000D03*
X79000000Y-118000000D03*
X62500000Y-68500000D03*
X78500000Y-111000000D03*
X83000000Y-90500000D03*
X78549275Y-114637394D03*
X79500000Y-94500000D03*
X80000000Y-73000000D03*
X95000000Y-97000000D03*
%TO.N,/~{RES}*%
X71500000Y-80500000D03*
X40500000Y-85500000D03*
X110500000Y-81000000D03*
%TO.N,/~{ACIA_RTS}*%
X97139500Y-86000000D03*
%TO.N,/ACIA_TX*%
X91500000Y-84500000D03*
%TO.N,/ACIA_RX*%
X88184500Y-85000000D03*
%TO.N,/~{VIAIRQ}*%
X77535771Y-52464229D03*
X79000000Y-63500000D03*
X79276207Y-66275500D03*
%TO.N,/CA1*%
X45500000Y-46000000D03*
X30000000Y-47000000D03*
%TO.N,/CA2*%
X34500000Y-46000000D03*
X44500000Y-45500000D03*
%TO.N,/~{IO0}*%
X79574500Y-87500000D03*
X79500000Y-71500000D03*
X70000000Y-61500000D03*
%TO.N,/CLK*%
X37500000Y-75000000D03*
%TO.N,/~{RAMOE}*%
X86000000Y-93500000D03*
%TO.N,/~{RAMWE}*%
X76500000Y-118000000D03*
X75500000Y-114500000D03*
X113983196Y-89483196D03*
X116539873Y-69960500D03*
X94500000Y-95500000D03*
X75500000Y-111000000D03*
X91500000Y-98500000D03*
%TO.N,/~{ROMCS}*%
X87000000Y-91500000D03*
X83000000Y-100500000D03*
%TO.N,/~{ROMOE}*%
X87724500Y-92500000D03*
X83012299Y-101512299D03*
%TD*%
D29*
%TO.N,/A0*%
X109809009Y-71000000D02*
X111500000Y-71000000D01*
X57762701Y-76500000D02*
X58762701Y-75500000D01*
X38395000Y-78755000D02*
X47140000Y-87500000D01*
X92460000Y-49520000D02*
X104000000Y-61060000D01*
X104000000Y-61060000D02*
X104000000Y-65190991D01*
X85000000Y-75000000D02*
X87660000Y-75000000D01*
X104000000Y-65190991D02*
X109809009Y-71000000D01*
X38395000Y-70895001D02*
X38395000Y-78755000D01*
X108670991Y-75500000D02*
X88160000Y-75500000D01*
X37771481Y-55879940D02*
X37771481Y-70271482D01*
X111500000Y-72670991D02*
X108670991Y-75500000D01*
X111500000Y-71000000D02*
X111500000Y-72670991D01*
X37771481Y-70271482D02*
X38395000Y-70895001D01*
X54512299Y-78987701D02*
X57000000Y-76500000D01*
X31566481Y-49674940D02*
X37771481Y-55879940D01*
X87660000Y-75000000D02*
X88160000Y-75500000D01*
X57000000Y-76500000D02*
X57762701Y-76500000D01*
X80974695Y-75500000D02*
X81474695Y-75000000D01*
X58762701Y-75500000D02*
X80974695Y-75500000D01*
X81474695Y-75000000D02*
X85000000Y-75000000D01*
%TO.N,/A1*%
X40935000Y-78755000D02*
X49680000Y-87500000D01*
X112484009Y-71135000D02*
X106500000Y-65150991D01*
X40935000Y-71435000D02*
X40935000Y-78755000D01*
X34106481Y-49674940D02*
X40311481Y-55879940D01*
X82225500Y-75500000D02*
X84474695Y-75500000D01*
X82000000Y-75725500D02*
X81725500Y-76000000D01*
X113985000Y-71794009D02*
X113325991Y-71135000D01*
X106500000Y-65150991D02*
X106500000Y-61020000D01*
X84474695Y-75500000D02*
X84924695Y-75950000D01*
X84924695Y-75950000D02*
X110760991Y-75950000D01*
X81725500Y-76000000D02*
X59500000Y-76000000D01*
X113325991Y-71135000D02*
X112484009Y-71135000D01*
X59500000Y-76000000D02*
X56000000Y-79500000D01*
X106500000Y-61020000D02*
X95000000Y-49520000D01*
X40311481Y-70811481D02*
X40935000Y-71435000D01*
X110760991Y-75950000D02*
X113985000Y-72725991D01*
X82000000Y-75725500D02*
X82225500Y-75500000D01*
X40311481Y-55879940D02*
X40311481Y-70811481D01*
X113985000Y-72725991D02*
X113985000Y-71794009D01*
%TO.N,/A2*%
X42851481Y-55879940D02*
X42851481Y-69486481D01*
X116525000Y-71135000D02*
X115024009Y-71135000D01*
X56024598Y-80500000D02*
X60074598Y-76450000D01*
X116525000Y-73385000D02*
X116525000Y-71135000D01*
X43475000Y-78755000D02*
X52220000Y-87500000D01*
X42851481Y-69486481D02*
X43475000Y-70110000D01*
X113460000Y-76450000D02*
X116525000Y-73385000D01*
X36646481Y-49674940D02*
X42851481Y-55879940D01*
X115024009Y-71135000D02*
X109115000Y-65225991D01*
X109115000Y-61095000D02*
X97540000Y-49520000D01*
X60074598Y-76450000D02*
X113460000Y-76450000D01*
X109115000Y-65225991D02*
X109115000Y-61095000D01*
X43475000Y-70110000D02*
X43475000Y-78755000D01*
%TO.N,/A3*%
X39186481Y-49674940D02*
X45391481Y-55879940D01*
X46015000Y-70150000D02*
X46015000Y-78755000D01*
X116711396Y-70685000D02*
X116198198Y-70685000D01*
X45391481Y-55879940D02*
X45391481Y-69526481D01*
X117000000Y-73546396D02*
X117000000Y-70973604D01*
X111500000Y-60940000D02*
X100080000Y-49520000D01*
X117000000Y-70973604D02*
X116711396Y-70685000D01*
X46015000Y-78755000D02*
X54760000Y-87500000D01*
X111500000Y-65986802D02*
X111500000Y-60940000D01*
X45391481Y-69526481D02*
X46015000Y-70150000D01*
X116198198Y-70685000D02*
X111500000Y-65986802D01*
X56762299Y-81237701D02*
X61000000Y-77000000D01*
X61000000Y-77000000D02*
X113546396Y-77000000D01*
X113546396Y-77000000D02*
X117000000Y-73546396D01*
%TO.N,/A4*%
X62825500Y-77500000D02*
X113682792Y-77500000D01*
X117450000Y-64350000D02*
X102620000Y-49520000D01*
X113682792Y-77500000D02*
X117450000Y-73732792D01*
X58000000Y-82325500D02*
X62825500Y-77500000D01*
X117450000Y-73732792D02*
X117450000Y-64350000D01*
%TO.N,/A5*%
X113869188Y-77950000D02*
X117900000Y-73919188D01*
X117900000Y-62260000D02*
X105160000Y-49520000D01*
X64375500Y-77950000D02*
X113869188Y-77950000D01*
X60000000Y-82325500D02*
X64375500Y-77950000D01*
X117900000Y-73919188D02*
X117900000Y-62260000D01*
%TO.N,/A6*%
X113955584Y-78500000D02*
X118350000Y-74105584D01*
X66205500Y-78500000D02*
X113955584Y-78500000D01*
X62380000Y-82325500D02*
X66205500Y-78500000D01*
X118350000Y-74105584D02*
X118350000Y-60170000D01*
X118350000Y-60170000D02*
X107700000Y-49520000D01*
%TO.N,/A7*%
X118800000Y-74700000D02*
X118800000Y-58080000D01*
X118800000Y-58080000D02*
X110240000Y-49520000D01*
X114500000Y-79000000D02*
X118800000Y-74700000D01*
X67920000Y-79000000D02*
X114500000Y-79000000D01*
X64920000Y-82000000D02*
X67920000Y-79000000D01*
%TO.N,/A8*%
X97262598Y-82325000D02*
X83572249Y-82325000D01*
X97937598Y-83000000D02*
X97262598Y-82325000D01*
X119500000Y-82000000D02*
X119474695Y-82000000D01*
X71775000Y-84225000D02*
X71000000Y-85000000D01*
X81672249Y-84225000D02*
X71775000Y-84225000D01*
X119474695Y-82000000D02*
X118474695Y-83000000D01*
X83572249Y-82325000D02*
X81672249Y-84225000D01*
X118474695Y-83000000D02*
X97937598Y-83000000D01*
%TO.N,/A9*%
X117450000Y-82550000D02*
X119500000Y-80500000D01*
X81760853Y-83500000D02*
X83385853Y-81875000D01*
X97448994Y-81875000D02*
X98123994Y-82550000D01*
X71000000Y-83500000D02*
X81760853Y-83500000D01*
X98123994Y-82550000D02*
X117450000Y-82550000D01*
X83385853Y-81875000D02*
X97448994Y-81875000D01*
%TO.N,/A10*%
X100300000Y-62000000D02*
X102000000Y-62000000D01*
X96775000Y-83275000D02*
X83895041Y-83275000D01*
X55540000Y-104435000D02*
X55540000Y-97000000D01*
X67425000Y-116320000D02*
X55540000Y-104435000D01*
X73665000Y-86375000D02*
X72540000Y-87500000D01*
X80795041Y-86375000D02*
X73665000Y-86375000D01*
X97500000Y-84000000D02*
X96775000Y-83275000D01*
X120225000Y-78725000D02*
X120225000Y-83300305D01*
X119500000Y-78500000D02*
X120000000Y-78500000D01*
X119525305Y-84000000D02*
X97500000Y-84000000D01*
X120225000Y-83300305D02*
X119525305Y-84000000D01*
X83895041Y-83275000D02*
X80795041Y-86375000D01*
X120000000Y-78500000D02*
X120225000Y-78725000D01*
X97540000Y-64760000D02*
X100300000Y-62000000D01*
%TO.N,/A11*%
X81086396Y-82000000D02*
X71000000Y-82000000D01*
X100400000Y-82100000D02*
X100000000Y-82100000D01*
X116874695Y-82100000D02*
X110000000Y-82100000D01*
X98600000Y-82100000D02*
X98500000Y-82000000D01*
X98500000Y-82000000D02*
X97925000Y-81425000D01*
X110000000Y-82100000D02*
X100400000Y-82100000D01*
X100000000Y-82100000D02*
X98600000Y-82100000D01*
X85000000Y-81425000D02*
X81661396Y-81425000D01*
X97925000Y-81425000D02*
X85000000Y-81425000D01*
X119500000Y-79500000D02*
X119474695Y-79500000D01*
X81661396Y-81425000D02*
X81086396Y-82000000D01*
X119474695Y-79500000D02*
X116874695Y-82100000D01*
%TO.N,/A12*%
X114636396Y-79500000D02*
X119250000Y-74886396D01*
X119250000Y-74886396D02*
X119250000Y-55990000D01*
X119250000Y-55990000D02*
X112780000Y-49520000D01*
X75275500Y-79724500D02*
X75500000Y-79500000D01*
X75500000Y-79500000D02*
X114636396Y-79500000D01*
X30140000Y-94460000D02*
X30775000Y-93825000D01*
X72511719Y-79724500D02*
X75275500Y-79724500D01*
X30775000Y-85725000D02*
X32000000Y-84500000D01*
X30775000Y-93825000D02*
X30775000Y-85725000D01*
%TO.N,/A13*%
X83758645Y-82775000D02*
X81533645Y-85000000D01*
X81533645Y-85000000D02*
X76000000Y-85000000D01*
X97801202Y-83500000D02*
X97076202Y-82775000D01*
X33315000Y-93825000D02*
X33315000Y-83185000D01*
X119000000Y-83500000D02*
X97801202Y-83500000D01*
X119500000Y-83000000D02*
X119000000Y-83500000D01*
X32680000Y-94460000D02*
X33315000Y-93825000D01*
X97076202Y-82775000D02*
X83758645Y-82775000D01*
X33315000Y-83185000D02*
X33500000Y-83000000D01*
%TO.N,/A14*%
X119700000Y-75300000D02*
X115000000Y-80000000D01*
X35855000Y-93825000D02*
X35855000Y-83355000D01*
X35855000Y-83355000D02*
X33500000Y-81000000D01*
X76460000Y-105620000D02*
X77580000Y-104500000D01*
X35220000Y-94460000D02*
X35855000Y-93825000D01*
X119700000Y-55200000D02*
X119700000Y-75300000D01*
X78000000Y-80000000D02*
X77500000Y-80500000D01*
X77500000Y-110500000D02*
X76460000Y-109460000D01*
X115000000Y-80000000D02*
X78000000Y-80000000D01*
X115320000Y-50820000D02*
X119700000Y-55200000D01*
X76460000Y-109460000D02*
X76460000Y-105620000D01*
X115320000Y-49520000D02*
X115320000Y-50820000D01*
%TO.N,/A15*%
X78500000Y-67000000D02*
X81025305Y-67000000D01*
X81250000Y-109250000D02*
X80000000Y-110500000D01*
X81025305Y-67000000D02*
X83225000Y-69199695D01*
X84500000Y-70500000D02*
X89260000Y-70500000D01*
X83225000Y-69225000D02*
X84500000Y-70500000D01*
X33267701Y-79732299D02*
X38395000Y-84859598D01*
X81250000Y-103025500D02*
X81250000Y-109250000D01*
X89260000Y-70500000D02*
X91000000Y-68760000D01*
X79500000Y-101275500D02*
X81250000Y-103025500D01*
X38395000Y-93825000D02*
X37760000Y-94460000D01*
X83225000Y-69199695D02*
X83225000Y-69225000D01*
X38395000Y-84859598D02*
X38395000Y-93825000D01*
D30*
%TO.N,+5V*%
X100481000Y-90879000D02*
X113974029Y-90879000D01*
X122381000Y-73379000D02*
X121000000Y-74760000D01*
X121000000Y-52260000D02*
X122381000Y-53641000D01*
X99100000Y-92260000D02*
X100481000Y-90879000D01*
X71451541Y-54000000D02*
X76000000Y-54000000D01*
X113974029Y-90879000D02*
X121000000Y-83853029D01*
X68801000Y-95499000D02*
X74381000Y-95499000D01*
X44600000Y-87500000D02*
X31900000Y-74800000D01*
X31900000Y-74800000D02*
X31900000Y-72260000D01*
X121000000Y-83853029D02*
X121000000Y-74760000D01*
X74381000Y-95499000D02*
X82380000Y-87500000D01*
X67420000Y-96880000D02*
X68801000Y-95499000D01*
X67126481Y-49674940D02*
X71451541Y-54000000D01*
X122381000Y-53641000D02*
X122381000Y-73379000D01*
%TO.N,GND*%
X111500000Y-115000000D02*
X108270000Y-115000000D01*
X23799999Y-128799999D02*
X21000000Y-126000000D01*
X46000000Y-43540000D02*
X47391000Y-44931000D01*
X118000000Y-115000000D02*
X111500000Y-115000000D01*
X85205000Y-116320000D02*
X79496000Y-122029000D01*
D31*
X82300000Y-49520000D02*
X83554000Y-50774000D01*
D30*
X51000000Y-38540000D02*
X51000000Y-32000000D01*
X95080000Y-73920000D02*
X95080000Y-72260000D01*
D31*
X46850000Y-46272591D02*
X44701651Y-48420940D01*
D30*
X51810000Y-125500000D02*
X48510001Y-128799999D01*
X118000000Y-115000000D02*
X118000000Y-108920000D01*
X101640000Y-110370000D02*
X107270000Y-116000000D01*
X79496000Y-122029000D02*
X61471000Y-122029000D01*
X65931000Y-127431000D02*
X61000000Y-122500000D01*
D31*
X90726000Y-50774000D02*
X91206000Y-50294000D01*
D30*
X121000000Y-49760000D02*
X119619000Y-51141000D01*
X108270000Y-115000000D02*
X107270000Y-116000000D01*
X61000000Y-115000000D02*
X62500000Y-113500000D01*
D31*
X83554000Y-50774000D02*
X90726000Y-50774000D01*
D30*
X85205000Y-116320000D02*
X92820000Y-116320000D01*
X50429000Y-124119000D02*
X51810000Y-125500000D01*
X26486481Y-66773519D02*
X21000000Y-72260000D01*
X94500000Y-74500000D02*
X95080000Y-73920000D01*
X92820000Y-116320000D02*
X101640000Y-107500000D01*
X47391000Y-44931000D02*
X68569000Y-44931000D01*
D31*
X86000000Y-43500000D02*
X70000000Y-43500000D01*
D30*
X118000000Y-115000000D02*
X124000000Y-121000000D01*
X90481000Y-111044000D02*
X85205000Y-116320000D01*
X68329000Y-127431000D02*
X65931000Y-127431000D01*
X46000000Y-43540000D02*
X51000000Y-38540000D01*
D31*
X44701651Y-48420940D02*
X43747057Y-48420940D01*
D30*
X86887344Y-104500000D02*
X90481000Y-108093656D01*
X90481000Y-108093656D02*
X90481000Y-111044000D01*
X76839000Y-74019000D02*
X87677434Y-74019000D01*
D31*
X43012481Y-52512481D02*
X48060481Y-57560481D01*
D30*
X88158434Y-74500000D02*
X94500000Y-74500000D01*
X75080000Y-72260000D02*
X76839000Y-74019000D01*
D31*
X48060481Y-65560481D02*
X53506000Y-71006000D01*
D30*
X68569000Y-44931000D02*
X70000000Y-43500000D01*
D31*
X46000000Y-43540000D02*
X46850000Y-44390000D01*
D30*
X87677434Y-74019000D02*
X88158434Y-74500000D01*
X26486481Y-64914940D02*
X26486481Y-66773519D01*
D31*
X91206000Y-48706000D02*
X86000000Y-43500000D01*
X91206000Y-50294000D02*
X91206000Y-48706000D01*
D30*
X69760000Y-126000000D02*
X68329000Y-127431000D01*
X61000000Y-122500000D02*
X61000000Y-115000000D01*
X61471000Y-122029000D02*
X61000000Y-122500000D01*
X55112656Y-113500000D02*
X50429000Y-118183656D01*
X118000000Y-108920000D02*
X119420000Y-107500000D01*
X82660000Y-104500000D02*
X86887344Y-104500000D01*
X50429000Y-118183656D02*
X50429000Y-124119000D01*
X101640000Y-107500000D02*
X101640000Y-110370000D01*
X121000000Y-55081000D02*
X121000000Y-72260000D01*
X121000000Y-49760000D02*
X121000000Y-39500000D01*
D31*
X46850000Y-44390000D02*
X46850000Y-46272591D01*
X48060481Y-57560481D02*
X48060481Y-65560481D01*
D30*
X46000000Y-43540000D02*
X46480000Y-44020000D01*
X124000000Y-121000000D02*
X124000000Y-126000000D01*
X121960000Y-107500000D02*
X119420000Y-107500000D01*
X119619000Y-51141000D02*
X119619000Y-53700000D01*
X121000000Y-39500000D02*
X123000000Y-37500000D01*
X48510001Y-128799999D02*
X23799999Y-128799999D01*
X62500000Y-113500000D02*
X55112656Y-113500000D01*
D31*
X53506000Y-71006000D02*
X73826000Y-71006000D01*
X43747057Y-48420940D02*
X43012481Y-49155516D01*
X73826000Y-71006000D02*
X75080000Y-72260000D01*
X43012481Y-49155516D02*
X43012481Y-52512481D01*
D30*
X119619000Y-53700000D02*
X121000000Y-55081000D01*
D29*
%TO.N,/D0*%
X44600000Y-77976396D02*
X44600000Y-72260000D01*
X52000000Y-89500000D02*
X53345000Y-88155000D01*
X45260000Y-89500000D02*
X52000000Y-89500000D01*
X44266481Y-49674940D02*
X46941421Y-47000000D01*
X53345000Y-86721396D02*
X44600000Y-77976396D01*
X40300000Y-94460000D02*
X45260000Y-89500000D01*
X87400000Y-47000000D02*
X89920000Y-49520000D01*
X53345000Y-88155000D02*
X53345000Y-86721396D01*
X46941421Y-47000000D02*
X87400000Y-47000000D01*
%TO.N,/D1*%
X85360000Y-47500000D02*
X87380000Y-49520000D01*
X56000000Y-87000000D02*
X56000000Y-87850991D01*
X47300000Y-90000000D02*
X42840000Y-94460000D01*
X56000000Y-87850991D02*
X53850991Y-90000000D01*
X48981421Y-47500000D02*
X85360000Y-47500000D01*
X46806481Y-49674940D02*
X48981421Y-47500000D01*
X47140000Y-78140000D02*
X56000000Y-87000000D01*
X47140000Y-72260000D02*
X47140000Y-78140000D01*
X53850991Y-90000000D02*
X47300000Y-90000000D01*
%TO.N,/D2*%
X49346481Y-49674940D02*
X51071421Y-47950000D01*
X58500000Y-87890991D02*
X55890991Y-90500000D01*
X51071421Y-47950000D02*
X83270000Y-47950000D01*
X49680000Y-72260000D02*
X47590000Y-74350000D01*
X57500001Y-85500000D02*
X58500000Y-86499999D01*
X83270000Y-47950000D02*
X84840000Y-49520000D01*
X47590000Y-77953604D02*
X55136396Y-85500000D01*
X47590000Y-74350000D02*
X47590000Y-77953604D01*
X55136396Y-85500000D02*
X57500001Y-85500000D01*
X55890991Y-90500000D02*
X49340000Y-90500000D01*
X58500000Y-86499999D02*
X58500000Y-87890991D01*
X49340000Y-90500000D02*
X45380000Y-94460000D01*
%TO.N,/D3*%
X93000000Y-71000000D02*
X93955000Y-71955000D01*
X55322792Y-85050000D02*
X57686397Y-85050000D01*
X58561397Y-85925000D02*
X59855991Y-85925000D01*
X51380000Y-91000000D02*
X47920000Y-94460000D01*
X93955000Y-71955000D02*
X93955000Y-73455000D01*
X94482434Y-85482039D02*
X94689473Y-85275000D01*
X51886481Y-54886481D02*
X51886481Y-49674940D01*
X77540000Y-60000000D02*
X57000000Y-60000000D01*
X58000000Y-91000000D02*
X51380000Y-91000000D01*
X48040000Y-77767208D02*
X55322792Y-85050000D01*
X61000000Y-88000000D02*
X58000000Y-91000000D01*
X94689473Y-85275000D02*
X97775000Y-85275000D01*
X59855991Y-85925000D02*
X61000000Y-87069009D01*
X98419999Y-85919999D02*
X98419999Y-86700001D01*
X98419999Y-86700001D02*
X97620000Y-87500000D01*
X61000000Y-87069009D02*
X61000000Y-88000000D01*
X52220000Y-72260000D02*
X48040000Y-76440000D01*
X97775000Y-85275000D02*
X98419999Y-85919999D01*
X84000000Y-71000000D02*
X82500000Y-69500000D01*
X57686397Y-85050000D02*
X58561397Y-85925000D01*
X57000000Y-60000000D02*
X51886481Y-54886481D01*
X48040000Y-76440000D02*
X48040000Y-77767208D01*
X93955000Y-73455000D02*
X94000000Y-73500000D01*
X93000000Y-71000000D02*
X84000000Y-71000000D01*
X82300000Y-64760000D02*
X77540000Y-60000000D01*
%TO.N,/D4*%
X101495495Y-72004505D02*
X101500000Y-72009009D01*
X49500000Y-77000000D02*
X49500000Y-78590812D01*
X59970991Y-91500000D02*
X53420000Y-91500000D01*
X54760000Y-72260000D02*
X54760000Y-72275496D01*
X52685991Y-73814009D02*
X49500000Y-77000000D01*
X49500000Y-78590812D02*
X55409188Y-84500000D01*
X101500000Y-74500000D02*
X101500000Y-72009010D01*
X60970991Y-84500000D02*
X63505000Y-87034009D01*
X53221487Y-73814009D02*
X52685991Y-73814009D01*
X54426481Y-56790085D02*
X54426481Y-49674940D01*
X57136396Y-59500000D02*
X54426481Y-56790085D01*
X79580000Y-59500000D02*
X57136396Y-59500000D01*
X63505000Y-87034009D02*
X63505000Y-87965991D01*
X84840000Y-64760000D02*
X79580000Y-59500000D01*
X88115000Y-68035000D02*
X97525991Y-68035000D01*
X63505000Y-87965991D02*
X59970991Y-91500000D01*
X53420000Y-91500000D02*
X50460000Y-94460000D01*
X55409188Y-84500000D02*
X60970991Y-84500000D01*
X54760000Y-72275496D02*
X53221487Y-73814009D01*
X97525991Y-68035000D02*
X101495495Y-72004505D01*
X101500000Y-72009010D02*
X101495495Y-72004505D01*
X84840000Y-64760000D02*
X88115000Y-68035000D01*
%TO.N,/D5*%
X52636396Y-74500000D02*
X50318198Y-76818198D01*
X50318198Y-78772614D02*
X55545584Y-84000000D01*
X57300000Y-72260000D02*
X55060000Y-74500000D01*
X81620000Y-59000000D02*
X60000000Y-59000000D01*
X50318198Y-76818198D02*
X50318198Y-78772614D01*
X56966481Y-55966481D02*
X56966481Y-49674940D01*
X87380000Y-64760000D02*
X90120000Y-67500000D01*
X55460000Y-92000000D02*
X53000000Y-94460000D01*
X66335000Y-88665000D02*
X63000000Y-92000000D01*
X55545584Y-84000000D02*
X63300991Y-84000000D01*
X60000000Y-59000000D02*
X56966481Y-55966481D01*
X55060000Y-74500000D02*
X52636396Y-74500000D01*
X63300991Y-84000000D02*
X66335000Y-87034009D01*
X103825000Y-71794009D02*
X103825000Y-74175000D01*
X66335000Y-87034009D02*
X66335000Y-88665000D01*
X99530991Y-67500000D02*
X103825000Y-71794009D01*
X87380000Y-64760000D02*
X81620000Y-59000000D01*
X103825000Y-74175000D02*
X103500000Y-74500000D01*
X90120000Y-67500000D02*
X99530991Y-67500000D01*
X63000000Y-92000000D02*
X55460000Y-92000000D01*
%TO.N,/D6*%
X59506481Y-55506481D02*
X59506481Y-49674940D01*
X64550000Y-92450000D02*
X57550000Y-92450000D01*
X89920000Y-64760000D02*
X83660000Y-58500000D01*
X57100000Y-75000000D02*
X52772792Y-75000000D01*
X52772792Y-75000000D02*
X51000000Y-76772792D01*
X106000000Y-74500000D02*
X106365000Y-74135000D01*
X65050991Y-83500000D02*
X68585000Y-87034009D01*
X59840000Y-72260000D02*
X57100000Y-75000000D01*
X51000000Y-76772792D02*
X51000000Y-78818020D01*
X57550000Y-92450000D02*
X55540000Y-94460000D01*
X106365000Y-74135000D02*
X106365000Y-71504009D01*
X62500000Y-58500000D02*
X59506481Y-55506481D01*
X68585000Y-88415000D02*
X64550000Y-92450000D01*
X106365000Y-71504009D02*
X101910991Y-67050000D01*
X51000000Y-78818020D02*
X55681980Y-83500000D01*
X55681980Y-83500000D02*
X65050991Y-83500000D01*
X83660000Y-58500000D02*
X62500000Y-58500000D01*
X68585000Y-87034009D02*
X68585000Y-88415000D01*
X101910991Y-67050000D02*
X92210000Y-67050000D01*
X92210000Y-67050000D02*
X89920000Y-64760000D01*
%TO.N,/D7*%
X109000000Y-74000000D02*
X108500000Y-74500000D01*
X53500000Y-79000000D02*
X57550000Y-83050000D01*
X57500000Y-75500000D02*
X56000000Y-75500000D01*
X67140991Y-83050000D02*
X71415000Y-87324009D01*
X85700000Y-58000000D02*
X65500000Y-58000000D01*
X65500000Y-58000000D02*
X62046481Y-54546481D01*
X64630991Y-94460000D02*
X58080000Y-94460000D01*
X71415000Y-87675991D02*
X64630991Y-94460000D01*
X57550000Y-83050000D02*
X67140991Y-83050000D01*
X62380000Y-72260000D02*
X59590000Y-75050000D01*
X94300000Y-66600000D02*
X103710991Y-66600000D01*
X92460000Y-64760000D02*
X85700000Y-58000000D01*
X56000000Y-75500000D02*
X53500000Y-78000000D01*
X109000000Y-71889009D02*
X109000000Y-74000000D01*
X71415000Y-87324009D02*
X71415000Y-87675991D01*
X92460000Y-64760000D02*
X94300000Y-66600000D01*
X62046481Y-54546481D02*
X62046481Y-49674940D01*
X53500000Y-78000000D02*
X53500000Y-79000000D01*
X103710991Y-66600000D02*
X109000000Y-71889009D01*
X59590000Y-75050000D02*
X57950000Y-75050000D01*
X57950000Y-75050000D02*
X57500000Y-75500000D01*
%TO.N,Net-(ACIA1-~{DCD})*%
X90000000Y-84000000D02*
X88159195Y-84000000D01*
X87460000Y-84699195D02*
X87460000Y-87500000D01*
X88159195Y-84000000D02*
X87460000Y-84699195D01*
X87460000Y-87500000D02*
X84920000Y-87500000D01*
%TO.N,/~{IO1}*%
X86275000Y-111725000D02*
X74398630Y-111725000D01*
X72505000Y-109831370D02*
X72505000Y-108700000D01*
X74398630Y-111725000D02*
X72505000Y-109831370D01*
X89500000Y-108500000D02*
X86275000Y-111725000D01*
%TO.N,/~{IRQ}*%
X81973299Y-124825000D02*
X83825000Y-124825000D01*
X79271701Y-128500000D02*
X81285000Y-126486701D01*
X62272792Y-128500000D02*
X79271701Y-128500000D01*
X57500000Y-114500000D02*
X57500000Y-123727208D01*
X81285000Y-125513299D02*
X81973299Y-124825000D01*
X81285000Y-126486701D02*
X81285000Y-125513299D01*
X83825000Y-124825000D02*
X85000000Y-126000000D01*
X57500000Y-123727208D02*
X62272792Y-128500000D01*
%TO.N,/~{NMI}*%
X62136396Y-129000000D02*
X55500000Y-122363604D01*
X79460000Y-129000000D02*
X62136396Y-129000000D01*
X55500000Y-122363604D02*
X55500000Y-114500000D01*
X82460000Y-126000000D02*
X79460000Y-129000000D01*
%TO.N,/R{slash}~{W}*%
X67672412Y-68500000D02*
X71000000Y-65172412D01*
X79000000Y-118000000D02*
X79000000Y-115088119D01*
X79974695Y-73000000D02*
X80000000Y-73000000D01*
X82234387Y-102870783D02*
X89129217Y-102870783D01*
X77580000Y-96880000D02*
X78710000Y-98010000D01*
X79000000Y-115088119D02*
X78549275Y-114637394D01*
X75474695Y-68500000D02*
X79974695Y-73000000D01*
X80000000Y-73000000D02*
X80000000Y-73025305D01*
X78710000Y-98010000D02*
X78710000Y-110790000D01*
X62500000Y-68500000D02*
X67500000Y-68500000D01*
X71000000Y-65172412D02*
X71000000Y-64000000D01*
X114500000Y-97000000D02*
X95000000Y-97000000D01*
X80120000Y-96880000D02*
X80120000Y-100756396D01*
X67500000Y-68500000D02*
X75474695Y-68500000D01*
X78710000Y-110790000D02*
X78500000Y-111000000D01*
X79500000Y-94000000D02*
X79500000Y-94500000D01*
X83000000Y-90500000D02*
X79500000Y-94000000D01*
X67500000Y-68500000D02*
X67672412Y-68500000D01*
X115500000Y-96000000D02*
X114500000Y-97000000D01*
X80000000Y-73025305D02*
X79974695Y-73000000D01*
X80120000Y-100756396D02*
X82234387Y-102870783D01*
X71000000Y-64000000D02*
X72000000Y-63000000D01*
X89129217Y-102870783D02*
X92500000Y-99500000D01*
%TO.N,/~{RES}*%
X109950000Y-80450000D02*
X110500000Y-81000000D01*
X40500000Y-85500000D02*
X40060000Y-85500000D01*
X80950000Y-81500000D02*
X82000000Y-80450000D01*
X40060000Y-85500000D02*
X26820000Y-72260000D01*
X72500000Y-81500000D02*
X80950000Y-81500000D01*
X82000000Y-80450000D02*
X109950000Y-80450000D01*
X71500000Y-80500000D02*
X72500000Y-81500000D01*
%TO.N,/~{ACIA_RTS}*%
X94989009Y-86000000D02*
X93674877Y-87314132D01*
X93674877Y-96902085D02*
X100772792Y-104000000D01*
X113380000Y-104000000D02*
X116880000Y-107500000D01*
X100772792Y-104000000D02*
X113380000Y-104000000D01*
X93674877Y-87314132D02*
X93674877Y-96902085D01*
X97139500Y-86000000D02*
X94989009Y-86000000D01*
%TO.N,/ACIA_TX*%
X100636396Y-104500000D02*
X103720000Y-104500000D01*
X91500000Y-84500000D02*
X91125000Y-84875000D01*
X91125000Y-94988604D02*
X100636396Y-104500000D01*
X91125000Y-84875000D02*
X91125000Y-94988604D01*
X103720000Y-104500000D02*
X106720000Y-107500000D01*
%TO.N,/ACIA_RX*%
X88585000Y-93085000D02*
X99100000Y-103600000D01*
X88585000Y-85400500D02*
X88585000Y-93085000D01*
X99100000Y-103600000D02*
X99100000Y-107500000D01*
X88184500Y-85000000D02*
X88585000Y-85400500D01*
%TO.N,/~{ACIAIRQ}*%
X96201701Y-129500000D02*
X99000000Y-126701701D01*
X52000000Y-119500000D02*
X62000000Y-129500000D01*
X99000000Y-126701701D02*
X99000000Y-125500000D01*
X62000000Y-129500000D02*
X96201701Y-129500000D01*
X99000000Y-125500000D02*
X97500000Y-124000000D01*
X51810000Y-119500000D02*
X52000000Y-119500000D01*
%TO.N,/~{VIAIRQ}*%
X79276207Y-66275500D02*
X79000000Y-65999293D01*
X77535770Y-52464229D02*
X74746481Y-49674940D01*
X77535771Y-52464229D02*
X77535770Y-52464229D01*
X79000000Y-65999293D02*
X79000000Y-63500000D01*
%TO.N,/CA1*%
X44500000Y-47000000D02*
X30000000Y-47000000D01*
X45500000Y-46000000D02*
X44500000Y-47000000D01*
%TO.N,/CA2*%
X44000000Y-46000000D02*
X34500000Y-46000000D01*
X44500000Y-45500000D02*
X44000000Y-46000000D01*
%TO.N,/~{IO0}*%
X69200000Y-108700000D02*
X69965000Y-108700000D01*
X79574500Y-87500000D02*
X79574500Y-87925500D01*
X73621481Y-66121481D02*
X73621481Y-62621481D01*
X66000000Y-96709009D02*
X66000000Y-105500000D01*
X72500000Y-61500000D02*
X70000000Y-61500000D01*
X74500000Y-67000000D02*
X73621481Y-66121481D01*
X79500000Y-71500000D02*
X79500000Y-71000000D01*
X68209009Y-94500000D02*
X66000000Y-96709009D01*
X73000000Y-94500000D02*
X68209009Y-94500000D01*
X73621481Y-62621481D02*
X72500000Y-61500000D01*
X66000000Y-105500000D02*
X69200000Y-108700000D01*
X79500000Y-71000000D02*
X75500000Y-67000000D01*
X79574500Y-87925500D02*
X73000000Y-94500000D01*
X75500000Y-67000000D02*
X74500000Y-67000000D01*
%TO.N,/CLK*%
X37500000Y-75000000D02*
X37180000Y-75000000D01*
X37180000Y-75000000D02*
X34440000Y-72260000D01*
%TO.N,/~{RAMOE}*%
X86040000Y-93500000D02*
X86000000Y-93540000D01*
X86000000Y-93540000D02*
X86000000Y-93500000D01*
X86000000Y-93500000D02*
X86040000Y-93500000D01*
X82660000Y-96880000D02*
X86000000Y-93540000D01*
%TO.N,/~{RAMWE}*%
X113983196Y-89483196D02*
X113966392Y-89500000D01*
X82000000Y-100863604D02*
X82000000Y-102000000D01*
X76500000Y-118000000D02*
X76170000Y-117670000D01*
X82000000Y-102000000D02*
X82237299Y-102237299D01*
X116539873Y-68519873D02*
X112780000Y-64760000D01*
X113966392Y-89500000D02*
X100269009Y-89500000D01*
X81500000Y-100363604D02*
X82000000Y-100863604D01*
X81500000Y-96500000D02*
X81500000Y-100363604D01*
X87762701Y-102237299D02*
X91500000Y-98500000D01*
X116539873Y-69960500D02*
X116539873Y-68519873D01*
X73915000Y-109537996D02*
X73915000Y-98005000D01*
X75500000Y-111000000D02*
X75377004Y-111000000D01*
X82237299Y-102237299D02*
X87762701Y-102237299D01*
X75500000Y-114500000D02*
X76170000Y-115170000D01*
X76165000Y-95755000D02*
X80755000Y-95755000D01*
X73915000Y-98005000D02*
X75040000Y-96880000D01*
X80755000Y-95755000D02*
X81500000Y-96500000D01*
X75377004Y-111000000D02*
X73915000Y-109537996D01*
X75040000Y-96880000D02*
X76165000Y-95755000D01*
X76170000Y-117670000D02*
X76170000Y-115170000D01*
X94500000Y-95269009D02*
X94500000Y-95500000D01*
X100269009Y-89500000D02*
X94500000Y-95269009D01*
%TO.N,/~{ROMCS}*%
X87000000Y-100000000D02*
X87000000Y-91500000D01*
X83000000Y-100500000D02*
X86500000Y-100500000D01*
X86500000Y-100500000D02*
X87000000Y-100000000D01*
%TO.N,/~{ROMOE}*%
X86724500Y-101500000D02*
X87724500Y-100500000D01*
X87724500Y-100500000D02*
X87724500Y-92500000D01*
X83024598Y-101500000D02*
X86724500Y-101500000D01*
X83012299Y-101512299D02*
X83024598Y-101500000D01*
%TD*%
%TA.AperFunction,Conductor*%
%TO.N,GND*%
G36*
X19865130Y-127134870D02*
G01*
X20055818Y-127297732D01*
X18847255Y-128506295D01*
X18858047Y-128516518D01*
X18863157Y-128520858D01*
X19142694Y-128733357D01*
X19148240Y-128737117D01*
X19449099Y-128918137D01*
X19455038Y-128921285D01*
X19773695Y-129068712D01*
X19779937Y-129071199D01*
X20112684Y-129183315D01*
X20119129Y-129185104D01*
X20436205Y-129254899D01*
X20497445Y-129288535D01*
X20530779Y-129349941D01*
X20525623Y-129419620D01*
X20483614Y-129475450D01*
X20418089Y-129499705D01*
X20409548Y-129500000D01*
X18124000Y-129500000D01*
X18056961Y-129480315D01*
X18011206Y-129427511D01*
X18000000Y-129376000D01*
X18000000Y-127859569D01*
X18019685Y-127792530D01*
X18072489Y-127746775D01*
X18141647Y-127736831D01*
X18205203Y-127765856D01*
X18226633Y-127789982D01*
X18367147Y-127997225D01*
X18371207Y-128002566D01*
X18496441Y-128150003D01*
X18496442Y-128150004D01*
X19702266Y-126944180D01*
X19865130Y-127134870D01*
G37*
%TD.AperFunction*%
%TA.AperFunction,Conductor*%
G36*
X126943039Y-20519685D02*
G01*
X126988794Y-20572489D01*
X127000000Y-20624000D01*
X127000000Y-23140430D01*
X126980315Y-23207469D01*
X126927511Y-23253224D01*
X126858353Y-23263168D01*
X126794797Y-23234143D01*
X126773367Y-23210017D01*
X126632852Y-23002774D01*
X126628792Y-22997433D01*
X126503557Y-22849995D01*
X126503556Y-22849994D01*
X125297732Y-24055818D01*
X125134870Y-23865130D01*
X124944180Y-23702266D01*
X126152743Y-22493703D01*
X126141942Y-22483473D01*
X126136842Y-22479141D01*
X125857305Y-22266642D01*
X125851759Y-22262882D01*
X125550900Y-22081862D01*
X125544961Y-22078714D01*
X125226304Y-21931287D01*
X125220062Y-21928800D01*
X124887315Y-21816684D01*
X124880870Y-21814895D01*
X124537946Y-21739411D01*
X124531322Y-21738325D01*
X124182259Y-21700363D01*
X124175563Y-21700000D01*
X123824437Y-21700000D01*
X123817740Y-21700363D01*
X123468677Y-21738325D01*
X123462053Y-21739411D01*
X123119129Y-21814895D01*
X123112684Y-21816684D01*
X122779937Y-21928800D01*
X122773695Y-21931287D01*
X122455038Y-22078714D01*
X122449099Y-22081862D01*
X122148240Y-22262882D01*
X122142694Y-22266642D01*
X121863149Y-22479146D01*
X121858054Y-22483474D01*
X121847256Y-22493702D01*
X121847255Y-22493703D01*
X123055819Y-23702266D01*
X122865130Y-23865130D01*
X122702266Y-24055818D01*
X121496442Y-22849994D01*
X121496441Y-22849995D01*
X121371207Y-22997433D01*
X121367147Y-23002774D01*
X121170102Y-23293393D01*
X121166649Y-23299131D01*
X121002169Y-23609373D01*
X120999360Y-23615447D01*
X120869396Y-23941631D01*
X120867251Y-23947998D01*
X120773317Y-24286315D01*
X120771874Y-24292869D01*
X120715069Y-24639369D01*
X120714343Y-24646041D01*
X120695335Y-24996643D01*
X120695335Y-25003356D01*
X120714343Y-25353958D01*
X120715069Y-25360630D01*
X120771874Y-25707130D01*
X120773317Y-25713684D01*
X120867251Y-26052001D01*
X120869396Y-26058368D01*
X120999360Y-26384552D01*
X121002169Y-26390626D01*
X121166649Y-26700868D01*
X121170102Y-26706606D01*
X121367147Y-26997225D01*
X121371207Y-27002566D01*
X121496441Y-27150003D01*
X121496442Y-27150004D01*
X122702266Y-25944180D01*
X122865130Y-26134870D01*
X123055818Y-26297732D01*
X121847255Y-27506295D01*
X121858047Y-27516518D01*
X121863157Y-27520858D01*
X122142694Y-27733357D01*
X122148240Y-27737117D01*
X122449099Y-27918137D01*
X122455038Y-27921285D01*
X122773695Y-28068712D01*
X122779937Y-28071199D01*
X123112684Y-28183315D01*
X123119129Y-28185104D01*
X123462053Y-28260588D01*
X123468677Y-28261674D01*
X123817740Y-28299636D01*
X123824437Y-28300000D01*
X124175563Y-28300000D01*
X124182259Y-28299636D01*
X124531322Y-28261674D01*
X124537946Y-28260588D01*
X124880870Y-28185104D01*
X124887315Y-28183315D01*
X125220062Y-28071199D01*
X125226304Y-28068712D01*
X125544961Y-27921285D01*
X125550900Y-27918137D01*
X125851759Y-27737117D01*
X125857305Y-27733357D01*
X126136846Y-27520856D01*
X126141950Y-27516519D01*
X126152742Y-27506296D01*
X126152743Y-27506295D01*
X124944180Y-26297733D01*
X125134870Y-26134870D01*
X125297733Y-25944180D01*
X126503556Y-27150003D01*
X126503557Y-27150003D01*
X126628792Y-27002566D01*
X126632852Y-26997225D01*
X126773367Y-26789982D01*
X126827281Y-26745541D01*
X126896663Y-26737303D01*
X126959485Y-26767883D01*
X126995801Y-26827574D01*
X127000000Y-26859569D01*
X127000000Y-47876000D01*
X126980315Y-47943039D01*
X126927511Y-47988794D01*
X126876000Y-48000000D01*
X89624000Y-48000000D01*
X89556961Y-47980315D01*
X89511206Y-47927511D01*
X89500000Y-47876000D01*
X89500000Y-46500000D01*
X87837329Y-46500000D01*
X87777591Y-46484662D01*
X87757433Y-46473580D01*
X87741169Y-46462896D01*
X87725040Y-46450385D01*
X87684377Y-46432789D01*
X87673883Y-46427648D01*
X87635062Y-46406305D01*
X87623386Y-46403307D01*
X87615284Y-46401227D01*
X87596879Y-46394926D01*
X87578145Y-46386819D01*
X87578143Y-46386818D01*
X87578142Y-46386818D01*
X87534383Y-46379887D01*
X87522943Y-46377518D01*
X87480031Y-46366500D01*
X87480030Y-46366500D01*
X87459616Y-46366500D01*
X87440217Y-46364973D01*
X87420058Y-46361780D01*
X87420057Y-46361780D01*
X87393409Y-46364299D01*
X87375943Y-46365950D01*
X87364274Y-46366500D01*
X77124000Y-46366500D01*
X77056961Y-46346815D01*
X77011206Y-46294011D01*
X77000000Y-46242500D01*
X77000000Y-38969999D01*
X82646501Y-38969999D01*
X82666456Y-39198084D01*
X82725717Y-39419246D01*
X82822474Y-39626744D01*
X82822476Y-39626746D01*
X82822477Y-39626749D01*
X82953802Y-39814300D01*
X83115700Y-39976198D01*
X83303251Y-40107523D01*
X83510757Y-40204284D01*
X83731913Y-40263543D01*
X83960000Y-40283498D01*
X84188087Y-40263543D01*
X84409243Y-40204284D01*
X84616749Y-40107523D01*
X84804300Y-39976198D01*
X84966198Y-39814300D01*
X85097523Y-39626749D01*
X85117617Y-39583655D01*
X85163790Y-39531215D01*
X85230983Y-39512063D01*
X85297864Y-39532278D01*
X85342382Y-39583655D01*
X85362477Y-39626749D01*
X85493802Y-39814300D01*
X85655700Y-39976198D01*
X85843251Y-40107523D01*
X86050757Y-40204284D01*
X86271913Y-40263543D01*
X86500000Y-40283498D01*
X86728087Y-40263543D01*
X86949243Y-40204284D01*
X87156749Y-40107523D01*
X87344300Y-39976198D01*
X87506198Y-39814300D01*
X87637523Y-39626749D01*
X87657617Y-39583655D01*
X87703790Y-39531215D01*
X87770983Y-39512063D01*
X87837864Y-39532278D01*
X87882382Y-39583655D01*
X87902477Y-39626749D01*
X88033802Y-39814300D01*
X88195700Y-39976198D01*
X88383251Y-40107523D01*
X88590757Y-40204284D01*
X88811913Y-40263543D01*
X89040000Y-40283498D01*
X89268087Y-40263543D01*
X89489243Y-40204284D01*
X89696749Y-40107523D01*
X89884300Y-39976198D01*
X90046198Y-39814300D01*
X90177523Y-39626749D01*
X90197617Y-39583655D01*
X90243790Y-39531215D01*
X90310983Y-39512063D01*
X90377864Y-39532278D01*
X90422382Y-39583655D01*
X90442477Y-39626749D01*
X90573802Y-39814300D01*
X90735700Y-39976198D01*
X90923251Y-40107523D01*
X91130757Y-40204284D01*
X91351913Y-40263543D01*
X91503971Y-40276846D01*
X91579999Y-40283498D01*
X91579999Y-40283497D01*
X91580000Y-40283498D01*
X91808087Y-40263543D01*
X92029243Y-40204284D01*
X92236749Y-40107523D01*
X92424300Y-39976198D01*
X92586198Y-39814300D01*
X92717523Y-39626749D01*
X92737617Y-39583655D01*
X92783790Y-39531215D01*
X92850983Y-39512063D01*
X92917864Y-39532278D01*
X92962382Y-39583655D01*
X92982477Y-39626749D01*
X93113802Y-39814300D01*
X93275700Y-39976198D01*
X93463251Y-40107523D01*
X93670757Y-40204284D01*
X93891913Y-40263543D01*
X94120000Y-40283498D01*
X94348087Y-40263543D01*
X94569243Y-40204284D01*
X94776749Y-40107523D01*
X94964300Y-39976198D01*
X95126198Y-39814300D01*
X95257523Y-39626749D01*
X95277617Y-39583655D01*
X95323790Y-39531215D01*
X95390983Y-39512063D01*
X95457864Y-39532278D01*
X95502382Y-39583655D01*
X95522477Y-39626749D01*
X95653802Y-39814300D01*
X95815700Y-39976198D01*
X96003251Y-40107523D01*
X96210757Y-40204284D01*
X96431913Y-40263543D01*
X96660000Y-40283498D01*
X96888087Y-40263543D01*
X97109243Y-40204284D01*
X97316749Y-40107523D01*
X97504300Y-39976198D01*
X97666198Y-39814300D01*
X97797523Y-39626749D01*
X97817618Y-39583654D01*
X97863787Y-39531216D01*
X97930980Y-39512063D01*
X97997862Y-39532277D01*
X98042381Y-39583653D01*
X98062477Y-39626749D01*
X98193802Y-39814300D01*
X98355700Y-39976198D01*
X98543251Y-40107523D01*
X98750757Y-40204284D01*
X98971913Y-40263543D01*
X99200000Y-40283498D01*
X99428087Y-40263543D01*
X99649243Y-40204284D01*
X99856749Y-40107523D01*
X100044300Y-39976198D01*
X100206198Y-39814300D01*
X100337523Y-39626749D01*
X100357618Y-39583654D01*
X100403787Y-39531216D01*
X100470980Y-39512063D01*
X100537862Y-39532277D01*
X100582381Y-39583653D01*
X100602477Y-39626749D01*
X100733802Y-39814300D01*
X100895700Y-39976198D01*
X101083251Y-40107523D01*
X101290757Y-40204284D01*
X101511913Y-40263543D01*
X101663970Y-40276846D01*
X101739999Y-40283498D01*
X101739999Y-40283497D01*
X101740000Y-40283498D01*
X101968087Y-40263543D01*
X102189243Y-40204284D01*
X102396749Y-40107523D01*
X102584300Y-39976198D01*
X102746198Y-39814300D01*
X102877523Y-39626749D01*
X102897618Y-39583654D01*
X102943787Y-39531216D01*
X103010980Y-39512063D01*
X103077862Y-39532277D01*
X103122381Y-39583653D01*
X103142477Y-39626749D01*
X103273802Y-39814300D01*
X103435700Y-39976198D01*
X103623251Y-40107523D01*
X103830757Y-40204284D01*
X104051913Y-40263543D01*
X104280000Y-40283498D01*
X104508087Y-40263543D01*
X104729243Y-40204284D01*
X104936749Y-40107523D01*
X105124300Y-39976198D01*
X105286198Y-39814300D01*
X105417523Y-39626749D01*
X105437617Y-39583655D01*
X105483790Y-39531215D01*
X105550983Y-39512063D01*
X105617864Y-39532278D01*
X105662382Y-39583655D01*
X105682477Y-39626749D01*
X105813802Y-39814300D01*
X105975700Y-39976198D01*
X106163251Y-40107523D01*
X106370757Y-40204284D01*
X106591913Y-40263543D01*
X106820000Y-40283498D01*
X107048087Y-40263543D01*
X107269243Y-40204284D01*
X107476749Y-40107523D01*
X107664300Y-39976198D01*
X107826198Y-39814300D01*
X107957523Y-39626749D01*
X107977618Y-39583654D01*
X108023787Y-39531216D01*
X108090980Y-39512063D01*
X108157862Y-39532277D01*
X108202381Y-39583653D01*
X108222477Y-39626749D01*
X108353802Y-39814300D01*
X108515700Y-39976198D01*
X108703251Y-40107523D01*
X108910757Y-40204284D01*
X109131913Y-40263543D01*
X109360000Y-40283498D01*
X109588087Y-40263543D01*
X109809243Y-40204284D01*
X110016749Y-40107523D01*
X110204300Y-39976198D01*
X110366198Y-39814300D01*
X110497523Y-39626749D01*
X110517617Y-39583655D01*
X110563790Y-39531215D01*
X110630983Y-39512063D01*
X110697864Y-39532278D01*
X110742382Y-39583655D01*
X110762477Y-39626749D01*
X110893802Y-39814300D01*
X111055700Y-39976198D01*
X111243251Y-40107523D01*
X111450757Y-40204284D01*
X111671913Y-40263543D01*
X111823971Y-40276846D01*
X111899999Y-40283498D01*
X111899999Y-40283497D01*
X111900000Y-40283498D01*
X112128087Y-40263543D01*
X112349243Y-40204284D01*
X112556749Y-40107523D01*
X112744300Y-39976198D01*
X112906198Y-39814300D01*
X113037523Y-39626749D01*
X113057617Y-39583655D01*
X113103790Y-39531215D01*
X113170983Y-39512063D01*
X113237864Y-39532278D01*
X113282382Y-39583655D01*
X113302477Y-39626749D01*
X113433802Y-39814300D01*
X113595700Y-39976198D01*
X113783251Y-40107523D01*
X113990757Y-40204284D01*
X114211913Y-40263543D01*
X114440000Y-40283498D01*
X114668087Y-40263543D01*
X114889243Y-40204284D01*
X115096749Y-40107523D01*
X115284300Y-39976198D01*
X115446198Y-39814300D01*
X115577523Y-39626749D01*
X115597617Y-39583655D01*
X115643790Y-39531215D01*
X115710983Y-39512063D01*
X115777864Y-39532278D01*
X115822382Y-39583655D01*
X115842477Y-39626749D01*
X115973802Y-39814300D01*
X116135700Y-39976198D01*
X116323251Y-40107523D01*
X116530757Y-40204284D01*
X116751913Y-40263543D01*
X116980000Y-40283498D01*
X117208087Y-40263543D01*
X117429243Y-40204284D01*
X117636749Y-40107523D01*
X117790307Y-40000000D01*
X121686501Y-40000000D01*
X121706456Y-40228084D01*
X121765717Y-40449246D01*
X121862474Y-40656744D01*
X121862476Y-40656746D01*
X121862477Y-40656749D01*
X121993802Y-40844300D01*
X122155700Y-41006198D01*
X122343251Y-41137523D01*
X122550757Y-41234284D01*
X122771913Y-41293543D01*
X123000000Y-41313498D01*
X123228087Y-41293543D01*
X123449243Y-41234284D01*
X123656749Y-41137523D01*
X123844300Y-41006198D01*
X124006198Y-40844300D01*
X124137523Y-40656749D01*
X124234284Y-40449243D01*
X124293543Y-40228087D01*
X124313498Y-40000000D01*
X124293543Y-39771913D01*
X124234284Y-39550757D01*
X124137523Y-39343251D01*
X124006198Y-39155700D01*
X123844300Y-38993802D01*
X123656749Y-38862477D01*
X123656743Y-38862474D01*
X123646486Y-38857691D01*
X123594048Y-38811518D01*
X123574897Y-38744324D01*
X123595114Y-38677443D01*
X123646496Y-38632924D01*
X123652485Y-38630131D01*
X123725472Y-38579025D01*
X123044401Y-37897953D01*
X123125148Y-37885165D01*
X123238045Y-37827641D01*
X123327641Y-37738045D01*
X123385165Y-37625148D01*
X123397953Y-37544400D01*
X124079025Y-38225472D01*
X124130134Y-38152480D01*
X124226266Y-37946326D01*
X124285141Y-37726602D01*
X124304966Y-37500000D01*
X124285141Y-37273397D01*
X124226266Y-37053673D01*
X124130133Y-36847515D01*
X124079025Y-36774526D01*
X123397953Y-37455598D01*
X123385165Y-37374852D01*
X123327641Y-37261955D01*
X123238045Y-37172359D01*
X123125148Y-37114835D01*
X123044400Y-37102046D01*
X123725472Y-36420974D01*
X123725471Y-36420972D01*
X123652484Y-36369866D01*
X123446326Y-36273733D01*
X123226602Y-36214858D01*
X123000000Y-36195033D01*
X122773397Y-36214858D01*
X122553672Y-36273733D01*
X122347516Y-36369865D01*
X122274527Y-36420973D01*
X122274526Y-36420973D01*
X122955600Y-37102046D01*
X122874852Y-37114835D01*
X122761955Y-37172359D01*
X122672359Y-37261955D01*
X122614835Y-37374852D01*
X122602046Y-37455598D01*
X121920973Y-36774527D01*
X121869865Y-36847516D01*
X121773733Y-37053672D01*
X121714858Y-37273397D01*
X121695033Y-37500000D01*
X121714858Y-37726602D01*
X121773733Y-37946326D01*
X121869866Y-38152484D01*
X121920972Y-38225471D01*
X121920973Y-38225472D01*
X122602045Y-37544399D01*
X122614835Y-37625148D01*
X122672359Y-37738045D01*
X122761955Y-37827641D01*
X122874852Y-37885165D01*
X122955599Y-37897953D01*
X122274526Y-38579025D01*
X122274526Y-38579026D01*
X122347515Y-38630132D01*
X122353506Y-38632926D01*
X122405947Y-38679096D01*
X122425102Y-38746289D01*
X122404889Y-38813171D01*
X122353515Y-38857690D01*
X122343255Y-38862474D01*
X122343250Y-38862477D01*
X122343251Y-38862477D01*
X122158507Y-38991837D01*
X122155696Y-38993805D01*
X121993805Y-39155696D01*
X121993802Y-39155699D01*
X121993802Y-39155700D01*
X121964124Y-39198084D01*
X121862474Y-39343255D01*
X121765717Y-39550753D01*
X121706456Y-39771915D01*
X121686501Y-40000000D01*
X117790307Y-40000000D01*
X117824300Y-39976198D01*
X117986198Y-39814300D01*
X118117523Y-39626749D01*
X118214284Y-39419243D01*
X118273543Y-39198087D01*
X118293498Y-38970000D01*
X118273543Y-38741913D01*
X118214284Y-38520757D01*
X118117523Y-38313251D01*
X117986198Y-38125700D01*
X117824300Y-37963802D01*
X117636749Y-37832477D01*
X117636746Y-37832476D01*
X117636744Y-37832474D01*
X117429246Y-37735717D01*
X117429243Y-37735716D01*
X117318664Y-37706086D01*
X117208084Y-37676456D01*
X116980000Y-37656501D01*
X116751915Y-37676456D01*
X116530753Y-37735717D01*
X116323255Y-37832474D01*
X116135696Y-37963805D01*
X115973805Y-38125696D01*
X115973802Y-38125699D01*
X115973802Y-38125700D01*
X115903942Y-38225471D01*
X115842476Y-38313253D01*
X115822382Y-38356345D01*
X115776209Y-38408784D01*
X115709016Y-38427936D01*
X115642135Y-38407720D01*
X115597618Y-38356345D01*
X115596214Y-38353334D01*
X115577523Y-38313251D01*
X115446198Y-38125700D01*
X115284300Y-37963802D01*
X115096749Y-37832477D01*
X115096746Y-37832476D01*
X115096744Y-37832474D01*
X114889246Y-37735717D01*
X114889243Y-37735716D01*
X114778664Y-37706086D01*
X114668084Y-37676456D01*
X114440000Y-37656501D01*
X114211915Y-37676456D01*
X113990753Y-37735717D01*
X113783255Y-37832474D01*
X113595696Y-37963805D01*
X113433805Y-38125696D01*
X113433802Y-38125699D01*
X113433802Y-38125700D01*
X113363941Y-38225472D01*
X113302475Y-38313254D01*
X113282380Y-38356347D01*
X113236207Y-38408785D01*
X113169013Y-38427936D01*
X113102132Y-38407719D01*
X113057618Y-38356345D01*
X113037523Y-38313251D01*
X112906198Y-38125700D01*
X112744300Y-37963802D01*
X112556749Y-37832477D01*
X112556746Y-37832476D01*
X112556744Y-37832474D01*
X112349246Y-37735717D01*
X112349243Y-37735716D01*
X112238664Y-37706086D01*
X112128084Y-37676456D01*
X111899999Y-37656501D01*
X111671915Y-37676456D01*
X111450753Y-37735717D01*
X111243255Y-37832474D01*
X111055696Y-37963805D01*
X110893805Y-38125696D01*
X110893802Y-38125699D01*
X110893802Y-38125700D01*
X110823942Y-38225471D01*
X110762476Y-38313253D01*
X110742382Y-38356345D01*
X110696209Y-38408784D01*
X110629016Y-38427936D01*
X110562135Y-38407720D01*
X110517618Y-38356345D01*
X110516214Y-38353334D01*
X110497523Y-38313251D01*
X110366198Y-38125700D01*
X110204300Y-37963802D01*
X110016749Y-37832477D01*
X110016746Y-37832476D01*
X110016744Y-37832474D01*
X109809246Y-37735717D01*
X109809243Y-37735716D01*
X109698664Y-37706086D01*
X109588084Y-37676456D01*
X109360000Y-37656501D01*
X109131915Y-37676456D01*
X108910753Y-37735717D01*
X108703255Y-37832474D01*
X108515696Y-37963805D01*
X108353805Y-38125696D01*
X108353802Y-38125699D01*
X108353802Y-38125700D01*
X108283942Y-38225471D01*
X108222476Y-38313253D01*
X108202382Y-38356345D01*
X108156209Y-38408784D01*
X108089016Y-38427936D01*
X108022135Y-38407720D01*
X107977618Y-38356345D01*
X107976214Y-38353334D01*
X107957523Y-38313251D01*
X107826198Y-38125700D01*
X107664300Y-37963802D01*
X107476749Y-37832477D01*
X107476746Y-37832476D01*
X107476744Y-37832474D01*
X107269246Y-37735717D01*
X107269243Y-37735716D01*
X107158664Y-37706086D01*
X107048084Y-37676456D01*
X106820000Y-37656501D01*
X106591915Y-37676456D01*
X106370753Y-37735717D01*
X106163255Y-37832474D01*
X105975696Y-37963805D01*
X105813805Y-38125696D01*
X105813802Y-38125699D01*
X105813802Y-38125700D01*
X105743941Y-38225472D01*
X105682475Y-38313254D01*
X105662380Y-38356347D01*
X105616207Y-38408785D01*
X105549013Y-38427936D01*
X105482132Y-38407719D01*
X105437618Y-38356345D01*
X105417523Y-38313251D01*
X105286198Y-38125700D01*
X105124300Y-37963802D01*
X104936749Y-37832477D01*
X104936746Y-37832476D01*
X104936744Y-37832474D01*
X104729246Y-37735717D01*
X104729243Y-37735716D01*
X104618664Y-37706086D01*
X104508084Y-37676456D01*
X104280000Y-37656501D01*
X104051915Y-37676456D01*
X103830753Y-37735717D01*
X103623255Y-37832474D01*
X103435696Y-37963805D01*
X103273805Y-38125696D01*
X103273802Y-38125699D01*
X103273802Y-38125700D01*
X103203942Y-38225471D01*
X103142476Y-38313253D01*
X103122382Y-38356345D01*
X103076209Y-38408784D01*
X103009016Y-38427936D01*
X102942135Y-38407720D01*
X102897618Y-38356345D01*
X102896214Y-38353334D01*
X102877523Y-38313251D01*
X102746198Y-38125700D01*
X102584300Y-37963802D01*
X102396749Y-37832477D01*
X102396746Y-37832476D01*
X102396744Y-37832474D01*
X102189246Y-37735717D01*
X102189243Y-37735716D01*
X102078664Y-37706086D01*
X101968084Y-37676456D01*
X101739999Y-37656501D01*
X101511915Y-37676456D01*
X101290753Y-37735717D01*
X101083255Y-37832474D01*
X100895696Y-37963805D01*
X100733805Y-38125696D01*
X100733802Y-38125699D01*
X100733802Y-38125700D01*
X100663942Y-38225471D01*
X100602476Y-38313253D01*
X100582382Y-38356345D01*
X100536209Y-38408784D01*
X100469016Y-38427936D01*
X100402135Y-38407720D01*
X100357618Y-38356345D01*
X100356214Y-38353334D01*
X100337523Y-38313251D01*
X100206198Y-38125700D01*
X100044300Y-37963802D01*
X99856749Y-37832477D01*
X99856746Y-37832476D01*
X99856744Y-37832474D01*
X99649246Y-37735717D01*
X99649243Y-37735716D01*
X99538664Y-37706086D01*
X99428084Y-37676456D01*
X99200000Y-37656501D01*
X98971915Y-37676456D01*
X98750753Y-37735717D01*
X98543255Y-37832474D01*
X98355696Y-37963805D01*
X98193805Y-38125696D01*
X98193802Y-38125699D01*
X98193802Y-38125700D01*
X98123942Y-38225471D01*
X98062476Y-38313253D01*
X98042382Y-38356345D01*
X97996209Y-38408784D01*
X97929016Y-38427936D01*
X97862135Y-38407720D01*
X97817618Y-38356345D01*
X97816214Y-38353334D01*
X97797523Y-38313251D01*
X97666198Y-38125700D01*
X97504300Y-37963802D01*
X97316749Y-37832477D01*
X97316746Y-37832476D01*
X97316744Y-37832474D01*
X97109246Y-37735717D01*
X97109243Y-37735716D01*
X96998664Y-37706086D01*
X96888084Y-37676456D01*
X96660000Y-37656501D01*
X96431915Y-37676456D01*
X96210753Y-37735717D01*
X96003255Y-37832474D01*
X95815696Y-37963805D01*
X95653805Y-38125696D01*
X95653802Y-38125699D01*
X95653802Y-38125700D01*
X95583942Y-38225471D01*
X95522476Y-38313253D01*
X95502382Y-38356345D01*
X95456209Y-38408784D01*
X95389016Y-38427936D01*
X95322135Y-38407720D01*
X95277618Y-38356345D01*
X95276214Y-38353334D01*
X95257523Y-38313251D01*
X95126198Y-38125700D01*
X94964300Y-37963802D01*
X94776749Y-37832477D01*
X94776746Y-37832476D01*
X94776744Y-37832474D01*
X94569246Y-37735717D01*
X94569243Y-37735716D01*
X94458665Y-37706086D01*
X94348084Y-37676456D01*
X94120000Y-37656501D01*
X93891915Y-37676456D01*
X93670753Y-37735717D01*
X93463255Y-37832474D01*
X93275696Y-37963805D01*
X93113805Y-38125696D01*
X93113802Y-38125699D01*
X93113802Y-38125700D01*
X93043941Y-38225472D01*
X92982475Y-38313254D01*
X92962380Y-38356347D01*
X92916207Y-38408785D01*
X92849013Y-38427936D01*
X92782132Y-38407719D01*
X92737618Y-38356345D01*
X92717523Y-38313251D01*
X92586198Y-38125700D01*
X92424300Y-37963802D01*
X92236749Y-37832477D01*
X92236746Y-37832476D01*
X92236744Y-37832474D01*
X92029246Y-37735717D01*
X92029243Y-37735716D01*
X91918665Y-37706086D01*
X91808084Y-37676456D01*
X91579999Y-37656501D01*
X91351915Y-37676456D01*
X91130753Y-37735717D01*
X90923255Y-37832474D01*
X90735696Y-37963805D01*
X90573805Y-38125696D01*
X90573802Y-38125699D01*
X90573802Y-38125700D01*
X90503942Y-38225471D01*
X90442476Y-38313253D01*
X90422382Y-38356345D01*
X90376209Y-38408784D01*
X90309016Y-38427936D01*
X90242135Y-38407720D01*
X90197618Y-38356345D01*
X90196214Y-38353334D01*
X90177523Y-38313251D01*
X90046198Y-38125700D01*
X89884300Y-37963802D01*
X89696749Y-37832477D01*
X89696746Y-37832476D01*
X89696744Y-37832474D01*
X89489246Y-37735717D01*
X89489243Y-37735716D01*
X89378665Y-37706086D01*
X89268084Y-37676456D01*
X89040000Y-37656501D01*
X88811915Y-37676456D01*
X88590753Y-37735717D01*
X88383255Y-37832474D01*
X88195696Y-37963805D01*
X88033805Y-38125696D01*
X88033802Y-38125699D01*
X88033802Y-38125700D01*
X87963942Y-38225471D01*
X87902476Y-38313253D01*
X87882382Y-38356345D01*
X87836209Y-38408784D01*
X87769016Y-38427936D01*
X87702135Y-38407720D01*
X87657618Y-38356345D01*
X87656214Y-38353334D01*
X87637523Y-38313251D01*
X87506198Y-38125700D01*
X87344300Y-37963802D01*
X87156749Y-37832477D01*
X87156746Y-37832476D01*
X87156744Y-37832474D01*
X86949246Y-37735717D01*
X86949243Y-37735716D01*
X86838665Y-37706086D01*
X86728084Y-37676456D01*
X86500000Y-37656501D01*
X86271915Y-37676456D01*
X86050753Y-37735717D01*
X85843255Y-37832474D01*
X85655696Y-37963805D01*
X85493805Y-38125696D01*
X85493802Y-38125699D01*
X85493802Y-38125700D01*
X85423941Y-38225472D01*
X85362475Y-38313254D01*
X85342380Y-38356347D01*
X85296207Y-38408785D01*
X85229013Y-38427936D01*
X85162132Y-38407719D01*
X85117618Y-38356345D01*
X85097523Y-38313251D01*
X84966198Y-38125700D01*
X84804300Y-37963802D01*
X84616749Y-37832477D01*
X84616746Y-37832476D01*
X84616744Y-37832474D01*
X84409246Y-37735717D01*
X84409243Y-37735716D01*
X84298665Y-37706086D01*
X84188084Y-37676456D01*
X83960000Y-37656501D01*
X83731915Y-37676456D01*
X83510753Y-37735717D01*
X83303255Y-37832474D01*
X83115696Y-37963805D01*
X82953805Y-38125696D01*
X82953802Y-38125699D01*
X82953802Y-38125700D01*
X82935048Y-38152484D01*
X82822474Y-38313255D01*
X82725717Y-38520753D01*
X82666456Y-38741915D01*
X82646501Y-38969999D01*
X77000000Y-38969999D01*
X77000000Y-38500000D01*
X24000000Y-38500000D01*
X23500000Y-105500000D01*
X40376000Y-105500000D01*
X40443039Y-105519685D01*
X40488794Y-105572489D01*
X40500000Y-105624000D01*
X40500000Y-129376000D01*
X40480315Y-129443039D01*
X40427511Y-129488794D01*
X40376000Y-129500000D01*
X21590452Y-129500000D01*
X21523413Y-129480315D01*
X21477658Y-129427511D01*
X21467714Y-129358353D01*
X21496739Y-129294797D01*
X21555517Y-129257023D01*
X21563795Y-129254899D01*
X21880870Y-129185104D01*
X21887315Y-129183315D01*
X22220062Y-129071199D01*
X22226304Y-129068712D01*
X22544961Y-128921285D01*
X22550900Y-128918137D01*
X22851759Y-128737117D01*
X22857305Y-128733357D01*
X23136846Y-128520856D01*
X23141950Y-128516519D01*
X23152742Y-128506296D01*
X23152743Y-128506295D01*
X21944180Y-127297733D01*
X22134870Y-127134870D01*
X22297733Y-126944180D01*
X23503556Y-128150003D01*
X23503557Y-128150003D01*
X23628792Y-128002566D01*
X23632852Y-127997225D01*
X23829897Y-127706606D01*
X23833350Y-127700868D01*
X23997830Y-127390626D01*
X24000639Y-127384552D01*
X24130603Y-127058368D01*
X24132748Y-127052001D01*
X24226682Y-126713684D01*
X24228125Y-126707130D01*
X24284930Y-126360630D01*
X24285656Y-126353958D01*
X24304665Y-126003356D01*
X24304665Y-125996643D01*
X24285656Y-125646041D01*
X24284930Y-125639369D01*
X24262082Y-125500000D01*
X34821672Y-125500000D01*
X34840948Y-125732621D01*
X34840948Y-125732624D01*
X34840949Y-125732626D01*
X34845078Y-125748931D01*
X34898251Y-125958908D01*
X34992016Y-126172669D01*
X35119684Y-126368081D01*
X35119686Y-126368083D01*
X35277780Y-126539818D01*
X35461983Y-126683190D01*
X35667273Y-126794287D01*
X35722466Y-126813235D01*
X35888046Y-126870080D01*
X36118288Y-126908500D01*
X36351712Y-126908500D01*
X36581953Y-126870080D01*
X36697782Y-126830315D01*
X36802727Y-126794287D01*
X37008017Y-126683190D01*
X37192220Y-126539818D01*
X37192221Y-126539816D01*
X37200328Y-126533507D01*
X37201098Y-126534496D01*
X37252070Y-126503860D01*
X37321908Y-126505955D01*
X37379527Y-126545475D01*
X37399602Y-126580496D01*
X37424110Y-126646203D01*
X37511738Y-126763261D01*
X37628796Y-126850889D01*
X37765794Y-126901988D01*
X37765797Y-126901988D01*
X37765799Y-126901989D01*
X37826362Y-126908500D01*
X37829672Y-126908500D01*
X39720328Y-126908500D01*
X39723638Y-126908500D01*
X39784201Y-126901989D01*
X39784203Y-126901988D01*
X39784205Y-126901988D01*
X39869751Y-126870080D01*
X39921204Y-126850889D01*
X40038261Y-126763261D01*
X40125889Y-126646204D01*
X40150397Y-126580496D01*
X40176988Y-126509205D01*
X40176988Y-126509203D01*
X40176989Y-126509201D01*
X40183500Y-126448638D01*
X40183500Y-124551362D01*
X40176989Y-124490799D01*
X40176988Y-124490797D01*
X40176988Y-124490794D01*
X40125889Y-124353796D01*
X40038261Y-124236738D01*
X39921203Y-124149110D01*
X39784205Y-124098011D01*
X39726924Y-124091853D01*
X39726918Y-124091852D01*
X39723638Y-124091500D01*
X37826362Y-124091500D01*
X37823082Y-124091852D01*
X37823075Y-124091853D01*
X37765794Y-124098011D01*
X37628796Y-124149110D01*
X37511738Y-124236738D01*
X37424111Y-124353795D01*
X37399602Y-124419504D01*
X37357730Y-124475436D01*
X37292265Y-124499852D01*
X37223992Y-124484999D01*
X37195063Y-124462395D01*
X37192220Y-124460182D01*
X37008017Y-124316810D01*
X36802727Y-124205713D01*
X36802726Y-124205712D01*
X36802725Y-124205712D01*
X36581953Y-124129919D01*
X36351712Y-124091500D01*
X36118288Y-124091500D01*
X35888046Y-124129919D01*
X35667274Y-124205712D01*
X35461983Y-124316810D01*
X35277780Y-124460181D01*
X35119684Y-124631918D01*
X34992016Y-124827330D01*
X34898251Y-125041091D01*
X34840948Y-125267378D01*
X34821672Y-125500000D01*
X24262082Y-125500000D01*
X24228125Y-125292869D01*
X24226682Y-125286315D01*
X24132748Y-124947998D01*
X24130603Y-124941631D01*
X24000639Y-124615447D01*
X23997830Y-124609373D01*
X23833350Y-124299131D01*
X23829897Y-124293393D01*
X23632852Y-124002774D01*
X23628792Y-123997433D01*
X23503557Y-123849995D01*
X23503556Y-123849994D01*
X22297732Y-125055818D01*
X22134870Y-124865130D01*
X21944180Y-124702266D01*
X23152743Y-123493703D01*
X23141942Y-123483473D01*
X23136842Y-123479141D01*
X22857305Y-123266642D01*
X22851759Y-123262882D01*
X22550900Y-123081862D01*
X22544961Y-123078714D01*
X22226304Y-122931287D01*
X22220062Y-122928800D01*
X21887315Y-122816684D01*
X21880870Y-122814895D01*
X21537946Y-122739411D01*
X21531322Y-122738325D01*
X21182259Y-122700363D01*
X21175563Y-122700000D01*
X20824437Y-122700000D01*
X20817740Y-122700363D01*
X20468677Y-122738325D01*
X20462053Y-122739411D01*
X20119129Y-122814895D01*
X20112684Y-122816684D01*
X19779937Y-122928800D01*
X19773695Y-122931287D01*
X19455038Y-123078714D01*
X19449099Y-123081862D01*
X19148240Y-123262882D01*
X19142694Y-123266642D01*
X18863149Y-123479146D01*
X18858054Y-123483474D01*
X18847256Y-123493702D01*
X18847255Y-123493703D01*
X20055819Y-124702266D01*
X19865130Y-124865130D01*
X19702266Y-125055818D01*
X18496442Y-123849994D01*
X18496441Y-123849995D01*
X18371207Y-123997433D01*
X18367147Y-124002774D01*
X18226633Y-124210017D01*
X18172719Y-124254458D01*
X18103337Y-124262696D01*
X18040515Y-124232115D01*
X18004199Y-124172425D01*
X18000000Y-124140430D01*
X18000000Y-116000000D01*
X20946501Y-116000000D01*
X20966456Y-116228084D01*
X21025717Y-116449246D01*
X21122474Y-116656744D01*
X21122476Y-116656746D01*
X21122477Y-116656749D01*
X21253802Y-116844300D01*
X21415700Y-117006198D01*
X21603251Y-117137523D01*
X21810757Y-117234284D01*
X22031913Y-117293543D01*
X22183971Y-117306846D01*
X22259999Y-117313498D01*
X22259999Y-117313497D01*
X22260000Y-117313498D01*
X22488087Y-117293543D01*
X22709243Y-117234284D01*
X22916749Y-117137523D01*
X23104300Y-117006198D01*
X23266198Y-116844300D01*
X23397523Y-116656749D01*
X23494284Y-116449243D01*
X23553543Y-116228087D01*
X23573498Y-116000000D01*
X36186501Y-116000000D01*
X36206456Y-116228084D01*
X36265717Y-116449246D01*
X36362474Y-116656744D01*
X36362476Y-116656746D01*
X36362477Y-116656749D01*
X36493802Y-116844300D01*
X36655700Y-117006198D01*
X36843251Y-117137523D01*
X37050757Y-117234284D01*
X37271913Y-117293543D01*
X37500000Y-117313498D01*
X37728087Y-117293543D01*
X37949243Y-117234284D01*
X38156749Y-117137523D01*
X38344300Y-117006198D01*
X38506198Y-116844300D01*
X38637523Y-116656749D01*
X38734284Y-116449243D01*
X38793543Y-116228087D01*
X38813498Y-116000000D01*
X38793543Y-115771913D01*
X38734284Y-115550757D01*
X38685903Y-115447004D01*
X38637525Y-115343255D01*
X38637524Y-115343254D01*
X38637523Y-115343251D01*
X38506198Y-115155700D01*
X38344300Y-114993802D01*
X38156749Y-114862477D01*
X38156746Y-114862476D01*
X38156744Y-114862474D01*
X37949246Y-114765717D01*
X37949243Y-114765716D01*
X37808811Y-114728087D01*
X37728084Y-114706456D01*
X37500000Y-114686501D01*
X37271915Y-114706456D01*
X37050753Y-114765717D01*
X36843255Y-114862474D01*
X36655696Y-114993805D01*
X36493805Y-115155696D01*
X36493802Y-115155699D01*
X36493802Y-115155700D01*
X36472645Y-115185915D01*
X36362474Y-115343255D01*
X36265717Y-115550753D01*
X36206456Y-115771915D01*
X36186501Y-116000000D01*
X23573498Y-116000000D01*
X23553543Y-115771913D01*
X23494284Y-115550757D01*
X23445903Y-115447004D01*
X23397525Y-115343255D01*
X23397524Y-115343254D01*
X23397523Y-115343251D01*
X23266198Y-115155700D01*
X23104300Y-114993802D01*
X22916749Y-114862477D01*
X22916746Y-114862476D01*
X22916744Y-114862474D01*
X22709246Y-114765717D01*
X22709243Y-114765716D01*
X22568811Y-114728087D01*
X22488084Y-114706456D01*
X22259999Y-114686501D01*
X22031915Y-114706456D01*
X21810753Y-114765717D01*
X21603255Y-114862474D01*
X21415696Y-114993805D01*
X21253805Y-115155696D01*
X21253802Y-115155699D01*
X21253802Y-115155700D01*
X21232645Y-115185915D01*
X21122474Y-115343255D01*
X21025717Y-115550753D01*
X20966456Y-115771915D01*
X20946501Y-116000000D01*
X18000000Y-116000000D01*
X18000000Y-108380000D01*
X20955033Y-108380000D01*
X20974858Y-108606602D01*
X21033733Y-108826326D01*
X21129866Y-109032484D01*
X21180972Y-109105471D01*
X21180974Y-109105472D01*
X21862046Y-108424399D01*
X21874835Y-108505148D01*
X21932359Y-108618045D01*
X22021955Y-108707641D01*
X22134852Y-108765165D01*
X22215599Y-108777953D01*
X21534526Y-109459025D01*
X21534526Y-109459026D01*
X21607515Y-109510133D01*
X21813673Y-109606266D01*
X22033397Y-109665141D01*
X22260000Y-109684966D01*
X22486602Y-109665141D01*
X22706326Y-109606266D01*
X22912480Y-109510134D01*
X22985472Y-109459025D01*
X22755085Y-109228638D01*
X36191500Y-109228638D01*
X36191852Y-109231918D01*
X36191853Y-109231924D01*
X36198011Y-109289205D01*
X36249110Y-109426203D01*
X36336738Y-109543261D01*
X36453796Y-109630889D01*
X36590794Y-109681988D01*
X36590797Y-109681988D01*
X36590799Y-109681989D01*
X36651362Y-109688500D01*
X36654672Y-109688500D01*
X38345328Y-109688500D01*
X38348638Y-109688500D01*
X38409201Y-109681989D01*
X38409203Y-109681988D01*
X38409205Y-109681988D01*
X38487124Y-109652924D01*
X38546204Y-109630889D01*
X38663261Y-109543261D01*
X38750889Y-109426204D01*
X38801989Y-109289201D01*
X38808500Y-109228638D01*
X38808500Y-107531362D01*
X38801989Y-107470799D01*
X38801988Y-107470797D01*
X38801988Y-107470794D01*
X38750889Y-107333796D01*
X38663261Y-107216738D01*
X38546203Y-107129110D01*
X38409205Y-107078011D01*
X38351924Y-107071853D01*
X38351918Y-107071852D01*
X38348638Y-107071500D01*
X36651362Y-107071500D01*
X36648082Y-107071852D01*
X36648075Y-107071853D01*
X36590794Y-107078011D01*
X36453796Y-107129110D01*
X36336738Y-107216738D01*
X36249110Y-107333796D01*
X36198011Y-107470794D01*
X36191853Y-107528075D01*
X36191500Y-107531362D01*
X36191500Y-109228638D01*
X22755085Y-109228638D01*
X22304401Y-108777953D01*
X22385148Y-108765165D01*
X22498045Y-108707641D01*
X22587641Y-108618045D01*
X22645165Y-108505148D01*
X22657953Y-108424400D01*
X23339025Y-109105472D01*
X23390134Y-109032480D01*
X23486266Y-108826326D01*
X23545141Y-108606602D01*
X23564966Y-108380000D01*
X23545141Y-108153397D01*
X23486266Y-107933673D01*
X23390133Y-107727515D01*
X23339025Y-107654526D01*
X22657953Y-108335598D01*
X22645165Y-108254852D01*
X22587641Y-108141955D01*
X22498045Y-108052359D01*
X22385148Y-107994835D01*
X22304400Y-107982046D01*
X22985472Y-107300974D01*
X22985471Y-107300972D01*
X22912484Y-107249866D01*
X22706326Y-107153733D01*
X22486602Y-107094858D01*
X22260000Y-107075033D01*
X22033397Y-107094858D01*
X21813672Y-107153733D01*
X21607516Y-107249865D01*
X21534527Y-107300973D01*
X21534526Y-107300973D01*
X22215600Y-107982046D01*
X22134852Y-107994835D01*
X22021955Y-108052359D01*
X21932359Y-108141955D01*
X21874835Y-108254852D01*
X21862046Y-108335599D01*
X21180973Y-107654526D01*
X21180973Y-107654527D01*
X21129865Y-107727516D01*
X21033733Y-107933672D01*
X20974858Y-108153397D01*
X20955033Y-108380000D01*
X18000000Y-108380000D01*
X18000000Y-74760000D01*
X19686501Y-74760000D01*
X19706456Y-74988084D01*
X19706457Y-74988087D01*
X19753535Y-75163785D01*
X19765717Y-75209246D01*
X19862474Y-75416744D01*
X19862476Y-75416746D01*
X19862477Y-75416749D01*
X19993802Y-75604300D01*
X20155700Y-75766198D01*
X20343251Y-75897523D01*
X20550757Y-75994284D01*
X20771913Y-76053543D01*
X21000000Y-76073498D01*
X21228087Y-76053543D01*
X21449243Y-75994284D01*
X21656749Y-75897523D01*
X21844300Y-75766198D01*
X22006198Y-75604300D01*
X22137523Y-75416749D01*
X22234284Y-75209243D01*
X22293543Y-74988087D01*
X22313498Y-74760000D01*
X22293543Y-74531913D01*
X22234284Y-74310757D01*
X22148498Y-74126787D01*
X22137525Y-74103255D01*
X22137524Y-74103254D01*
X22137523Y-74103251D01*
X22006198Y-73915700D01*
X21844300Y-73753802D01*
X21656749Y-73622477D01*
X21656743Y-73622474D01*
X21646486Y-73617691D01*
X21594048Y-73571518D01*
X21574897Y-73504324D01*
X21595114Y-73437443D01*
X21646496Y-73392924D01*
X21652485Y-73390131D01*
X21725472Y-73339025D01*
X21044401Y-72657953D01*
X21125148Y-72645165D01*
X21238045Y-72587641D01*
X21327641Y-72498045D01*
X21385165Y-72385148D01*
X21397953Y-72304400D01*
X22079025Y-72985472D01*
X22130134Y-72912480D01*
X22226266Y-72706326D01*
X22285141Y-72486602D01*
X22304966Y-72260000D01*
X22285141Y-72033397D01*
X22226266Y-71813673D01*
X22130133Y-71607515D01*
X22079025Y-71534526D01*
X21397953Y-72215598D01*
X21385165Y-72134852D01*
X21327641Y-72021955D01*
X21238045Y-71932359D01*
X21125148Y-71874835D01*
X21044400Y-71862046D01*
X21725472Y-71180974D01*
X21725471Y-71180972D01*
X21652484Y-71129866D01*
X21446326Y-71033733D01*
X21226602Y-70974858D01*
X21000000Y-70955033D01*
X20773397Y-70974858D01*
X20553672Y-71033733D01*
X20347516Y-71129865D01*
X20274527Y-71180973D01*
X20274526Y-71180973D01*
X20955600Y-71862046D01*
X20874852Y-71874835D01*
X20761955Y-71932359D01*
X20672359Y-72021955D01*
X20614835Y-72134852D01*
X20602046Y-72215599D01*
X19920973Y-71534526D01*
X19920973Y-71534527D01*
X19869865Y-71607516D01*
X19773733Y-71813672D01*
X19714858Y-72033397D01*
X19695033Y-72260000D01*
X19714858Y-72486602D01*
X19773733Y-72706326D01*
X19869866Y-72912484D01*
X19920972Y-72985471D01*
X19920974Y-72985472D01*
X20602046Y-72304399D01*
X20614835Y-72385148D01*
X20672359Y-72498045D01*
X20761955Y-72587641D01*
X20874852Y-72645165D01*
X20955599Y-72657953D01*
X20274526Y-73339025D01*
X20274526Y-73339026D01*
X20347515Y-73390132D01*
X20353506Y-73392926D01*
X20405947Y-73439096D01*
X20425102Y-73506289D01*
X20404889Y-73573171D01*
X20353515Y-73617690D01*
X20343255Y-73622474D01*
X20155696Y-73753805D01*
X19993805Y-73915696D01*
X19862474Y-74103255D01*
X19765717Y-74310753D01*
X19706456Y-74531915D01*
X19686501Y-74760000D01*
X18000000Y-74760000D01*
X18000000Y-52259999D01*
X19686501Y-52259999D01*
X19706456Y-52488084D01*
X19765717Y-52709246D01*
X19862474Y-52916744D01*
X19862476Y-52916746D01*
X19862477Y-52916749D01*
X19993802Y-53104300D01*
X20155700Y-53266198D01*
X20343251Y-53397523D01*
X20550757Y-53494284D01*
X20771913Y-53553543D01*
X21000000Y-53573498D01*
X21228087Y-53553543D01*
X21449243Y-53494284D01*
X21656749Y-53397523D01*
X21844300Y-53266198D01*
X22006198Y-53104300D01*
X22137523Y-52916749D01*
X22234284Y-52709243D01*
X22293543Y-52488087D01*
X22313498Y-52260000D01*
X22293543Y-52031913D01*
X22234284Y-51810757D01*
X22137523Y-51603251D01*
X22006198Y-51415700D01*
X21844300Y-51253802D01*
X21656749Y-51122477D01*
X21656743Y-51122474D01*
X21646486Y-51117691D01*
X21594048Y-51071518D01*
X21574897Y-51004324D01*
X21595114Y-50937443D01*
X21646496Y-50892924D01*
X21652485Y-50890131D01*
X21725472Y-50839025D01*
X21044401Y-50157953D01*
X21125148Y-50145165D01*
X21238045Y-50087641D01*
X21327641Y-49998045D01*
X21385165Y-49885148D01*
X21397953Y-49804400D01*
X22079025Y-50485472D01*
X22130134Y-50412480D01*
X22226266Y-50206326D01*
X22285141Y-49986602D01*
X22304966Y-49760000D01*
X22285141Y-49533397D01*
X22226266Y-49313673D01*
X22130133Y-49107515D01*
X22079025Y-49034526D01*
X21397953Y-49715598D01*
X21385165Y-49634852D01*
X21327641Y-49521955D01*
X21238045Y-49432359D01*
X21125148Y-49374835D01*
X21044399Y-49362045D01*
X21725472Y-48680973D01*
X21725471Y-48680972D01*
X21652484Y-48629866D01*
X21446326Y-48533733D01*
X21226602Y-48474858D01*
X21000000Y-48455033D01*
X20773397Y-48474858D01*
X20553672Y-48533733D01*
X20347516Y-48629865D01*
X20274526Y-48680973D01*
X20955598Y-49362046D01*
X20874852Y-49374835D01*
X20761955Y-49432359D01*
X20672359Y-49521955D01*
X20614835Y-49634852D01*
X20602046Y-49715599D01*
X19920973Y-49034526D01*
X19920973Y-49034527D01*
X19869865Y-49107516D01*
X19773733Y-49313672D01*
X19714858Y-49533397D01*
X19695033Y-49760000D01*
X19714858Y-49986602D01*
X19773733Y-50206326D01*
X19869866Y-50412484D01*
X19920972Y-50485471D01*
X19920974Y-50485472D01*
X20602046Y-49804399D01*
X20614835Y-49885148D01*
X20672359Y-49998045D01*
X20761955Y-50087641D01*
X20874852Y-50145165D01*
X20955599Y-50157953D01*
X20274526Y-50839025D01*
X20274526Y-50839026D01*
X20347515Y-50890132D01*
X20353506Y-50892926D01*
X20405947Y-50939096D01*
X20425102Y-51006289D01*
X20404889Y-51073171D01*
X20353515Y-51117690D01*
X20343255Y-51122474D01*
X20155696Y-51253805D01*
X19993805Y-51415696D01*
X19862474Y-51603255D01*
X19765717Y-51810753D01*
X19706456Y-52031915D01*
X19686501Y-52259999D01*
X18000000Y-52259999D01*
X18000000Y-38000000D01*
X20686501Y-38000000D01*
X20706456Y-38228084D01*
X20765717Y-38449246D01*
X20862474Y-38656744D01*
X20862476Y-38656746D01*
X20862477Y-38656749D01*
X20993802Y-38844300D01*
X20993805Y-38844303D01*
X21141339Y-38991837D01*
X21174824Y-39053160D01*
X21169840Y-39122852D01*
X21127968Y-39178785D01*
X21096993Y-39195699D01*
X20953796Y-39249110D01*
X20836738Y-39336738D01*
X20749110Y-39453796D01*
X20698011Y-39590794D01*
X20692560Y-39641500D01*
X20691500Y-39651362D01*
X20691500Y-41348638D01*
X20691852Y-41351918D01*
X20691853Y-41351924D01*
X20698011Y-41409205D01*
X20749110Y-41546203D01*
X20836738Y-41663261D01*
X20953796Y-41750889D01*
X21090794Y-41801988D01*
X21090797Y-41801988D01*
X21090799Y-41801989D01*
X21151362Y-41808500D01*
X21154672Y-41808500D01*
X22845328Y-41808500D01*
X22848638Y-41808500D01*
X22909201Y-41801989D01*
X22909203Y-41801988D01*
X22909205Y-41801988D01*
X22987124Y-41772924D01*
X23046204Y-41750889D01*
X23163261Y-41663261D01*
X23250889Y-41546204D01*
X23301989Y-41409201D01*
X23308500Y-41348638D01*
X23308500Y-39651362D01*
X23301989Y-39590799D01*
X23301988Y-39590797D01*
X23301988Y-39590794D01*
X23250889Y-39453796D01*
X23163261Y-39336738D01*
X23046204Y-39249110D01*
X22903006Y-39195699D01*
X22847073Y-39153827D01*
X22822657Y-39088363D01*
X22837509Y-39020090D01*
X22858654Y-38991843D01*
X23006198Y-38844300D01*
X23137523Y-38656749D01*
X23234284Y-38449243D01*
X23293543Y-38228087D01*
X23313498Y-38000000D01*
X23293543Y-37771913D01*
X23234284Y-37550757D01*
X23137523Y-37343251D01*
X23006198Y-37155700D01*
X22844300Y-36993802D01*
X22656749Y-36862477D01*
X22656544Y-36862381D01*
X22656282Y-36862151D01*
X22647862Y-36856255D01*
X22648519Y-36855316D01*
X22604107Y-36816213D01*
X22584953Y-36749020D01*
X22605167Y-36682138D01*
X22648470Y-36644614D01*
X22647862Y-36643745D01*
X22656260Y-36637864D01*
X22656543Y-36637618D01*
X22656749Y-36637523D01*
X22844300Y-36506198D01*
X23006198Y-36344300D01*
X23137523Y-36156749D01*
X23234284Y-35949243D01*
X23293543Y-35728087D01*
X23313498Y-35500000D01*
X23293543Y-35271913D01*
X23234284Y-35050757D01*
X23137523Y-34843251D01*
X23006198Y-34655700D01*
X22844300Y-34493802D01*
X22656749Y-34362477D01*
X22656746Y-34362476D01*
X22656744Y-34362474D01*
X22449246Y-34265717D01*
X22449243Y-34265716D01*
X22338664Y-34236086D01*
X22228084Y-34206456D01*
X22000000Y-34186501D01*
X21771915Y-34206456D01*
X21550753Y-34265717D01*
X21343255Y-34362474D01*
X21155696Y-34493805D01*
X20993805Y-34655696D01*
X20862474Y-34843255D01*
X20765717Y-35050753D01*
X20706456Y-35271915D01*
X20686501Y-35499999D01*
X20706456Y-35728084D01*
X20765717Y-35949246D01*
X20862474Y-36156744D01*
X20862476Y-36156746D01*
X20862477Y-36156749D01*
X20993802Y-36344300D01*
X21155700Y-36506198D01*
X21343251Y-36637523D01*
X21343457Y-36637619D01*
X21343720Y-36637851D01*
X21352138Y-36643745D01*
X21351480Y-36644683D01*
X21395895Y-36683791D01*
X21415046Y-36750985D01*
X21394830Y-36817866D01*
X21351529Y-36855386D01*
X21352138Y-36856255D01*
X21343743Y-36862133D01*
X21343457Y-36862380D01*
X21343251Y-36862477D01*
X21155696Y-36993805D01*
X20993805Y-37155696D01*
X20862474Y-37343255D01*
X20765717Y-37550753D01*
X20706456Y-37771915D01*
X20686501Y-38000000D01*
X18000000Y-38000000D01*
X18000000Y-32467551D01*
X25999000Y-32467551D01*
X25999001Y-32469170D01*
X25999087Y-32470802D01*
X25999088Y-32470814D01*
X26001584Y-32517827D01*
X26001584Y-32517834D01*
X26001811Y-32522092D01*
X26002621Y-32526282D01*
X26002622Y-32526287D01*
X26046529Y-32753312D01*
X26046530Y-32753314D01*
X26129682Y-32973652D01*
X26248875Y-33176768D01*
X26400681Y-33356819D01*
X26580732Y-33508625D01*
X26783848Y-33627818D01*
X27004186Y-33710970D01*
X27235408Y-33755689D01*
X27288329Y-33758500D01*
X29226670Y-33758499D01*
X29279592Y-33755689D01*
X29510814Y-33710970D01*
X29731152Y-33627818D01*
X29934268Y-33508625D01*
X30114319Y-33356819D01*
X30266125Y-33176768D01*
X30385318Y-32973652D01*
X30458987Y-32778441D01*
X30501073Y-32722672D01*
X30566631Y-32698508D01*
X30634846Y-32713623D01*
X30684061Y-32763219D01*
X30699000Y-32822224D01*
X30699000Y-36298638D01*
X30699352Y-36301918D01*
X30699353Y-36301924D01*
X30705511Y-36359205D01*
X30756610Y-36496203D01*
X30844238Y-36613261D01*
X30961296Y-36700889D01*
X31098294Y-36751988D01*
X31098297Y-36751988D01*
X31098299Y-36751989D01*
X31158862Y-36758500D01*
X31162172Y-36758500D01*
X34752828Y-36758500D01*
X34756138Y-36758500D01*
X34816701Y-36751989D01*
X34816703Y-36751988D01*
X34816705Y-36751988D01*
X34894624Y-36722924D01*
X34953704Y-36700889D01*
X35070761Y-36613261D01*
X35158389Y-36496204D01*
X35186449Y-36420972D01*
X35209488Y-36359205D01*
X35209488Y-36359203D01*
X35209489Y-36359201D01*
X35216000Y-36298638D01*
X35216000Y-33080000D01*
X41386526Y-33080000D01*
X41406391Y-33332404D01*
X41465494Y-33578590D01*
X41485885Y-33627818D01*
X41562384Y-33812502D01*
X41694672Y-34028376D01*
X41859102Y-34220898D01*
X42051624Y-34385328D01*
X42267498Y-34517616D01*
X42501409Y-34614505D01*
X42747597Y-34673609D01*
X43000000Y-34693474D01*
X43252403Y-34673609D01*
X43498591Y-34614505D01*
X43732502Y-34517616D01*
X43948376Y-34385328D01*
X44140898Y-34220898D01*
X44305328Y-34028376D01*
X44437616Y-33812502D01*
X44534505Y-33578591D01*
X44593609Y-33332403D01*
X44613474Y-33080000D01*
X44593609Y-32827597D01*
X44534505Y-32581409D01*
X44437616Y-32347498D01*
X44305328Y-32131624D01*
X44192910Y-32000000D01*
X47186501Y-32000000D01*
X47206456Y-32228084D01*
X47225488Y-32299110D01*
X47264934Y-32446326D01*
X47265717Y-32449246D01*
X47362474Y-32656744D01*
X47362476Y-32656746D01*
X47362477Y-32656749D01*
X47493802Y-32844300D01*
X47655700Y-33006198D01*
X47843251Y-33137523D01*
X48050757Y-33234284D01*
X48271913Y-33293543D01*
X48500000Y-33313498D01*
X48728087Y-33293543D01*
X48949243Y-33234284D01*
X49156749Y-33137523D01*
X49344300Y-33006198D01*
X49506198Y-32844300D01*
X49637523Y-32656749D01*
X49642306Y-32646490D01*
X49688477Y-32594050D01*
X49755670Y-32574897D01*
X49822552Y-32595111D01*
X49867072Y-32646490D01*
X49869867Y-32652485D01*
X49920972Y-32725471D01*
X49920973Y-32725472D01*
X50602045Y-32044399D01*
X50614835Y-32125148D01*
X50672359Y-32238045D01*
X50761955Y-32327641D01*
X50874852Y-32385165D01*
X50955599Y-32397953D01*
X50274526Y-33079025D01*
X50274526Y-33079026D01*
X50347515Y-33130133D01*
X50553673Y-33226266D01*
X50773397Y-33285141D01*
X51000000Y-33304966D01*
X51226602Y-33285141D01*
X51446326Y-33226266D01*
X51652480Y-33130134D01*
X51725472Y-33079025D01*
X51044401Y-32397953D01*
X51125148Y-32385165D01*
X51238045Y-32327641D01*
X51327641Y-32238045D01*
X51385165Y-32125148D01*
X51397953Y-32044399D01*
X52079025Y-32725472D01*
X52130134Y-32652480D01*
X52226266Y-32446326D01*
X52285141Y-32226602D01*
X52304966Y-32000000D01*
X54695033Y-32000000D01*
X54714858Y-32226602D01*
X54773733Y-32446326D01*
X54869866Y-32652484D01*
X54920972Y-32725471D01*
X54920974Y-32725472D01*
X55602046Y-32044399D01*
X55614835Y-32125148D01*
X55672359Y-32238045D01*
X55761955Y-32327641D01*
X55874852Y-32385165D01*
X55955599Y-32397953D01*
X55274526Y-33079025D01*
X55274526Y-33079026D01*
X55347515Y-33130133D01*
X55553673Y-33226266D01*
X55773397Y-33285141D01*
X56000000Y-33304966D01*
X56226602Y-33285141D01*
X56446326Y-33226266D01*
X56652480Y-33130134D01*
X56725472Y-33079025D01*
X56044401Y-32397953D01*
X56125148Y-32385165D01*
X56238045Y-32327641D01*
X56327641Y-32238045D01*
X56385165Y-32125148D01*
X56397953Y-32044400D01*
X57079025Y-32725472D01*
X57130131Y-32652485D01*
X57132924Y-32646496D01*
X57179093Y-32594053D01*
X57246286Y-32574897D01*
X57313168Y-32595108D01*
X57357691Y-32646486D01*
X57362475Y-32656744D01*
X57362477Y-32656749D01*
X57493802Y-32844300D01*
X57655700Y-33006198D01*
X57843251Y-33137523D01*
X58050757Y-33234284D01*
X58271913Y-33293543D01*
X58500000Y-33313498D01*
X58728087Y-33293543D01*
X58949243Y-33234284D01*
X59156749Y-33137523D01*
X59344300Y-33006198D01*
X59506198Y-32844300D01*
X59637523Y-32656749D01*
X59734284Y-32449243D01*
X59793543Y-32228087D01*
X59813498Y-32000000D01*
X59793543Y-31771913D01*
X59734284Y-31550757D01*
X59685903Y-31447004D01*
X59637525Y-31343255D01*
X59637524Y-31343253D01*
X59637523Y-31343251D01*
X59506198Y-31155700D01*
X59344300Y-30993802D01*
X59156749Y-30862477D01*
X59156746Y-30862476D01*
X59156744Y-30862474D01*
X58949246Y-30765717D01*
X58949243Y-30765716D01*
X58838665Y-30736086D01*
X58728084Y-30706456D01*
X58500000Y-30686501D01*
X58271915Y-30706456D01*
X58050753Y-30765717D01*
X57843255Y-30862474D01*
X57655696Y-30993805D01*
X57493805Y-31155696D01*
X57362474Y-31343255D01*
X57357690Y-31353515D01*
X57311516Y-31405953D01*
X57244321Y-31425102D01*
X57177441Y-31404884D01*
X57132926Y-31353506D01*
X57130132Y-31347515D01*
X57079025Y-31274526D01*
X56397953Y-31955598D01*
X56385165Y-31874852D01*
X56327641Y-31761955D01*
X56238045Y-31672359D01*
X56125148Y-31614835D01*
X56044399Y-31602045D01*
X56725472Y-30920973D01*
X56725471Y-30920972D01*
X56652484Y-30869866D01*
X56446326Y-30773733D01*
X56226602Y-30714858D01*
X56000000Y-30695033D01*
X55773397Y-30714858D01*
X55553672Y-30773733D01*
X55347516Y-30869865D01*
X55274526Y-30920973D01*
X55955598Y-31602046D01*
X55874852Y-31614835D01*
X55761955Y-31672359D01*
X55672359Y-31761955D01*
X55614835Y-31874852D01*
X55602046Y-31955599D01*
X54920973Y-31274526D01*
X54920973Y-31274527D01*
X54869865Y-31347516D01*
X54773733Y-31553672D01*
X54714858Y-31773397D01*
X54695033Y-32000000D01*
X52304966Y-32000000D01*
X52285141Y-31773397D01*
X52226266Y-31553673D01*
X52130133Y-31347515D01*
X52079025Y-31274526D01*
X51397953Y-31955597D01*
X51385165Y-31874852D01*
X51327641Y-31761955D01*
X51238045Y-31672359D01*
X51125148Y-31614835D01*
X51044400Y-31602046D01*
X51725472Y-30920974D01*
X51725471Y-30920972D01*
X51652484Y-30869866D01*
X51446326Y-30773733D01*
X51226602Y-30714858D01*
X51000000Y-30695033D01*
X50773397Y-30714858D01*
X50553672Y-30773733D01*
X50347516Y-30869865D01*
X50274527Y-30920973D01*
X50274526Y-30920973D01*
X50955600Y-31602046D01*
X50874852Y-31614835D01*
X50761955Y-31672359D01*
X50672359Y-31761955D01*
X50614835Y-31874852D01*
X50602046Y-31955598D01*
X49920973Y-31274527D01*
X49869863Y-31347520D01*
X49867067Y-31353516D01*
X49820892Y-31405953D01*
X49753697Y-31425101D01*
X49686817Y-31404881D01*
X49642305Y-31353507D01*
X49637524Y-31343253D01*
X49610715Y-31304966D01*
X49506198Y-31155700D01*
X49344300Y-30993802D01*
X49156749Y-30862477D01*
X49156746Y-30862476D01*
X49156744Y-30862474D01*
X48949246Y-30765717D01*
X48949243Y-30765716D01*
X48838665Y-30736086D01*
X48728084Y-30706456D01*
X48500000Y-30686501D01*
X48271915Y-30706456D01*
X48050753Y-30765717D01*
X47843255Y-30862474D01*
X47655696Y-30993805D01*
X47493805Y-31155696D01*
X47362474Y-31343255D01*
X47265717Y-31550753D01*
X47206456Y-31771915D01*
X47186501Y-32000000D01*
X44192910Y-32000000D01*
X44140898Y-31939102D01*
X43948376Y-31774672D01*
X43732502Y-31642384D01*
X43615546Y-31593939D01*
X43498590Y-31545494D01*
X43252404Y-31486391D01*
X43000000Y-31466526D01*
X42747595Y-31486391D01*
X42501409Y-31545494D01*
X42267496Y-31642385D01*
X42051625Y-31774671D01*
X41859102Y-31939102D01*
X41694671Y-32131625D01*
X41562385Y-32347496D01*
X41465494Y-32581409D01*
X41406391Y-32827595D01*
X41386526Y-33080000D01*
X35216000Y-33080000D01*
X35216000Y-32701362D01*
X35209489Y-32640799D01*
X35209488Y-32640797D01*
X35209488Y-32640794D01*
X35158389Y-32503796D01*
X35070761Y-32386738D01*
X34953703Y-32299110D01*
X34816705Y-32248011D01*
X34759424Y-32241853D01*
X34759418Y-32241852D01*
X34756138Y-32241500D01*
X31158862Y-32241500D01*
X31155582Y-32241852D01*
X31155575Y-32241853D01*
X31098294Y-32248011D01*
X30961296Y-32299110D01*
X30844238Y-32386738D01*
X30756609Y-32503797D01*
X30756178Y-32504955D01*
X30714302Y-32560885D01*
X30648836Y-32585298D01*
X30580564Y-32570441D01*
X30531163Y-32521032D01*
X30515999Y-32461616D01*
X30515999Y-30530830D01*
X30513189Y-30477908D01*
X30468470Y-30246686D01*
X30385318Y-30026348D01*
X30266125Y-29823232D01*
X30114319Y-29643181D01*
X29934268Y-29491375D01*
X29731152Y-29372182D01*
X29571002Y-29311744D01*
X29510812Y-29289029D01*
X29322925Y-29252691D01*
X29279592Y-29244311D01*
X29275321Y-29244084D01*
X29275312Y-29244083D01*
X29228321Y-29241587D01*
X29228296Y-29241586D01*
X29226671Y-29241500D01*
X29225026Y-29241500D01*
X27289985Y-29241500D01*
X27289947Y-29241500D01*
X27288330Y-29241501D01*
X27286698Y-29241587D01*
X27286685Y-29241588D01*
X27239672Y-29244084D01*
X27239663Y-29244085D01*
X27235408Y-29244311D01*
X27231219Y-29245121D01*
X27231212Y-29245122D01*
X27004187Y-29289029D01*
X26783845Y-29372183D01*
X26580732Y-29491375D01*
X26400681Y-29643181D01*
X26248875Y-29823232D01*
X26129683Y-30026345D01*
X26046529Y-30246687D01*
X26007919Y-30446326D01*
X26001811Y-30477908D01*
X26001585Y-30482172D01*
X26001583Y-30482187D01*
X25999087Y-30529178D01*
X25999087Y-30529185D01*
X25999000Y-30530829D01*
X25999000Y-30532472D01*
X25999000Y-30532473D01*
X25999000Y-32467514D01*
X25999000Y-32467551D01*
X18000000Y-32467551D01*
X18000000Y-26859569D01*
X18019685Y-26792530D01*
X18072489Y-26746775D01*
X18141647Y-26736831D01*
X18205203Y-26765856D01*
X18226633Y-26789982D01*
X18367147Y-26997225D01*
X18371207Y-27002566D01*
X18496441Y-27150003D01*
X18496442Y-27150004D01*
X19702266Y-25944180D01*
X19865130Y-26134870D01*
X20055818Y-26297732D01*
X18847255Y-27506295D01*
X18858047Y-27516518D01*
X18863157Y-27520858D01*
X19142694Y-27733357D01*
X19148240Y-27737117D01*
X19449099Y-27918137D01*
X19455038Y-27921285D01*
X19773695Y-28068712D01*
X19779937Y-28071199D01*
X20112684Y-28183315D01*
X20119129Y-28185104D01*
X20462053Y-28260588D01*
X20468677Y-28261674D01*
X20817740Y-28299636D01*
X20824437Y-28300000D01*
X21175563Y-28300000D01*
X21182259Y-28299636D01*
X21531322Y-28261674D01*
X21537946Y-28260588D01*
X21586047Y-28250000D01*
X30707500Y-28250000D01*
X31523814Y-28250000D01*
X31498007Y-28290156D01*
X31457500Y-28428111D01*
X31457500Y-28571889D01*
X31498007Y-28709844D01*
X31523814Y-28750000D01*
X30707501Y-28750000D01*
X30707501Y-29311744D01*
X30707692Y-29316625D01*
X30717900Y-29446331D01*
X30772877Y-29664518D01*
X30865930Y-29869379D01*
X30994065Y-30054332D01*
X31153167Y-30213434D01*
X31338120Y-30341569D01*
X31542981Y-30434622D01*
X31761168Y-30489599D01*
X31890874Y-30499808D01*
X31895754Y-30499999D01*
X32707499Y-30499999D01*
X32707500Y-30499998D01*
X32707500Y-29000000D01*
X33207500Y-29000000D01*
X33207500Y-30499999D01*
X34019244Y-30499999D01*
X34024125Y-30499807D01*
X34153831Y-30489599D01*
X34372018Y-30434622D01*
X34576879Y-30341569D01*
X34761832Y-30213434D01*
X34920934Y-30054332D01*
X35049069Y-29869379D01*
X35142122Y-29664518D01*
X35197099Y-29446331D01*
X35207308Y-29316625D01*
X35207500Y-29311745D01*
X35207500Y-28750000D01*
X34391186Y-28750000D01*
X34416993Y-28709844D01*
X34457500Y-28571889D01*
X34457500Y-28428111D01*
X34416993Y-28290156D01*
X34391186Y-28250000D01*
X35207499Y-28250000D01*
X35207499Y-27688255D01*
X35207307Y-27683374D01*
X35197099Y-27553668D01*
X35183576Y-27499999D01*
X66686501Y-27499999D01*
X66706456Y-27728084D01*
X66765717Y-27949246D01*
X66862474Y-28156744D01*
X66862476Y-28156746D01*
X66862477Y-28156749D01*
X66993802Y-28344300D01*
X67155700Y-28506198D01*
X67343251Y-28637523D01*
X67353508Y-28642305D01*
X67405947Y-28688476D01*
X67425101Y-28755669D01*
X67404887Y-28822550D01*
X67353516Y-28867067D01*
X67347520Y-28869863D01*
X67274527Y-28920973D01*
X67274526Y-28920973D01*
X67955600Y-29602046D01*
X67874852Y-29614835D01*
X67761955Y-29672359D01*
X67672359Y-29761955D01*
X67614835Y-29874852D01*
X67602046Y-29955598D01*
X66920973Y-29274527D01*
X66869865Y-29347516D01*
X66773733Y-29553672D01*
X66714858Y-29773397D01*
X66695033Y-30000000D01*
X66714858Y-30226602D01*
X66773733Y-30446326D01*
X66869866Y-30652484D01*
X66920972Y-30725471D01*
X66920973Y-30725472D01*
X67602045Y-30044399D01*
X67614835Y-30125148D01*
X67672359Y-30238045D01*
X67761955Y-30327641D01*
X67874852Y-30385165D01*
X67955599Y-30397953D01*
X67274526Y-31079025D01*
X67274526Y-31079026D01*
X67347515Y-31130133D01*
X67553673Y-31226266D01*
X67773397Y-31285141D01*
X68000000Y-31304966D01*
X68226602Y-31285141D01*
X68446326Y-31226266D01*
X68652480Y-31130134D01*
X68725472Y-31079025D01*
X68044401Y-30397953D01*
X68125148Y-30385165D01*
X68238045Y-30327641D01*
X68327641Y-30238045D01*
X68385165Y-30125148D01*
X68397953Y-30044400D01*
X69079025Y-30725472D01*
X69130134Y-30652480D01*
X69226266Y-30446326D01*
X69285141Y-30226602D01*
X69304966Y-30000000D01*
X69285141Y-29773397D01*
X69226266Y-29553673D01*
X69130133Y-29347515D01*
X69079025Y-29274526D01*
X68397953Y-29955598D01*
X68385165Y-29874852D01*
X68327641Y-29761955D01*
X68238045Y-29672359D01*
X68125148Y-29614835D01*
X68044400Y-29602046D01*
X68725472Y-28920974D01*
X68725471Y-28920972D01*
X68652485Y-28869867D01*
X68646490Y-28867072D01*
X68594050Y-28820900D01*
X68574897Y-28753707D01*
X68595112Y-28686825D01*
X68646490Y-28642306D01*
X68656749Y-28637523D01*
X68844300Y-28506198D01*
X69006198Y-28344300D01*
X69137523Y-28156749D01*
X69234284Y-27949243D01*
X69293543Y-27728087D01*
X69313498Y-27500000D01*
X69293543Y-27271913D01*
X69234284Y-27050757D01*
X69137523Y-26843251D01*
X69006198Y-26655700D01*
X68858660Y-26508162D01*
X68825175Y-26446839D01*
X68830159Y-26377147D01*
X68872031Y-26321214D01*
X68903007Y-26304299D01*
X68909199Y-26301989D01*
X68909201Y-26301989D01*
X69046204Y-26250889D01*
X69163261Y-26163261D01*
X69250889Y-26046204D01*
X69284970Y-25954830D01*
X69301988Y-25909205D01*
X69301988Y-25909203D01*
X69301989Y-25909201D01*
X69308500Y-25848638D01*
X69308500Y-24151362D01*
X69301989Y-24090799D01*
X69301988Y-24090797D01*
X69301988Y-24090794D01*
X69260663Y-23980000D01*
X82681128Y-23980000D01*
X82733733Y-24176326D01*
X82829865Y-24382480D01*
X82960341Y-24568819D01*
X83121180Y-24729658D01*
X83307519Y-24860134D01*
X83513673Y-24956266D01*
X83709999Y-25008871D01*
X83710000Y-25008871D01*
X83710000Y-24045686D01*
X83721955Y-24057641D01*
X83834852Y-24115165D01*
X83928519Y-24130000D01*
X83991481Y-24130000D01*
X84085148Y-24115165D01*
X84198045Y-24057641D01*
X84210000Y-24045686D01*
X84210000Y-25008871D01*
X84406326Y-24956266D01*
X84612480Y-24860134D01*
X84798819Y-24729658D01*
X84959658Y-24568819D01*
X85090133Y-24382481D01*
X85112927Y-24333600D01*
X85159098Y-24281160D01*
X85226292Y-24262007D01*
X85293173Y-24282222D01*
X85337692Y-24333598D01*
X85362475Y-24386746D01*
X85362476Y-24386748D01*
X85362477Y-24386749D01*
X85493802Y-24574300D01*
X85655700Y-24736198D01*
X85843251Y-24867523D01*
X85843254Y-24867524D01*
X85843255Y-24867525D01*
X85898447Y-24893261D01*
X86050757Y-24964284D01*
X86271913Y-25023543D01*
X86500000Y-25043498D01*
X86728087Y-25023543D01*
X86949243Y-24964284D01*
X87156749Y-24867523D01*
X87344300Y-24736198D01*
X87506198Y-24574300D01*
X87637523Y-24386749D01*
X87657617Y-24343655D01*
X87703790Y-24291215D01*
X87770983Y-24272063D01*
X87837864Y-24292278D01*
X87882382Y-24343655D01*
X87900850Y-24383261D01*
X87902477Y-24386749D01*
X88033802Y-24574300D01*
X88195700Y-24736198D01*
X88383251Y-24867523D01*
X88383254Y-24867524D01*
X88383255Y-24867525D01*
X88438447Y-24893261D01*
X88590757Y-24964284D01*
X88811913Y-25023543D01*
X88963970Y-25036846D01*
X89039999Y-25043498D01*
X89039999Y-25043497D01*
X89040000Y-25043498D01*
X89268087Y-25023543D01*
X89489243Y-24964284D01*
X89696749Y-24867523D01*
X89884300Y-24736198D01*
X90046198Y-24574300D01*
X90177523Y-24386749D01*
X90197617Y-24343655D01*
X90243790Y-24291215D01*
X90310983Y-24272063D01*
X90377864Y-24292278D01*
X90422382Y-24343655D01*
X90440850Y-24383261D01*
X90442477Y-24386749D01*
X90573802Y-24574300D01*
X90735700Y-24736198D01*
X90923251Y-24867523D01*
X90923254Y-24867524D01*
X90923255Y-24867525D01*
X90978447Y-24893261D01*
X91130757Y-24964284D01*
X91351913Y-25023543D01*
X91580000Y-25043498D01*
X91808087Y-25023543D01*
X92029243Y-24964284D01*
X92236749Y-24867523D01*
X92424300Y-24736198D01*
X92586198Y-24574300D01*
X92717523Y-24386749D01*
X92737617Y-24343655D01*
X92783790Y-24291215D01*
X92850983Y-24272063D01*
X92917864Y-24292278D01*
X92962382Y-24343655D01*
X92980850Y-24383261D01*
X92982477Y-24386749D01*
X93113802Y-24574300D01*
X93275700Y-24736198D01*
X93463251Y-24867523D01*
X93463254Y-24867524D01*
X93463255Y-24867525D01*
X93518447Y-24893261D01*
X93670757Y-24964284D01*
X93891913Y-25023543D01*
X94043970Y-25036846D01*
X94119999Y-25043498D01*
X94119999Y-25043497D01*
X94120000Y-25043498D01*
X94348087Y-25023543D01*
X94569243Y-24964284D01*
X94776749Y-24867523D01*
X94964300Y-24736198D01*
X95126198Y-24574300D01*
X95257523Y-24386749D01*
X95277617Y-24343655D01*
X95323790Y-24291215D01*
X95390983Y-24272063D01*
X95457864Y-24292278D01*
X95502382Y-24343655D01*
X95520850Y-24383261D01*
X95522477Y-24386749D01*
X95653802Y-24574300D01*
X95815700Y-24736198D01*
X96003251Y-24867523D01*
X96003254Y-24867524D01*
X96003255Y-24867525D01*
X96058447Y-24893261D01*
X96210757Y-24964284D01*
X96431913Y-25023543D01*
X96660000Y-25043498D01*
X96888087Y-25023543D01*
X97109243Y-24964284D01*
X97316749Y-24867523D01*
X97504300Y-24736198D01*
X97666198Y-24574300D01*
X97797523Y-24386749D01*
X97817617Y-24343655D01*
X97863790Y-24291215D01*
X97930983Y-24272063D01*
X97997864Y-24292278D01*
X98042382Y-24343655D01*
X98060850Y-24383261D01*
X98062477Y-24386749D01*
X98193802Y-24574300D01*
X98355700Y-24736198D01*
X98543251Y-24867523D01*
X98543254Y-24867524D01*
X98543255Y-24867525D01*
X98598447Y-24893261D01*
X98750757Y-24964284D01*
X98971913Y-25023543D01*
X99123970Y-25036846D01*
X99199999Y-25043498D01*
X99199999Y-25043497D01*
X99200000Y-25043498D01*
X99428087Y-25023543D01*
X99649243Y-24964284D01*
X99856749Y-24867523D01*
X100044300Y-24736198D01*
X100206198Y-24574300D01*
X100337523Y-24386749D01*
X100357618Y-24343654D01*
X100403787Y-24291216D01*
X100470980Y-24272063D01*
X100537862Y-24292277D01*
X100582381Y-24343653D01*
X100602477Y-24386749D01*
X100733802Y-24574300D01*
X100895700Y-24736198D01*
X101083251Y-24867523D01*
X101083254Y-24867524D01*
X101083255Y-24867525D01*
X101138447Y-24893261D01*
X101290757Y-24964284D01*
X101511913Y-25023543D01*
X101740000Y-25043498D01*
X101968087Y-25023543D01*
X102189243Y-24964284D01*
X102396749Y-24867523D01*
X102584300Y-24736198D01*
X102746198Y-24574300D01*
X102877523Y-24386749D01*
X102897617Y-24343655D01*
X102943790Y-24291215D01*
X103010983Y-24272063D01*
X103077864Y-24292278D01*
X103122382Y-24343655D01*
X103140850Y-24383261D01*
X103142477Y-24386749D01*
X103273802Y-24574300D01*
X103435700Y-24736198D01*
X103623251Y-24867523D01*
X103623254Y-24867524D01*
X103623255Y-24867525D01*
X103678447Y-24893261D01*
X103830757Y-24964284D01*
X104051913Y-25023543D01*
X104203970Y-25036846D01*
X104279999Y-25043498D01*
X104279999Y-25043497D01*
X104280000Y-25043498D01*
X104508087Y-25023543D01*
X104729243Y-24964284D01*
X104936749Y-24867523D01*
X105124300Y-24736198D01*
X105286198Y-24574300D01*
X105417523Y-24386749D01*
X105437617Y-24343655D01*
X105483790Y-24291215D01*
X105550983Y-24272063D01*
X105617864Y-24292278D01*
X105662382Y-24343655D01*
X105680850Y-24383261D01*
X105682477Y-24386749D01*
X105813802Y-24574300D01*
X105975700Y-24736198D01*
X106163251Y-24867523D01*
X106163254Y-24867524D01*
X106163255Y-24867525D01*
X106218447Y-24893261D01*
X106370757Y-24964284D01*
X106591913Y-25023543D01*
X106820000Y-25043498D01*
X107048087Y-25023543D01*
X107269243Y-24964284D01*
X107476749Y-24867523D01*
X107664300Y-24736198D01*
X107826198Y-24574300D01*
X107957523Y-24386749D01*
X107977617Y-24343655D01*
X108023790Y-24291215D01*
X108090983Y-24272063D01*
X108157864Y-24292278D01*
X108202382Y-24343655D01*
X108220850Y-24383261D01*
X108222477Y-24386749D01*
X108353802Y-24574300D01*
X108515700Y-24736198D01*
X108703251Y-24867523D01*
X108703254Y-24867524D01*
X108703255Y-24867525D01*
X108758447Y-24893261D01*
X108910757Y-24964284D01*
X109131913Y-25023543D01*
X109360000Y-25043498D01*
X109588087Y-25023543D01*
X109809243Y-24964284D01*
X110016749Y-24867523D01*
X110204300Y-24736198D01*
X110366198Y-24574300D01*
X110497523Y-24386749D01*
X110517617Y-24343655D01*
X110563790Y-24291215D01*
X110630983Y-24272063D01*
X110697864Y-24292278D01*
X110742382Y-24343655D01*
X110760850Y-24383261D01*
X110762477Y-24386749D01*
X110893802Y-24574300D01*
X111055700Y-24736198D01*
X111243251Y-24867523D01*
X111243254Y-24867524D01*
X111243255Y-24867525D01*
X111298447Y-24893261D01*
X111450757Y-24964284D01*
X111671913Y-25023543D01*
X111900000Y-25043498D01*
X112128087Y-25023543D01*
X112349243Y-24964284D01*
X112556749Y-24867523D01*
X112744300Y-24736198D01*
X112906198Y-24574300D01*
X113037523Y-24386749D01*
X113057617Y-24343655D01*
X113103790Y-24291215D01*
X113170983Y-24272063D01*
X113237864Y-24292278D01*
X113282382Y-24343655D01*
X113300850Y-24383261D01*
X113302477Y-24386749D01*
X113433802Y-24574300D01*
X113595700Y-24736198D01*
X113783251Y-24867523D01*
X113783254Y-24867524D01*
X113783255Y-24867525D01*
X113838447Y-24893261D01*
X113990757Y-24964284D01*
X114211913Y-25023543D01*
X114440000Y-25043498D01*
X114668087Y-25023543D01*
X114889243Y-24964284D01*
X115096749Y-24867523D01*
X115284300Y-24736198D01*
X115446198Y-24574300D01*
X115451564Y-24566636D01*
X115506136Y-24523010D01*
X115575634Y-24515813D01*
X115637991Y-24547333D01*
X115673407Y-24607561D01*
X115676429Y-24624498D01*
X115678010Y-24639201D01*
X115729110Y-24776203D01*
X115816738Y-24893261D01*
X115933796Y-24980889D01*
X116070794Y-25031988D01*
X116070797Y-25031988D01*
X116070799Y-25031989D01*
X116131362Y-25038500D01*
X116134672Y-25038500D01*
X117825328Y-25038500D01*
X117828638Y-25038500D01*
X117889201Y-25031989D01*
X117889203Y-25031988D01*
X117889205Y-25031988D01*
X117974966Y-25000000D01*
X118026204Y-24980889D01*
X118143261Y-24893261D01*
X118230889Y-24776204D01*
X118274385Y-24659588D01*
X118281988Y-24639205D01*
X118281988Y-24639203D01*
X118281989Y-24639201D01*
X118288500Y-24578638D01*
X118288500Y-22881362D01*
X118281989Y-22820799D01*
X118281988Y-22820797D01*
X118281988Y-22820794D01*
X118230889Y-22683796D01*
X118143261Y-22566738D01*
X118026203Y-22479110D01*
X117889205Y-22428011D01*
X117831924Y-22421853D01*
X117831918Y-22421852D01*
X117828638Y-22421500D01*
X116131362Y-22421500D01*
X116128082Y-22421852D01*
X116128075Y-22421853D01*
X116070794Y-22428011D01*
X115933796Y-22479110D01*
X115816738Y-22566738D01*
X115729110Y-22683796D01*
X115678009Y-22820799D01*
X115676429Y-22835501D01*
X115649690Y-22900052D01*
X115592296Y-22939898D01*
X115522471Y-22942390D01*
X115462383Y-22906737D01*
X115451564Y-22893364D01*
X115446197Y-22885699D01*
X115284303Y-22723805D01*
X115284302Y-22723805D01*
X115284300Y-22723802D01*
X115096749Y-22592477D01*
X115096746Y-22592476D01*
X115096744Y-22592474D01*
X114889246Y-22495717D01*
X114889243Y-22495716D01*
X114722832Y-22451126D01*
X114668084Y-22436456D01*
X114440000Y-22416501D01*
X114211915Y-22436456D01*
X113990753Y-22495717D01*
X113783255Y-22592474D01*
X113595696Y-22723805D01*
X113433805Y-22885696D01*
X113433802Y-22885699D01*
X113433802Y-22885700D01*
X113351826Y-23002774D01*
X113302475Y-23073254D01*
X113282380Y-23116347D01*
X113236207Y-23168785D01*
X113169013Y-23187936D01*
X113102132Y-23167719D01*
X113057618Y-23116345D01*
X113037523Y-23073251D01*
X112906198Y-22885700D01*
X112744300Y-22723802D01*
X112556749Y-22592477D01*
X112556746Y-22592476D01*
X112556744Y-22592474D01*
X112349246Y-22495717D01*
X112349243Y-22495716D01*
X112182832Y-22451126D01*
X112128084Y-22436456D01*
X111900000Y-22416501D01*
X111671915Y-22436456D01*
X111450753Y-22495717D01*
X111243255Y-22592474D01*
X111055696Y-22723805D01*
X110893805Y-22885696D01*
X110893802Y-22885699D01*
X110893802Y-22885700D01*
X110815566Y-22997433D01*
X110762476Y-23073253D01*
X110742382Y-23116345D01*
X110696209Y-23168784D01*
X110629016Y-23187936D01*
X110562135Y-23167720D01*
X110517618Y-23116345D01*
X110516214Y-23113334D01*
X110497523Y-23073251D01*
X110366198Y-22885700D01*
X110204300Y-22723802D01*
X110016749Y-22592477D01*
X110016746Y-22592476D01*
X110016744Y-22592474D01*
X109809246Y-22495717D01*
X109809243Y-22495716D01*
X109642832Y-22451126D01*
X109588084Y-22436456D01*
X109360000Y-22416501D01*
X109131915Y-22436456D01*
X108910753Y-22495717D01*
X108703255Y-22592474D01*
X108515696Y-22723805D01*
X108353805Y-22885696D01*
X108353802Y-22885699D01*
X108353802Y-22885700D01*
X108271826Y-23002774D01*
X108222475Y-23073254D01*
X108202380Y-23116347D01*
X108156207Y-23168785D01*
X108089013Y-23187936D01*
X108022132Y-23167719D01*
X107977618Y-23116345D01*
X107957523Y-23073251D01*
X107826198Y-22885700D01*
X107664300Y-22723802D01*
X107476749Y-22592477D01*
X107476746Y-22592476D01*
X107476744Y-22592474D01*
X107269246Y-22495717D01*
X107269243Y-22495716D01*
X107102832Y-22451126D01*
X107048084Y-22436456D01*
X106820000Y-22416501D01*
X106591915Y-22436456D01*
X106370753Y-22495717D01*
X106163255Y-22592474D01*
X105975696Y-22723805D01*
X105813805Y-22885696D01*
X105813802Y-22885699D01*
X105813802Y-22885700D01*
X105735566Y-22997433D01*
X105682476Y-23073253D01*
X105662382Y-23116345D01*
X105616209Y-23168784D01*
X105549016Y-23187936D01*
X105482135Y-23167720D01*
X105437618Y-23116345D01*
X105436214Y-23113334D01*
X105417523Y-23073251D01*
X105286198Y-22885700D01*
X105124300Y-22723802D01*
X104936749Y-22592477D01*
X104936746Y-22592476D01*
X104936744Y-22592474D01*
X104729246Y-22495717D01*
X104729243Y-22495716D01*
X104562832Y-22451126D01*
X104508084Y-22436456D01*
X104280000Y-22416501D01*
X104051915Y-22436456D01*
X103830753Y-22495717D01*
X103623255Y-22592474D01*
X103435696Y-22723805D01*
X103273805Y-22885696D01*
X103273802Y-22885699D01*
X103273802Y-22885700D01*
X103195566Y-22997433D01*
X103142476Y-23073253D01*
X103122382Y-23116345D01*
X103076209Y-23168784D01*
X103009016Y-23187936D01*
X102942135Y-23167720D01*
X102897618Y-23116345D01*
X102896214Y-23113334D01*
X102877523Y-23073251D01*
X102746198Y-22885700D01*
X102584300Y-22723802D01*
X102396749Y-22592477D01*
X102396746Y-22592476D01*
X102396744Y-22592474D01*
X102189246Y-22495717D01*
X102189243Y-22495716D01*
X102022832Y-22451126D01*
X101968084Y-22436456D01*
X101740000Y-22416501D01*
X101511915Y-22436456D01*
X101290753Y-22495717D01*
X101083255Y-22592474D01*
X100895696Y-22723805D01*
X100733805Y-22885696D01*
X100733802Y-22885699D01*
X100733802Y-22885700D01*
X100655566Y-22997433D01*
X100602476Y-23073253D01*
X100582382Y-23116345D01*
X100536209Y-23168784D01*
X100469016Y-23187936D01*
X100402135Y-23167720D01*
X100357618Y-23116345D01*
X100356214Y-23113334D01*
X100337523Y-23073251D01*
X100206198Y-22885700D01*
X100044300Y-22723802D01*
X99856749Y-22592477D01*
X99856746Y-22592476D01*
X99856744Y-22592474D01*
X99649246Y-22495717D01*
X99649243Y-22495716D01*
X99482832Y-22451126D01*
X99428084Y-22436456D01*
X99200000Y-22416501D01*
X98971915Y-22436456D01*
X98750753Y-22495717D01*
X98543255Y-22592474D01*
X98355696Y-22723805D01*
X98193805Y-22885696D01*
X98193802Y-22885699D01*
X98193802Y-22885700D01*
X98111826Y-23002774D01*
X98062475Y-23073254D01*
X98042380Y-23116347D01*
X97996207Y-23168785D01*
X97929013Y-23187936D01*
X97862132Y-23167719D01*
X97817618Y-23116345D01*
X97797523Y-23073251D01*
X97666198Y-22885700D01*
X97504300Y-22723802D01*
X97316749Y-22592477D01*
X97316746Y-22592476D01*
X97316744Y-22592474D01*
X97109246Y-22495717D01*
X97109243Y-22495716D01*
X96942832Y-22451126D01*
X96888084Y-22436456D01*
X96660000Y-22416501D01*
X96431915Y-22436456D01*
X96210753Y-22495717D01*
X96003255Y-22592474D01*
X95815696Y-22723805D01*
X95653805Y-22885696D01*
X95653802Y-22885699D01*
X95653802Y-22885700D01*
X95575566Y-22997433D01*
X95522476Y-23073253D01*
X95502382Y-23116345D01*
X95456209Y-23168784D01*
X95389016Y-23187936D01*
X95322135Y-23167720D01*
X95277618Y-23116345D01*
X95276214Y-23113334D01*
X95257523Y-23073251D01*
X95126198Y-22885700D01*
X94964300Y-22723802D01*
X94776749Y-22592477D01*
X94776746Y-22592476D01*
X94776744Y-22592474D01*
X94569246Y-22495717D01*
X94569243Y-22495716D01*
X94402832Y-22451126D01*
X94348084Y-22436456D01*
X94120000Y-22416501D01*
X93891915Y-22436456D01*
X93670753Y-22495717D01*
X93463255Y-22592474D01*
X93275696Y-22723805D01*
X93113805Y-22885696D01*
X93113802Y-22885699D01*
X93113802Y-22885700D01*
X93035566Y-22997433D01*
X92982476Y-23073253D01*
X92962382Y-23116345D01*
X92916209Y-23168784D01*
X92849016Y-23187936D01*
X92782135Y-23167720D01*
X92737618Y-23116345D01*
X92736214Y-23113334D01*
X92717523Y-23073251D01*
X92586198Y-22885700D01*
X92424300Y-22723802D01*
X92236749Y-22592477D01*
X92236746Y-22592476D01*
X92236744Y-22592474D01*
X92029246Y-22495717D01*
X92029243Y-22495716D01*
X91862832Y-22451126D01*
X91808084Y-22436456D01*
X91580000Y-22416501D01*
X91351915Y-22436456D01*
X91130753Y-22495717D01*
X90923255Y-22592474D01*
X90735696Y-22723805D01*
X90573805Y-22885696D01*
X90573802Y-22885699D01*
X90573802Y-22885700D01*
X90495566Y-22997433D01*
X90442476Y-23073253D01*
X90422382Y-23116345D01*
X90376209Y-23168784D01*
X90309016Y-23187936D01*
X90242135Y-23167720D01*
X90197618Y-23116345D01*
X90196214Y-23113334D01*
X90177523Y-23073251D01*
X90046198Y-22885700D01*
X89884300Y-22723802D01*
X89696749Y-22592477D01*
X89696746Y-22592476D01*
X89696744Y-22592474D01*
X89489246Y-22495717D01*
X89489243Y-22495716D01*
X89322832Y-22451126D01*
X89268084Y-22436456D01*
X89040000Y-22416501D01*
X88811915Y-22436456D01*
X88590753Y-22495717D01*
X88383255Y-22592474D01*
X88195696Y-22723805D01*
X88033805Y-22885696D01*
X88033802Y-22885699D01*
X88033802Y-22885700D01*
X87955566Y-22997433D01*
X87902476Y-23073253D01*
X87882382Y-23116345D01*
X87836209Y-23168784D01*
X87769016Y-23187936D01*
X87702135Y-23167720D01*
X87657618Y-23116345D01*
X87656214Y-23113334D01*
X87637523Y-23073251D01*
X87506198Y-22885700D01*
X87344300Y-22723802D01*
X87156749Y-22592477D01*
X87156746Y-22592476D01*
X87156744Y-22592474D01*
X86949246Y-22495717D01*
X86949243Y-22495716D01*
X86782832Y-22451126D01*
X86728084Y-22436456D01*
X86500000Y-22416501D01*
X86271915Y-22436456D01*
X86050753Y-22495717D01*
X85843255Y-22592474D01*
X85655696Y-22723805D01*
X85493805Y-22885696D01*
X85493802Y-22885699D01*
X85493802Y-22885700D01*
X85362477Y-23073251D01*
X85362477Y-23073252D01*
X85362474Y-23073256D01*
X85337691Y-23126402D01*
X85291518Y-23178841D01*
X85224325Y-23197992D01*
X85157444Y-23177775D01*
X85112927Y-23126400D01*
X85090132Y-23077516D01*
X84959658Y-22891180D01*
X84798819Y-22730341D01*
X84612480Y-22599865D01*
X84406326Y-22503733D01*
X84210000Y-22451126D01*
X84210000Y-23414314D01*
X84198045Y-23402359D01*
X84085148Y-23344835D01*
X83991481Y-23330000D01*
X83928519Y-23330000D01*
X83834852Y-23344835D01*
X83721955Y-23402359D01*
X83710000Y-23414314D01*
X83710000Y-22451127D01*
X83709999Y-22451126D01*
X83513673Y-22503733D01*
X83307519Y-22599865D01*
X83121180Y-22730341D01*
X82960341Y-22891180D01*
X82829865Y-23077519D01*
X82733733Y-23283673D01*
X82681128Y-23479999D01*
X82681128Y-23480000D01*
X83644314Y-23480000D01*
X83632359Y-23491955D01*
X83574835Y-23604852D01*
X83555014Y-23730000D01*
X83574835Y-23855148D01*
X83632359Y-23968045D01*
X83644314Y-23980000D01*
X82681128Y-23980000D01*
X69260663Y-23980000D01*
X69250889Y-23953796D01*
X69163261Y-23836738D01*
X69046203Y-23749110D01*
X68909205Y-23698011D01*
X68851924Y-23691853D01*
X68851918Y-23691852D01*
X68848638Y-23691500D01*
X67151362Y-23691500D01*
X67148082Y-23691852D01*
X67148075Y-23691853D01*
X67090794Y-23698011D01*
X66953796Y-23749110D01*
X66836738Y-23836738D01*
X66749110Y-23953796D01*
X66698011Y-24090794D01*
X66691853Y-24148075D01*
X66691500Y-24151362D01*
X66691500Y-25848638D01*
X66691852Y-25851918D01*
X66691853Y-25851924D01*
X66698011Y-25909205D01*
X66749110Y-26046203D01*
X66836738Y-26163261D01*
X66953796Y-26250889D01*
X67096992Y-26304300D01*
X67152926Y-26346171D01*
X67177342Y-26411636D01*
X67162490Y-26479909D01*
X67141340Y-26508162D01*
X66993802Y-26655700D01*
X66862474Y-26843255D01*
X66765717Y-27050753D01*
X66706456Y-27271915D01*
X66686501Y-27499999D01*
X35183576Y-27499999D01*
X35142122Y-27335481D01*
X35049069Y-27130620D01*
X34920934Y-26945667D01*
X34761832Y-26786565D01*
X34576879Y-26658430D01*
X34372018Y-26565377D01*
X34153831Y-26510400D01*
X34024125Y-26500191D01*
X34019246Y-26500000D01*
X33207500Y-26500000D01*
X33207500Y-28000000D01*
X32707500Y-28000000D01*
X32707500Y-26500000D01*
X31895755Y-26500000D01*
X31890874Y-26500192D01*
X31761168Y-26510400D01*
X31542981Y-26565377D01*
X31338120Y-26658430D01*
X31153167Y-26786565D01*
X30994065Y-26945667D01*
X30865930Y-27130620D01*
X30772877Y-27335481D01*
X30717900Y-27553668D01*
X30707691Y-27683374D01*
X30707500Y-27688254D01*
X30707500Y-28250000D01*
X21586047Y-28250000D01*
X21880870Y-28185104D01*
X21887315Y-28183315D01*
X22220062Y-28071199D01*
X22226304Y-28068712D01*
X22544961Y-27921285D01*
X22550900Y-27918137D01*
X22851759Y-27737117D01*
X22857305Y-27733357D01*
X23136846Y-27520856D01*
X23141950Y-27516519D01*
X23152742Y-27506296D01*
X23152743Y-27506295D01*
X21944180Y-26297733D01*
X22134870Y-26134870D01*
X22297733Y-25944180D01*
X23503556Y-27150003D01*
X23503557Y-27150003D01*
X23628792Y-27002566D01*
X23632852Y-26997225D01*
X23829897Y-26706606D01*
X23833350Y-26700868D01*
X23964513Y-26453468D01*
X49459000Y-26453468D01*
X49459352Y-26456748D01*
X49459353Y-26456754D01*
X49465511Y-26514035D01*
X49516610Y-26651033D01*
X49604238Y-26768091D01*
X49721296Y-26855719D01*
X49858294Y-26906818D01*
X49858297Y-26906818D01*
X49858299Y-26906819D01*
X49918862Y-26913330D01*
X49922172Y-26913330D01*
X51917828Y-26913330D01*
X51921138Y-26913330D01*
X51981701Y-26906819D01*
X51981703Y-26906818D01*
X51981705Y-26906818D01*
X52071091Y-26873478D01*
X52118704Y-26855719D01*
X52235761Y-26768091D01*
X52323389Y-26651034D01*
X52334526Y-26621172D01*
X52376396Y-26565242D01*
X52441860Y-26540824D01*
X52510133Y-26555675D01*
X52526870Y-26566655D01*
X52662835Y-26672481D01*
X52874539Y-26787049D01*
X53102208Y-26865209D01*
X53209999Y-26883196D01*
X53209999Y-25896513D01*
X53238819Y-25914039D01*
X53384404Y-25954830D01*
X53497622Y-25954830D01*
X53609783Y-25939414D01*
X53710000Y-25895883D01*
X53710000Y-26883195D01*
X53817791Y-26865209D01*
X54045460Y-26787049D01*
X54257164Y-26672481D01*
X54447122Y-26524631D01*
X54610154Y-26347532D01*
X54621113Y-26330758D01*
X54674259Y-26285401D01*
X54743490Y-26275976D01*
X54806826Y-26305477D01*
X54828731Y-26330756D01*
X54843111Y-26352766D01*
X54843114Y-26352770D01*
X55007100Y-26530906D01*
X55198170Y-26679622D01*
X55411112Y-26794860D01*
X55468363Y-26814514D01*
X55640114Y-26873478D01*
X55878938Y-26913330D01*
X56121062Y-26913330D01*
X56359885Y-26873478D01*
X56493596Y-26827574D01*
X56588888Y-26794860D01*
X56801830Y-26679622D01*
X56992900Y-26530906D01*
X57156886Y-26352770D01*
X57289315Y-26150072D01*
X57386575Y-25928342D01*
X57446013Y-25693627D01*
X57461000Y-25512757D01*
X57461000Y-25296903D01*
X57446013Y-25116033D01*
X57386575Y-24881318D01*
X57289315Y-24659588D01*
X57156886Y-24456890D01*
X56992900Y-24278754D01*
X56801830Y-24130038D01*
X56588888Y-24014800D01*
X56588887Y-24014799D01*
X56588886Y-24014799D01*
X56359885Y-23936181D01*
X56121062Y-23896330D01*
X55878938Y-23896330D01*
X55640114Y-23936181D01*
X55411113Y-24014799D01*
X55333807Y-24056635D01*
X55198170Y-24130038D01*
X55198168Y-24130039D01*
X55198167Y-24130040D01*
X55007099Y-24278753D01*
X54843113Y-24456888D01*
X54828731Y-24478903D01*
X54775585Y-24524260D01*
X54706353Y-24533683D01*
X54643018Y-24504181D01*
X54621114Y-24478903D01*
X54610153Y-24462127D01*
X54447122Y-24285028D01*
X54257164Y-24137178D01*
X54045460Y-24022610D01*
X53817792Y-23944449D01*
X53710000Y-23926463D01*
X53710000Y-24913146D01*
X53681181Y-24895621D01*
X53535596Y-24854830D01*
X53422378Y-24854830D01*
X53310217Y-24870246D01*
X53209999Y-24913776D01*
X53209999Y-23926463D01*
X53209998Y-23926463D01*
X53102207Y-23944450D01*
X52874539Y-24022610D01*
X52662835Y-24137177D01*
X52526869Y-24243004D01*
X52461875Y-24268646D01*
X52393335Y-24255079D01*
X52343010Y-24206611D01*
X52334527Y-24188490D01*
X52323389Y-24158626D01*
X52323387Y-24158623D01*
X52235761Y-24041568D01*
X52118703Y-23953940D01*
X51981705Y-23902841D01*
X51924424Y-23896683D01*
X51924418Y-23896682D01*
X51921138Y-23896330D01*
X49918862Y-23896330D01*
X49915582Y-23896682D01*
X49915575Y-23896683D01*
X49858294Y-23902841D01*
X49721296Y-23953940D01*
X49604238Y-24041568D01*
X49516610Y-24158626D01*
X49465511Y-24295624D01*
X49459353Y-24352905D01*
X49459000Y-24356192D01*
X49459000Y-26453468D01*
X23964513Y-26453468D01*
X23997830Y-26390626D01*
X24000639Y-26384552D01*
X24130603Y-26058368D01*
X24132748Y-26052001D01*
X24226682Y-25713684D01*
X24228125Y-25707130D01*
X24284930Y-25360630D01*
X24285656Y-25353958D01*
X24304665Y-25003356D01*
X24304665Y-24996643D01*
X24285656Y-24646041D01*
X24284930Y-24639369D01*
X24228125Y-24292869D01*
X24226682Y-24286315D01*
X24166244Y-24068638D01*
X41391500Y-24068638D01*
X41391852Y-24071918D01*
X41391853Y-24071924D01*
X41398011Y-24129205D01*
X41449110Y-24266203D01*
X41536738Y-24383261D01*
X41653796Y-24470889D01*
X41790794Y-24521988D01*
X41790797Y-24521988D01*
X41790799Y-24521989D01*
X41851362Y-24528500D01*
X41854672Y-24528500D01*
X44145328Y-24528500D01*
X44148638Y-24528500D01*
X44209201Y-24521989D01*
X44209203Y-24521988D01*
X44209205Y-24521988D01*
X44287124Y-24492924D01*
X44346204Y-24470889D01*
X44463261Y-24383261D01*
X44550889Y-24266204D01*
X44579877Y-24188484D01*
X44601988Y-24129205D01*
X44601988Y-24129203D01*
X44601989Y-24129201D01*
X44608500Y-24068638D01*
X44608500Y-21771362D01*
X44601989Y-21710799D01*
X44601988Y-21710797D01*
X44601988Y-21710794D01*
X44550889Y-21573796D01*
X44463261Y-21456738D01*
X44346203Y-21369110D01*
X44209205Y-21318011D01*
X44151924Y-21311853D01*
X44151918Y-21311852D01*
X44148638Y-21311500D01*
X41851362Y-21311500D01*
X41848082Y-21311852D01*
X41848075Y-21311853D01*
X41790794Y-21318011D01*
X41653796Y-21369110D01*
X41536738Y-21456738D01*
X41449110Y-21573796D01*
X41398011Y-21710794D01*
X41394935Y-21739411D01*
X41391500Y-21771362D01*
X41391500Y-24068638D01*
X24166244Y-24068638D01*
X24132748Y-23947998D01*
X24130603Y-23941631D01*
X24000639Y-23615447D01*
X23997830Y-23609373D01*
X23833350Y-23299131D01*
X23829897Y-23293393D01*
X23632852Y-23002774D01*
X23628792Y-22997433D01*
X23503557Y-22849995D01*
X23503556Y-22849994D01*
X22297732Y-24055818D01*
X22134870Y-23865130D01*
X21944180Y-23702266D01*
X23152743Y-22493703D01*
X23141942Y-22483473D01*
X23136842Y-22479141D01*
X22857305Y-22266642D01*
X22851759Y-22262882D01*
X22550900Y-22081862D01*
X22544961Y-22078714D01*
X22226304Y-21931287D01*
X22220062Y-21928800D01*
X21887315Y-21816684D01*
X21880870Y-21814895D01*
X21537946Y-21739411D01*
X21531322Y-21738325D01*
X21182259Y-21700363D01*
X21175563Y-21700000D01*
X20824437Y-21700000D01*
X20817740Y-21700363D01*
X20468677Y-21738325D01*
X20462053Y-21739411D01*
X20119129Y-21814895D01*
X20112684Y-21816684D01*
X19779937Y-21928800D01*
X19773695Y-21931287D01*
X19455038Y-22078714D01*
X19449099Y-22081862D01*
X19148240Y-22262882D01*
X19142694Y-22266642D01*
X18863149Y-22479146D01*
X18858054Y-22483474D01*
X18847256Y-22493702D01*
X18847255Y-22493703D01*
X20055819Y-23702266D01*
X19865130Y-23865130D01*
X19702266Y-24055818D01*
X18496442Y-22849994D01*
X18496441Y-22849995D01*
X18371207Y-22997433D01*
X18367147Y-23002774D01*
X18226633Y-23210017D01*
X18172719Y-23254458D01*
X18103337Y-23262696D01*
X18040515Y-23232115D01*
X18004199Y-23172425D01*
X18000000Y-23140430D01*
X18000000Y-20624000D01*
X18019685Y-20556961D01*
X18072489Y-20511206D01*
X18124000Y-20500000D01*
X126876000Y-20500000D01*
X126943039Y-20519685D01*
G37*
%TD.AperFunction*%
%TD*%
M02*
