%TF.GenerationSoftware,KiCad,Pcbnew,7.0.2*%
%TF.CreationDate,2023-05-29T20:29:47-07:00*%
%TF.ProjectId,Test6502_project,54657374-3635-4303-925f-70726f6a6563,rev?*%
%TF.SameCoordinates,Original*%
%TF.FileFunction,Soldermask,Top*%
%TF.FilePolarity,Negative*%
%FSLAX46Y46*%
G04 Gerber Fmt 4.6, Leading zero omitted, Abs format (unit mm)*
G04 Created by KiCad (PCBNEW 7.0.2) date 2023-05-29 20:29:47*
%MOMM*%
%LPD*%
G01*
G04 APERTURE LIST*
G04 Aperture macros list*
%AMRoundRect*
0 Rectangle with rounded corners*
0 $1 Rounding radius*
0 $2 $3 $4 $5 $6 $7 $8 $9 X,Y pos of 4 corners*
0 Add a 4 corners polygon primitive as box body*
4,1,4,$2,$3,$4,$5,$6,$7,$8,$9,$2,$3,0*
0 Add four circle primitives for the rounded corners*
1,1,$1+$1,$2,$3*
1,1,$1+$1,$4,$5*
1,1,$1+$1,$6,$7*
1,1,$1+$1,$8,$9*
0 Add four rect primitives between the rounded corners*
20,1,$1+$1,$2,$3,$4,$5,0*
20,1,$1+$1,$4,$5,$6,$7,0*
20,1,$1+$1,$6,$7,$8,$9,0*
20,1,$1+$1,$8,$9,$2,$3,0*%
G04 Aperture macros list end*
%ADD10C,1.600000*%
%ADD11C,5.600000*%
%ADD12O,1.600000X1.600000*%
%ADD13R,2.200000X2.200000*%
%ADD14O,2.200000X2.200000*%
%ADD15R,1.600000X1.600000*%
%ADD16R,1.700000X1.700000*%
%ADD17O,1.700000X1.700000*%
%ADD18R,3.500000X3.500000*%
%ADD19RoundRect,0.750000X-1.000000X0.750000X-1.000000X-0.750000X1.000000X-0.750000X1.000000X0.750000X0*%
%ADD20RoundRect,0.875000X-0.875000X0.875000X-0.875000X-0.875000X0.875000X-0.875000X0.875000X0.875000X0*%
%ADD21R,1.270000X1.270000*%
%ADD22C,1.270000*%
%ADD23C,2.000000*%
%ADD24R,1.800000X1.800000*%
%ADD25C,1.800000*%
%ADD26R,1.905000X2.000000*%
%ADD27O,1.905000X2.000000*%
G04 APERTURE END LIST*
D10*
%TO.C,C7*%
X123000000Y-40000000D03*
X123000000Y-37500000D03*
%TD*%
D11*
%TO.C,H2*%
X21000000Y-126000000D03*
%TD*%
D10*
%TO.C,R2*%
X44190000Y-114500000D03*
D12*
X51810000Y-114500000D03*
%TD*%
D10*
%TO.C,C5*%
X62660000Y-104000000D03*
X62660000Y-101500000D03*
%TD*%
D13*
%TO.C,D2*%
X43000000Y-22920000D03*
D14*
X43000000Y-33080000D03*
%TD*%
D10*
%TO.C,C4*%
X121000000Y-74760000D03*
X121000000Y-72260000D03*
%TD*%
%TO.C,C3*%
X21000000Y-74760000D03*
X21000000Y-72260000D03*
%TD*%
D15*
%TO.C,ACIA1*%
X115400000Y-72260000D03*
D12*
X112860000Y-72260000D03*
X110320000Y-72260000D03*
X107780000Y-72260000D03*
X105240000Y-72260000D03*
X102700000Y-72260000D03*
X100160000Y-72260000D03*
X97620000Y-72260000D03*
X95080000Y-72260000D03*
X92540000Y-72260000D03*
X90000000Y-72260000D03*
X87460000Y-72260000D03*
X84920000Y-72260000D03*
X82380000Y-72260000D03*
X82380000Y-87500000D03*
X84920000Y-87500000D03*
X87460000Y-87500000D03*
X90000000Y-87500000D03*
X92540000Y-87500000D03*
X95080000Y-87500000D03*
X97620000Y-87500000D03*
X100160000Y-87500000D03*
X102700000Y-87500000D03*
X105240000Y-87500000D03*
X107780000Y-87500000D03*
X110320000Y-87500000D03*
X112860000Y-87500000D03*
X115400000Y-87500000D03*
%TD*%
D16*
%TO.C,J3*%
X70000000Y-40960000D03*
D17*
X70000000Y-43500000D03*
X67460000Y-40960000D03*
X67460000Y-43500000D03*
X64920000Y-40960000D03*
X64920000Y-43500000D03*
X62380000Y-40960000D03*
X62380000Y-43500000D03*
X59840000Y-40960000D03*
X59840000Y-43500000D03*
X57300000Y-40960000D03*
X57300000Y-43500000D03*
%TD*%
D15*
%TO.C,SW_ROM_SEL1*%
X68000000Y-25000000D03*
D10*
X68000000Y-27500000D03*
X68000000Y-30000000D03*
%TD*%
%TO.C,C2*%
X121000000Y-52260000D03*
X121000000Y-49760000D03*
%TD*%
D15*
%TO.C,74LS138*%
X67425000Y-116320000D03*
D12*
X69965000Y-116320000D03*
X72505000Y-116320000D03*
X75045000Y-116320000D03*
X77585000Y-116320000D03*
X80125000Y-116320000D03*
X82665000Y-116320000D03*
X85205000Y-116320000D03*
X85205000Y-108700000D03*
X82665000Y-108700000D03*
X80125000Y-108700000D03*
X77585000Y-108700000D03*
X75045000Y-108700000D03*
X72505000Y-108700000D03*
X69965000Y-108700000D03*
X67425000Y-108700000D03*
%TD*%
D15*
%TO.C,6502CPU1*%
X26820000Y-87500000D03*
D12*
X29360000Y-87500000D03*
X31900000Y-87500000D03*
X34440000Y-87500000D03*
X36980000Y-87500000D03*
X39520000Y-87500000D03*
X42060000Y-87500000D03*
X44600000Y-87500000D03*
X47140000Y-87500000D03*
X49680000Y-87500000D03*
X52220000Y-87500000D03*
X54760000Y-87500000D03*
X57300000Y-87500000D03*
X59840000Y-87500000D03*
X62380000Y-87500000D03*
X64920000Y-87500000D03*
X67460000Y-87500000D03*
X70000000Y-87500000D03*
X72540000Y-87500000D03*
X75080000Y-87500000D03*
X75080000Y-72260000D03*
X72540000Y-72260000D03*
X70000000Y-72260000D03*
X67460000Y-72260000D03*
X64920000Y-72260000D03*
X62380000Y-72260000D03*
X59840000Y-72260000D03*
X57300000Y-72260000D03*
X54760000Y-72260000D03*
X52220000Y-72260000D03*
X49680000Y-72260000D03*
X47140000Y-72260000D03*
X44600000Y-72260000D03*
X42060000Y-72260000D03*
X39520000Y-72260000D03*
X36980000Y-72260000D03*
X34440000Y-72260000D03*
X31900000Y-72260000D03*
X29360000Y-72260000D03*
X26820000Y-72260000D03*
%TD*%
D15*
%TO.C,SW_PWR1*%
X22000000Y-40500000D03*
D10*
X22000000Y-38000000D03*
X22000000Y-35500000D03*
%TD*%
D16*
%TO.C,J1*%
X94960000Y-124000000D03*
D17*
X97500000Y-124000000D03*
X94960000Y-126540000D03*
X97500000Y-126540000D03*
%TD*%
D15*
%TO.C,CLK1*%
X37500000Y-108380000D03*
D10*
X22260000Y-108380000D03*
X22260000Y-116000000D03*
X37500000Y-116000000D03*
%TD*%
%TO.C,R4*%
X51810000Y-125500000D03*
D12*
X44190000Y-125500000D03*
%TD*%
D11*
%TO.C,H4*%
X124000000Y-126000000D03*
%TD*%
%TO.C,H3*%
X124000000Y-25000000D03*
%TD*%
D18*
%TO.C,J5*%
X32957500Y-34500000D03*
D19*
X32957500Y-28500000D03*
D20*
X28257500Y-31500000D03*
%TD*%
D16*
%TO.C,J7*%
X67220000Y-126000000D03*
D17*
X67220000Y-123460000D03*
X69760000Y-126000000D03*
X69760000Y-123460000D03*
X72300000Y-126000000D03*
X72300000Y-123460000D03*
X74840000Y-126000000D03*
X74840000Y-123460000D03*
X77380000Y-126000000D03*
X77380000Y-123460000D03*
X79920000Y-126000000D03*
X79920000Y-123460000D03*
X82460000Y-126000000D03*
X82460000Y-123460000D03*
X85000000Y-126000000D03*
X85000000Y-123460000D03*
%TD*%
D15*
%TO.C,U6*%
X67420000Y-104500000D03*
D12*
X69960000Y-104500000D03*
X72500000Y-104500000D03*
X75040000Y-104500000D03*
X77580000Y-104500000D03*
X80120000Y-104500000D03*
X82660000Y-104500000D03*
X82660000Y-96880000D03*
X80120000Y-96880000D03*
X77580000Y-96880000D03*
X75040000Y-96880000D03*
X72500000Y-96880000D03*
X69960000Y-96880000D03*
X67420000Y-96880000D03*
%TD*%
D21*
%TO.C,DS1813*%
X107270000Y-118540000D03*
D22*
X106000000Y-117270000D03*
X107270000Y-116000000D03*
%TD*%
D10*
%TO.C,R1*%
X44190000Y-109500000D03*
D12*
X51810000Y-109500000D03*
%TD*%
D15*
%TO.C,ROM1*%
X116980000Y-23730000D03*
D12*
X114440000Y-23730000D03*
X111900000Y-23730000D03*
X109360000Y-23730000D03*
X106820000Y-23730000D03*
X104280000Y-23730000D03*
X101740000Y-23730000D03*
X99200000Y-23730000D03*
X96660000Y-23730000D03*
X94120000Y-23730000D03*
X91580000Y-23730000D03*
X89040000Y-23730000D03*
X86500000Y-23730000D03*
X83960000Y-23730000D03*
X83960000Y-38970000D03*
X86500000Y-38970000D03*
X89040000Y-38970000D03*
X91580000Y-38970000D03*
X94120000Y-38970000D03*
X96660000Y-38970000D03*
X99200000Y-38970000D03*
X101740000Y-38970000D03*
X104280000Y-38970000D03*
X106820000Y-38970000D03*
X109360000Y-38970000D03*
X111900000Y-38970000D03*
X114440000Y-38970000D03*
X116980000Y-38970000D03*
%TD*%
D23*
%TO.C,SW_RES1*%
X111500000Y-115000000D03*
X118000000Y-115000000D03*
X111500000Y-119500000D03*
X118000000Y-119500000D03*
%TD*%
D12*
%TO.C,VIA1*%
X26486481Y-49674940D03*
X29026481Y-49674940D03*
X31566481Y-49674940D03*
X34106481Y-49674940D03*
X36646481Y-49674940D03*
X39186481Y-49674940D03*
X41726481Y-49674940D03*
X44266481Y-49674940D03*
X46806481Y-49674940D03*
X49346481Y-49674940D03*
X51886481Y-49674940D03*
X54426481Y-49674940D03*
X56966481Y-49674940D03*
X59506481Y-49674940D03*
X62046481Y-49674940D03*
X64586481Y-49674940D03*
X67126481Y-49674940D03*
X69666481Y-49674940D03*
X72206481Y-49674940D03*
X74746481Y-49674940D03*
X74746481Y-64914940D03*
X72206481Y-64914940D03*
X69666481Y-64914940D03*
X67126481Y-64914940D03*
X64586481Y-64914940D03*
X62046481Y-64914940D03*
X59506481Y-64914940D03*
X56966481Y-64914940D03*
X54426481Y-64914940D03*
X51886481Y-64914940D03*
X49346481Y-64914940D03*
X46806481Y-64914940D03*
X44266481Y-64914940D03*
X41726481Y-64914940D03*
X39186481Y-64914940D03*
X36646481Y-64914940D03*
X34106481Y-64914940D03*
X31566481Y-64914940D03*
X29026481Y-64914940D03*
D15*
X26486481Y-64914940D03*
%TD*%
D24*
%TO.C,D1*%
X38775000Y-125500000D03*
D25*
X36235000Y-125500000D03*
%TD*%
D10*
%TO.C,C6*%
X62500000Y-116000000D03*
X62500000Y-113500000D03*
%TD*%
D16*
%TO.C,J6*%
X30140000Y-97000000D03*
D17*
X30140000Y-94460000D03*
X32680000Y-97000000D03*
X32680000Y-94460000D03*
X35220000Y-97000000D03*
X35220000Y-94460000D03*
X37760000Y-97000000D03*
X37760000Y-94460000D03*
X40300000Y-97000000D03*
X40300000Y-94460000D03*
X42840000Y-97000000D03*
X42840000Y-94460000D03*
X45380000Y-97000000D03*
X45380000Y-94460000D03*
X47920000Y-97000000D03*
X47920000Y-94460000D03*
X50460000Y-97000000D03*
X50460000Y-94460000D03*
X53000000Y-97000000D03*
X53000000Y-94460000D03*
X55540000Y-97000000D03*
X55540000Y-94460000D03*
X58080000Y-97000000D03*
X58080000Y-94460000D03*
%TD*%
D15*
%TO.C,RAM1*%
X115320000Y-49520000D03*
D12*
X112780000Y-49520000D03*
X110240000Y-49520000D03*
X107700000Y-49520000D03*
X105160000Y-49520000D03*
X102620000Y-49520000D03*
X100080000Y-49520000D03*
X97540000Y-49520000D03*
X95000000Y-49520000D03*
X92460000Y-49520000D03*
X89920000Y-49520000D03*
X87380000Y-49520000D03*
X84840000Y-49520000D03*
X82300000Y-49520000D03*
X82300000Y-64760000D03*
X84840000Y-64760000D03*
X87380000Y-64760000D03*
X89920000Y-64760000D03*
X92460000Y-64760000D03*
X95000000Y-64760000D03*
X97540000Y-64760000D03*
X100080000Y-64760000D03*
X102620000Y-64760000D03*
X105160000Y-64760000D03*
X107700000Y-64760000D03*
X110240000Y-64760000D03*
X112780000Y-64760000D03*
X115320000Y-64760000D03*
%TD*%
D11*
%TO.C,H1*%
X21000000Y-25000000D03*
%TD*%
D10*
%TO.C,R3*%
X44190000Y-119500000D03*
D12*
X51810000Y-119500000D03*
%TD*%
D26*
%TO.C,U1*%
X50920000Y-25404830D03*
D27*
X53460000Y-25404830D03*
X56000000Y-25404830D03*
%TD*%
D12*
%TO.C,UART1*%
X121960000Y-92260000D03*
X119420000Y-92260000D03*
X116880000Y-92260000D03*
X114340000Y-92260000D03*
X111800000Y-92260000D03*
X109260000Y-92260000D03*
X106720000Y-92260000D03*
X104180000Y-92260000D03*
X101640000Y-92260000D03*
X99100000Y-92260000D03*
X99100000Y-107500000D03*
X101640000Y-107500000D03*
X104180000Y-107500000D03*
X106720000Y-107500000D03*
X109260000Y-107500000D03*
X111800000Y-107500000D03*
X114340000Y-107500000D03*
X116880000Y-107500000D03*
X119420000Y-107500000D03*
X121960000Y-107500000D03*
%TD*%
D10*
%TO.C,C8*%
X48500000Y-32000000D03*
X51000000Y-32000000D03*
%TD*%
D16*
%TO.C,J2*%
X46000000Y-41000000D03*
D17*
X46000000Y-43540000D03*
X43460000Y-41000000D03*
X43460000Y-43540000D03*
X40920000Y-41000000D03*
X40920000Y-43540000D03*
X38380000Y-41000000D03*
X38380000Y-43540000D03*
X35840000Y-41000000D03*
X35840000Y-43540000D03*
X33300000Y-41000000D03*
X33300000Y-43540000D03*
%TD*%
D10*
%TO.C,C1*%
X21000000Y-52260000D03*
X21000000Y-49760000D03*
%TD*%
%TO.C,C9*%
X58500000Y-32000000D03*
X56000000Y-32000000D03*
%TD*%
M02*
