M48
; DRILL file {KiCad 7.0.2} date Mon May 29 20:33:00 2023
; FORMAT={-:-/ absolute / metric / decimal}
; #@! TF.CreationDate,2023-05-29T20:33:00-07:00
; #@! TF.GenerationSoftware,Kicad,Pcbnew,7.0.2
; #@! TF.FileFunction,Plated,1,2,PTH
FMAT,2
METRIC
; #@! TA.AperFunction,Plated,PTH,ViaDrill
T1C0.400
; #@! TA.AperFunction,Plated,PTH,ComponentDrill
T2C0.762
; #@! TA.AperFunction,Plated,PTH,ComponentDrill
T3C0.800
; #@! TA.AperFunction,Plated,PTH,ComponentDrill
T4C0.900
; #@! TA.AperFunction,Plated,PTH,ComponentDrill
T5C1.000
; #@! TA.AperFunction,Plated,PTH,ComponentDrill
T6C1.100
; #@! TA.AperFunction,Plated,PTH,ComponentDrill
T7C3.200
%
G90
G05
T1
X30.0Y-47.0
X32.0Y-84.5
X33.268Y-79.732
X33.5Y-81.0
X33.5Y-83.0
X34.5Y-46.0
X37.5Y-75.0
X40.5Y-85.5
X44.5Y-45.5
X45.5Y-46.0
X54.512Y-78.988
X55.5Y-114.5
X56.0Y-79.5
X56.025Y-80.5
X56.762Y-81.238
X57.5Y-114.5
X58.0Y-82.325
X60.0Y-82.325
X62.38Y-82.325
X62.5Y-68.5
X64.92Y-82.0
X70.0Y-61.5
X71.0Y-82.0
X71.0Y-83.5
X71.0Y-85.0
X71.5Y-80.5
X72.0Y-63.0
X72.512Y-79.724
X75.5Y-111.0
X75.5Y-114.5
X76.0Y-54.0
X76.0Y-85.0
X76.5Y-118.0
X77.5Y-80.5
X77.5Y-110.5
X77.536Y-52.464
X78.5Y-67.0
X78.5Y-111.0
X78.549Y-114.637
X79.0Y-63.5
X79.0Y-118.0
X79.276Y-66.275
X79.5Y-71.5
X79.5Y-94.5
X79.5Y-101.275
X79.575Y-87.5
X80.0Y-73.0
X80.0Y-110.5
X82.0Y-75.725
X82.5Y-69.5
X83.0Y-90.5
X83.0Y-100.5
X83.012Y-101.512
X85.0Y-75.0
X86.0Y-93.5
X87.0Y-91.5
X87.724Y-92.5
X88.184Y-85.0
X89.5Y-108.5
X90.0Y-84.0
X91.0Y-68.76
X91.5Y-84.5
X91.5Y-98.5
X92.5Y-99.5
X94.0Y-73.5
X94.482Y-85.482
X94.5Y-95.5
X95.0Y-97.0
X97.139Y-86.0
X101.5Y-74.5
X102.0Y-62.0
X103.5Y-74.5
X106.0Y-74.5
X108.5Y-74.5
X110.5Y-81.0
X113.983Y-89.483
X115.5Y-96.0
X116.54Y-69.96
X119.5Y-78.5
X119.5Y-79.5
X119.5Y-80.5
X119.5Y-82.0
X119.5Y-83.0
T2
X106.0Y-117.27
X107.27Y-116.0
X107.27Y-118.54
T3
X21.0Y-49.76
X21.0Y-52.26
X21.0Y-72.26
X21.0Y-74.76
X22.0Y-35.5
X22.0Y-38.0
X22.0Y-40.5
X22.26Y-108.38
X22.26Y-116.0
X26.486Y-49.675
X26.486Y-64.915
X26.82Y-72.26
X26.82Y-87.5
X29.026Y-49.675
X29.026Y-64.915
X29.36Y-72.26
X29.36Y-87.5
X31.566Y-49.675
X31.566Y-64.915
X31.9Y-72.26
X31.9Y-87.5
X34.106Y-49.675
X34.106Y-64.915
X34.44Y-72.26
X34.44Y-87.5
X36.646Y-49.675
X36.646Y-64.915
X36.98Y-72.26
X36.98Y-87.5
X37.5Y-108.38
X37.5Y-116.0
X39.186Y-49.675
X39.186Y-64.915
X39.52Y-72.26
X39.52Y-87.5
X41.726Y-49.675
X41.726Y-64.915
X42.06Y-72.26
X42.06Y-87.5
X44.19Y-109.5
X44.19Y-114.5
X44.19Y-119.5
X44.19Y-125.5
X44.266Y-49.675
X44.266Y-64.915
X44.6Y-72.26
X44.6Y-87.5
X46.806Y-49.675
X46.806Y-64.915
X47.14Y-72.26
X47.14Y-87.5
X48.5Y-32.0
X49.346Y-49.675
X49.346Y-64.915
X49.68Y-72.26
X49.68Y-87.5
X51.0Y-32.0
X51.81Y-109.5
X51.81Y-114.5
X51.81Y-119.5
X51.81Y-125.5
X51.886Y-49.675
X51.886Y-64.915
X52.22Y-72.26
X52.22Y-87.5
X54.426Y-49.675
X54.426Y-64.915
X54.76Y-72.26
X54.76Y-87.5
X56.0Y-32.0
X56.966Y-49.675
X56.966Y-64.915
X57.3Y-72.26
X57.3Y-87.5
X58.5Y-32.0
X59.506Y-49.675
X59.506Y-64.915
X59.84Y-72.26
X59.84Y-87.5
X62.046Y-49.675
X62.046Y-64.915
X62.38Y-72.26
X62.38Y-87.5
X62.5Y-113.5
X62.5Y-116.0
X62.66Y-101.5
X62.66Y-104.0
X64.586Y-49.675
X64.586Y-64.915
X64.92Y-72.26
X64.92Y-87.5
X67.126Y-49.675
X67.126Y-64.915
X67.42Y-96.88
X67.42Y-104.5
X67.425Y-108.7
X67.425Y-116.32
X67.46Y-72.26
X67.46Y-87.5
X68.0Y-25.0
X68.0Y-27.5
X68.0Y-30.0
X69.666Y-49.675
X69.666Y-64.915
X69.96Y-96.88
X69.96Y-104.5
X69.965Y-108.7
X69.965Y-116.32
X70.0Y-72.26
X70.0Y-87.5
X72.206Y-49.675
X72.206Y-64.915
X72.5Y-96.88
X72.5Y-104.5
X72.505Y-108.7
X72.505Y-116.32
X72.54Y-72.26
X72.54Y-87.5
X74.746Y-49.675
X74.746Y-64.915
X75.04Y-96.88
X75.04Y-104.5
X75.045Y-108.7
X75.045Y-116.32
X75.08Y-72.26
X75.08Y-87.5
X77.58Y-96.88
X77.58Y-104.5
X77.585Y-108.7
X77.585Y-116.32
X80.12Y-96.88
X80.12Y-104.5
X80.125Y-108.7
X80.125Y-116.32
X82.3Y-49.52
X82.3Y-64.76
X82.38Y-72.26
X82.38Y-87.5
X82.66Y-96.88
X82.66Y-104.5
X82.665Y-108.7
X82.665Y-116.32
X83.96Y-23.73
X83.96Y-38.97
X84.84Y-49.52
X84.84Y-64.76
X84.92Y-72.26
X84.92Y-87.5
X85.205Y-108.7
X85.205Y-116.32
X86.5Y-23.73
X86.5Y-38.97
X87.38Y-49.52
X87.38Y-64.76
X87.46Y-72.26
X87.46Y-87.5
X89.04Y-23.73
X89.04Y-38.97
X89.92Y-49.52
X89.92Y-64.76
X90.0Y-72.26
X90.0Y-87.5
X91.58Y-23.73
X91.58Y-38.97
X92.46Y-49.52
X92.46Y-64.76
X92.54Y-72.26
X92.54Y-87.5
X94.12Y-23.73
X94.12Y-38.97
X95.0Y-49.52
X95.0Y-64.76
X95.08Y-72.26
X95.08Y-87.5
X96.66Y-23.73
X96.66Y-38.97
X97.54Y-49.52
X97.54Y-64.76
X97.62Y-72.26
X97.62Y-87.5
X99.1Y-92.26
X99.1Y-107.5
X99.2Y-23.73
X99.2Y-38.97
X100.08Y-49.52
X100.08Y-64.76
X100.16Y-72.26
X100.16Y-87.5
X101.64Y-92.26
X101.64Y-107.5
X101.74Y-23.73
X101.74Y-38.97
X102.62Y-49.52
X102.62Y-64.76
X102.7Y-72.26
X102.7Y-87.5
X104.18Y-92.26
X104.18Y-107.5
X104.28Y-23.73
X104.28Y-38.97
X105.16Y-49.52
X105.16Y-64.76
X105.24Y-72.26
X105.24Y-87.5
X106.72Y-92.26
X106.72Y-107.5
X106.82Y-23.73
X106.82Y-38.97
X107.7Y-49.52
X107.7Y-64.76
X107.78Y-72.26
X107.78Y-87.5
X109.26Y-92.26
X109.26Y-107.5
X109.36Y-23.73
X109.36Y-38.97
X110.24Y-49.52
X110.24Y-64.76
X110.32Y-72.26
X110.32Y-87.5
X111.8Y-92.26
X111.8Y-107.5
X111.9Y-23.73
X111.9Y-38.97
X112.78Y-49.52
X112.78Y-64.76
X112.86Y-72.26
X112.86Y-87.5
X114.34Y-92.26
X114.34Y-107.5
X114.44Y-23.73
X114.44Y-38.97
X115.32Y-49.52
X115.32Y-64.76
X115.4Y-72.26
X115.4Y-87.5
X116.88Y-92.26
X116.88Y-107.5
X116.98Y-23.73
X116.98Y-38.97
X119.42Y-92.26
X119.42Y-107.5
X121.0Y-49.76
X121.0Y-52.26
X121.0Y-72.26
X121.0Y-74.76
X121.96Y-92.26
X121.96Y-107.5
X123.0Y-37.5
X123.0Y-40.0
T4
X36.235Y-125.5
X38.775Y-125.5
T5
X30.14Y-94.46
X30.14Y-97.0
X32.68Y-94.46
X32.68Y-97.0
X33.3Y-41.0
X33.3Y-43.54
X35.22Y-94.46
X35.22Y-97.0
X35.84Y-41.0
X35.84Y-43.54
X37.76Y-94.46
X37.76Y-97.0
X38.38Y-41.0
X38.38Y-43.54
X40.3Y-94.46
X40.3Y-97.0
X40.92Y-41.0
X40.92Y-43.54
X42.84Y-94.46
X42.84Y-97.0
X43.46Y-41.0
X43.46Y-43.54
X45.38Y-94.46
X45.38Y-97.0
X46.0Y-41.0
X46.0Y-43.54
X47.92Y-94.46
X47.92Y-97.0
X50.46Y-94.46
X50.46Y-97.0
X53.0Y-94.46
X53.0Y-97.0
X55.54Y-94.46
X55.54Y-97.0
X57.3Y-40.96
X57.3Y-43.5
X58.08Y-94.46
X58.08Y-97.0
X59.84Y-40.96
X59.84Y-43.5
X62.38Y-40.96
X62.38Y-43.5
X64.92Y-40.96
X64.92Y-43.5
X67.22Y-123.46
X67.22Y-126.0
X67.46Y-40.96
X67.46Y-43.5
X69.76Y-123.46
X69.76Y-126.0
X70.0Y-40.96
X70.0Y-43.5
X72.3Y-123.46
X72.3Y-126.0
X74.84Y-123.46
X74.84Y-126.0
X77.38Y-123.46
X77.38Y-126.0
X79.92Y-123.46
X79.92Y-126.0
X82.46Y-123.46
X82.46Y-126.0
X85.0Y-123.46
X85.0Y-126.0
X94.96Y-124.0
X94.96Y-126.54
X97.5Y-124.0
X97.5Y-126.54
T6
X43.0Y-22.92
X43.0Y-33.08
X50.92Y-25.405
X53.46Y-25.405
X56.0Y-25.405
X111.5Y-115.0
X111.5Y-119.5
X118.0Y-115.0
X118.0Y-119.5
T7
X21.0Y-25.0
X21.0Y-126.0
X124.0Y-25.0
X124.0Y-126.0
T5
G00X28.258Y-30.5
M15
G01X28.258Y-32.5
M16
G05
G00X33.957Y-28.5
M15
G01X31.957Y-28.5
M16
G05
G00X33.957Y-34.5
M15
G01X31.957Y-34.5
M16
G05
T0
M30
